<mxfile host="app.diagrams.net" agent="Mozilla/5.0 (Windows NT 10.0; Win64; x64; rv:132.0) Gecko/20100101 Firefox/132.0" version="24.8.6">
  <diagram name="Page-1" id="t1vYCXbqZa4I-bqzghIG">
    <mxGraphModel dx="1434" dy="746" grid="0" gridSize="10" guides="1" tooltips="1" connect="1" arrows="1" fold="1" page="1" pageScale="1" pageWidth="850" pageHeight="1100" math="0" shadow="0">
      <root>
        <mxCell id="0" />
        <mxCell id="1" parent="0" />
        <mxCell id="HsP99W9kWxpz9ayobVGK-1" value="" style="shape=image;verticalLabelPosition=bottom;labelBackgroundColor=default;verticalAlign=top;aspect=fixed;imageAspect=0;image=data:image/png,iVBORw0KGgoAAAANSUhEUgAAAScAAAC7CAYAAAAniVjNAAAgAElEQVR4XuydCZzX0/f/z+xN+16UtFKoiBSFhCyRJSGRlGhB9vbSQlJIhVD2bNkTsi9libKEVLakfd+mZv+f5x2n//1+flMzNTPN5zPzfntkZj6f9/u+7z333td9neWeG5Wenp4pebyio6MlLS1NVqxYIWvWrJHU1FRJSEiQuLg4SU5Odt/t7YqKihL+2ZWZmSn8s89Kly4tGzZsEN7Dv8TERMnIyHDvadiwoVSsWNE9yjMpKSnuvdznl5HHJgaPBxIothJgHjHX4uPjD6gMovTFeQYnakzlAQUuBTyJiYlxv/uf72vLDFwAIn6nTMqLjY11wLV161YpW7asK3bXrl1SokQJ9ztgyDMAFPcGVyCBQAL7L4GIB6f9b3rwZCCBQALhLIEAnMK5d4K6BRIoxhIIwKkYd37Q9EAC4SyBAJzCuXeCugUSKMYSCMCpGHd+0PRAAuEsgQCcwrl3groFEijGEgjAqRh3ftD0QALhLIEAnMK5d4K6BRIoxhIIwKkYd37Q9EAC4SyBAJzCuXeCugUSKMYSCMCpGHd+0PRAAuEsgQCcwrl3groFEijGEgjAqRh3ftD0QALhLIEAnMK5d4K6BRIoxhIIwKkYd37Q9EAC4SyBAJzCuXeCugUSKMYSCMCpGHd+0PRAAuEsgQCcwrl3groFEijGEgjAqRh3ftD0QALhLIEAnMK5d4K6BRIoxhIIwKkYd37Q9EAC4SyBAJzCuXeCugUSKMYSCMCpGHd+0PRAAuEsgQCcwrl3groFEijGEgjAKcI730415hBPDhXlHyekbtq0yR3sWaZMGdm+fbtwejEHg3Iy8bZt26RSpUq7DyP1RcCAoIzgUNAIHxhFoPoBOEVwJ9J5nDDMKcScMmynHPPz008/lblz50qLFi2kdevWDqS4/vnnH3n11VelatWqcvjhh8sxxxyz+zh1AMmOfvZPT45gEQVVj2AJBOAUwZ1nR59bE+xodFjTww8/LI8//rg7Kv3GG2+Udu3aSf369R1gdenSRXbs2CGXXnqpDBw4UKpXr+6OXDdAsuPYI1g0QdWLgAQCcCoCnWhN2LlzpyQmJjqV7qGHHpLx48fLli1bZPLkyXLVVVc5oHr22WdlzJgxsnTpUjnnnHNkwoQJUqdOnd1qHAAF8+Le4AokUJgSCMCpMKWfD+/2WU5ycrIkJCQ4BvTBBx/Ia6+95phSv3795Nprr5WtW7fK119/LX/99ZdjVk2bNpVBgwZJgwYNHHPCfmW2pkCty4fOCYrIkwQCcMqT+Ar3YQDELsAFNY8L+xNAtHLlSunTp4/AqB577DFp3LixM47z3KhRo+S7775zoHX55Ze758xwzu8+UBVuK4O3F1cJBOAUwT1v7AYPnBmyzShOswCre++919mebr75ZqfaofbBjhYvXuyA6eCDD5Zx48ZJzZo1HSBRJuwr1J4VwWIKqh6hEgjAKUI7zq82gARbgj2h2tGpgBWgBYPq1q2b8+jdfvvt0qZNGwc8SUlJMmXKFGeDGjJkiJx11lnOo2eqYcCcisDAiPAmRDQ4+RPIbC9MVCYfq39Rv/zO8+OTfPaEVw4Agj2ddtppMnToUAdC3LNgwQK56667HFC99NJLUrZsWQdwXBs2bHCAVrlyZXcvbIu/uXymFskyRt1lnADsXMiQMWVAn9e2MQ4pE5lan1gsGvK09+Jl5T5YrTFe+87qw+f2mYWPWH/ktZ7h+nxEg5MJ1WcO4Srogq7X6tWrnapGcOUhhxwi5cqV2x0a8MMPP8h9993nwOe6666Thg0bOmYFSxoxYoQznt99990OvJgAn3/+uXz88cdy9tlnuzgp7ouLi3PgxD8f/Aq6XQeifAMMQMTAOb/eC5AYwJizwRZVX3X2HRu+7RBZI3MDJAO84uBNjWhw8iOiGUxmIKYzWY1KliyZX2MsLMsxUKbd06ZNk1deecV54Lp37y5HHXXUboaDLAAcJkXLli2lYsWKbqVGTn///bczjB999NHu73nz5smjjz4qCxcudCEIHTp0cGEFgBbPA1JFBZyY6MjO2I0PTAXhrTSZb9682bFX3mEsLTsWtCe7H0y3qI9tY7KMNbOnHqhJGKUdlZkfL/MnCpOHTjbPldHg/HhPOJeBDG655RYHJqeeeqqLXWrSpImrMmod4BLKCGBDfAdQod4AUqh2hB8ATLCs+++/33nyTN0wdS5UzQtn2eytbgVtVzOWQx0I30BubCMi9gxwok+QPf1DxL6ZIowxmOqH3XD58uVSqlQpqV27tmOyfJffLC/c+jGimRPCpMNZgQyUitOeMF8VAJwApdNPP10mTZrkYpcAZ9+uwmTkb9vKgvx++eUXp9YR/4Qqt27dOjdGsTURxNm5c+f/4wn09/OF24De3/oYC0emyC2/7E7Ie+PGjc62t3btWlc92CfjlO/4iazxlrKdCDUaD6o5JlhAZs2aJW+++abUq1fP2QytfoHNaX97e+/P5Qtzsu0a/qsYZKzwttoXTPXDo1SzR7CC9urVS6ZOneq8cYATW1XMTmQg5huymRg///yzi3969913ZcWKFbsbZXv1nnrqKenYsaNb2W0fn20w5uaisHL7Rmu/V/MrlAKQgfWccsopLu6Mi8WBzdcGVIxVxjKghE2wR48eUqVKFfc9tsQHHnhAHnzwQQdc9FVxUOloe0QzJxtArEhMtlq1ajkGZds4wgNCCr4WAPI111wjL7zwgpx44onyyCOPuFXYwDvUu4YK98477wjg89NPP7lVmosVmYnC/UygiRMn7rY5AUrGKgpaHSp4if3fNzCWzIYHqOfHhW0IYEfe2PqwNV144YVy5JFH7rYHInvkPX/+fPnkk0/cViLYUdeuXd1YZmwTh4aK3apVK5kzZ05+VC0iyohocELC2EdwlQNIBBked9xxuylxRPRAHippxlxAhUhwDOIMfNQ7sg3YxQTAqEgE+LfffivvvfeevPjii27g8x2AhPwoxzxFeP1gYOedd5773mdJRSWUAPkgQ8Im8HRiF6KdeDP5h40nL5cxVlRnwAnZwm5xMljZZtyGxfbt29c5Lq688krHlCpUqODqhqcVcDr++ONdtgnqnF8Ampf2FfSzYQ1O/iTIjn4zuYYNG+YYw0EHHeRWHHbc22XeEFsVWYmYpKar55NNvqD7aI/l+zYHY06sroBK3bp13QA2j9SqVascW3r66acdQPlbX4w1GTDxHCs+6gQqBpfveDB7SGHLLyebi/W/fx91B4RpI+MLGxspZAhI5W82TTdr1swxUUIrsAcZiPkAnVu1D/aKOoc3lLFHyAbeVGOiVjdAigwR9B19iPqG8ZxnASrACVY8e/Zs1ze///67W5hxaJASh8vqh40LRkx7+J4F27/oy19//VWWLVvmykDjYAE66aSTpFq1av+zjanQBre+OKzByQRjhlxWGwYWAwrhPvPMM/LFF1+4HfYImI73wWlvgvWNyYXZAXl5N5PPDN7XX3+9PPHEE251JeDyiCOO2M2CUBlYsd944w3HlvAKMZCZEHb5rMnACQZm6gWTjOeYVJGk1gEi1J0LcDCHiQVcYvRHbQKUDj30UDcx8aY1b97cbf3BzoM8sotNyqnvDMCwG7F4Mn5RlRmjlEcdqA9gw3uJ4H/uuefkjDPOcGMbcGJRAZioJ+Dx/vvvu/thWDhBCBlhaxKM2QCPcJDnn39evvzyS7dF6eqrr3aLCwCE/Qvm/OGHHzpHCGMAzyxxceeee65cccUVcuyxx4ZFH4c1OPkAYiyKz1jpiOuB4pqNiZxEdCLeJS4bGExg8y7ZKrW32JKcBly4fs8AZdXF8EqcErYLEsvNnDnTqb0AlE0GUwf9tvjgZBOGzAWEEliEM/czUbNzRBSGXHJibntjVoyPzz77zKnDv/32m9x2221Odix6pJvBYM0Yw/tpMUm00WSYm/ZSBs/ibKA/AChA5uKLL97N3ikHMPzoo4+cFoBdioWG+tAPABtqHc+dfPLJzqNK/+G9u+SSSxw4Me75zvZEAjx33nmnfPXVV26DN4yMPqTfsEdy/7///usAjRAGmBYqLSELtBcWSV0L2/Ae1uCUnW3DBg0Tp0aNGrsDB0F/Vno6DDCiM7IbnEWBMdnEgDXBBmgrXh48bwz84cOHO0YFSKEGMBC5h9WRgWggw2qaHXPywQl5hm4FMhtWTmpVbiZwQd4DG6HuZp+xkBMDGZhm//79XbI9xhPqzx9//OGMzownJi8qnn/ta3AmIPjnn386tY4LACQkAHWL8c14pK8IhAUkL7vsMgdMxDPxLFoCYAKL41kWZD5/+eWX3Z5JGDJqHyqfeVlhTCxWLEiwKwAKOTAWAD7UOdgbKju7CQBHVH1YHeogDI46AFyFeYU1OJlg/OBK4j4QOsLEaInOzMrCys+qcNFFF+02iCN0KHB2++xyWnULs1Ny+24fHAYMGOBWPCYTqyiDDPrOBDAW6QcFIhObHLYtxWxOABlyA+zat2/v1Ivs7C2FLcP9AUfAhXbyj0lP/BExRth5ULtgFzgTDJRpu4EZ77M25/bdvAdWgqrEeLQAYRYVCwVhMQDw+Q5QARiw/TDuUTdZdDFZYFvCjMGF86NTp04OQFmEqL+pngDdDTfc4OYJRnZsh7AiNnjDCjHIM1domzk7APLp06c7xsVcAqzPP//83A7FArkv7MHJBpNtPOVvBpBFKbOCQM0RMq5xBM89fjAmgscuhb7NhLS9SpEesMlgBqwZTND8119/3cmBVZ/V0UDZQgUYQYAO8rGJYUzSZMI9Bk7IFS+TMS3sE0wqJhw/TV0ukJGZi0JzAkfqR9vxeqH+wEa4qD9jAkaBugQo0X7uZ2wRI0YKYyY26o0PIlat3DBw7uEfzJWIfcon+2ijRo12B2JSP5gTdiI2YlMP3kvcGnFPgBPgAojSF6ii1t+wZBZoFhGAi7FN37Fww34IrIUZ8uyPP/7oQA9WBQM74YQTpHz58s7mZI6T9evXOzMAqi1l9uzZMxe9UHC3hDU4WeAfnZHdSkVnQM179+7taPKTTz7pjHr+thUmIm5ahE5nsYJwGUgVnGgLvmRTywAjwJdJYABkkfPmmUKWtNkugMsyOGTHnPgeewkrs63qqNQMZIt3yi17KChJ5AROBqCHHXaYCybF+4YdBQCiTahD99xzj5MDgIG6hZ0OkEDdIZ3xmWee6Tx2od65fVHvKJOIfeQ5duxYFypgdbMFEpWO8A42YvNuVHPULlPrqCfsCNsUcn/77bedPZD+AbxQ6wx4v/nmG/c8cVNkOqVMVDo+g00BxrZg+QuMPw5wEgBmhXmFNTiZYLILI6DisAa8GlBYsxuwMpmNwWxWdAArBrEsrCxMPHMpF6bw8/puBhNtRV1giwMDF7n4TgCLEjdgMtlYwKGvpphaB6DBsAB9VmbKY0Cbjcv6o7D3LuYEjvQzcUIwJ5gCRmkuwAlwIPQE1Q62ye+oScQkAR4wFsIJbrrpJhfQyoXMGD+0O7exXtyHxw3woz6YIAglCL0Yo9im8KwBjgRr4nHDIE4dAYu2bds6Dxt9BjhxD4yM79lTaWonoAQg4dHDyM7v2KrsJwwSG5ipgcjCPL+AN78DjKj0hXlFBDjtSUAMFtzmt956q5tMsCg6LFIMtnnteF+1QA3AZkB8ExORgQmbspXRvHG2LytUJbNNpgZiTCRki4GWQR8al5PXuofD8zAnJi/gNGPGDOeqJ70M4AQLhYXzPazHrn3NCEAf0Q/mnsejSvmAHN9ZvBUAARCx0KKeY+/BKw1bhf1gT7TtKzAw4tUAOVIvw/BIb2MX4QawJDQF1DuM6fxOOQCXxQPyfgNbGx/0P30NG8fuVZhXRIMTHYcqN3jwYLcq0fGsfmYTKUzBHoh3m/cJ8GClI6sAxnAONEB9RTaswsQ2WWZMqxfGUNvsaoGaxqK4F88eq3xRBiccBshqyZIl7vgs2MeaNWucnQY2igoGk0GtM5ZmjCk3QZi2eGAQh4GygAKIeNlMBfNZGOYH2BpqGfYejNbYgagHcWrEsAGiMEECamE22MdgTkTyGxMigJOQGtoAIGFzomzsa4AacwR7G+ou7bC9qIwTnkUjsaPEDsQ43tM7IhqcECreB7wQrH6Ak8U5FaZQD9S7fZWMSUQ8E+l2WWXxQGEExWFABD0ThItVl+cwCHNlFy3vhxIUZXBi4jNxMf4iB8CDcQRrgn0ymflpQGROA8ttlZNDhbANbKGEJ6AaYuCG0RDoSFmWpwimzz2YKAAa7gOQ8BhSBp+xUGDIxnbK+1HTCNYk+BhgBdRYUGBIePcAXsAKJgazor/x8JmRm7bBvBgP5lF866233LNsXeJ71MjCvCIanBAcAiWqFl0ZGwnUlyuSopj3dwD44IRnDTUMwyiTzewkqAqoeLAq6D6D1Ci87xqnDqGOB5hXUQYn2gyzBNSx5WBvwoOFqoQ6hJrH35bJEvkYG9oXg7gxJ+TN+CTcA0CC+QMoqIosJNTFxjGhITA2bF+jR492AEXUOl49Ln7ClqkzAAWLwrNIqAHAhSZB+cQ1sWhzsQGZhRz1H5UNA7uNE0JPADZsdIAiYMgCV5hXRIMTNic6gBUQ3ZkVh5XPH0yFKdyCfrffeayeRDRD/RmMUHY/g+CiRYscpYdJGYsyj5FNOH9vHZOEcooyOBkjYp8a/1BrsAEBSHj2TH5+UG9u1Dnrd1ObsWMRf8c4Nc+n7W20LUEAF/ZCwgNQu1ADuVAzSSKIQZw6YQjnXhgVKhhxSRjSuagbIQXYyAAbAA+QQ4Uzby0hJpQFiyIancsClpk/2GxhVJassKDH8N7Kj2hwCh0o5qnKiW4XpsDz+91mwCY2BrWA1R5bhRlxLVyAAcjkYMWFRREXhW3BLgsKNDbGqs1qXZTByd8SZeERyMPf5Mzn9p3/+770I2yVDKMAEr9bJDcyx3NI32BHIoQAUEKtMnsirApwA2xgRoCHaQXUH6M54MSCw9/0F+EFPENcHyCDHZJn+IfqykLF1ha21eDBpl3sK4RFoTrizQuHLUoRDU4MEDsKyewAhb0faF8GbX7ca2wHWwJqmO2tgzn5qq2FDjAxvv/+e2eTAKDwJLGCWtpXi38hdACQK8rgZPK3mDDzXJknzQIzQw8m2J9+A2Qo1/eOhZZjjglTH+29pkLaT9uEbSEjPIfxm7GPmuiDqx8eYvdTB8qmToQ50E7UPD9FzL4wxP2RR26eiXhw8jvCtwOEA/LnpgPyco+5fRnMGD6xNVmyObw4ZsANzf3DwGNgEm0M28J1jRxRMWy3PAMVZ0NxACe/D3xWEhooGcqocoqzolx/TPpMzUwPti1ob6zMkif6/W119se5pbLhO+7l3Wbm8LUJfztTqHGfNvIvHBb5iAenvEzuovCsrfoEC7J9B4MrDgKCUnNKSMYgxUuEHQOPHnuyGBC23wrmhGfJV5dtgu6LQbgoyDlow4GXQABOB17m+fZGHyDwysCcACcM3xg3czrbzFgCqy+eGrw4ABUePgCKzZ/sXmfVBchY5f3VOd8aEhQUSCAbCQTgFMHDwt+eAzjBnIjLAaTw/PiZBPbUTFMnADoMq9iiUPPYPEpowgUXXLD7sAjUmACcInjARFjVA3CKsA7zq2u2A0AKFYy9deT3QcVDrcvpym5/GJHlABNePexXgJ2/2bc4xI/lJLfg+wMjgQCcDoycC+QtvhGVne/km8aQCUDZHrq9vdg38NpeOzOcAlK4vVEPeY+pdZTnB38WSMOCQgMJ/DfOGKMRe+Jvce9FcyuHeo5ya7BGTTNVzdK8WoyNn2/bByd+t/QaxV3+QfsLTgIBcyo42R6QkmE8xoBC42JyqkB2AGZBgb6nz4+VoczcAl9O7w++DySwNwkE4BTB42NPIJHbXEN+oB2xNHZMNiKx1CAWW+MzpcDuFMGDJoKqHoBTBHVWTlUNBQ0ffNjQyQ55QMYP3LP87NxrqZBDmVJO7w2+DyRQEBIIwKkgpHoAy4TZYPz2I4DtM9sGgdpnMU8GPLbZ189macGWxSUf1gHspuBV+yGBAJz2Q2jh9IgdI26HGWSn6uF1s1NE7Cy1UA+cGbnNGJ6bGKlwkkNQl6IngQCcIrhP/ZzWNMNnUZauw0/7YQBkp20YawLgGAjhsJ8qgrsjqHo+SyAAp3wW6IEszjaE2jt9WxKpXon4Jqk/57BZ5kUyEJBYDSDiuCRSZQBaDASfLQVG7wPZk8G7spNAAE4RPC4MQEyVMwM46TPIKMAGYIIoOfW1TZs2DpCIIr/jjjtcq8l4SD5rP5F9ccjmEMFdXqyqHoBTBHe3GbVDAQV2RA5oUq0CXGRLJKUKdikyIHKiCNkIOOGDk2SJKLeLBHR+Xp8IFk9Q9QiXQABOEdyBxpgswtvSydKpbAImywDZEDk2imOuuQ91jyRzgBR75wCwGjVq7JaCAV2g1kXwwCgiVQ/AKYI70kAJwzi/m0cOgCG0gA28qHSoc4AVIGRHawNWHHzAmWaceWYszJiTBXL6AZ0WhhBsXdn3QRN6pLmBv4VvmPwtn7f9ve9vyv0ToXsrwy29dQBOue/LsLtzT+zGGBVR3qhtHHPN0dIcH4WnDi8dJ7FwDFDVqlUde+IQRf+kZP+QTfs9HFK3hl0n7KVC9EPoiTZ2ux1wYPnEQ4s5ELI2pm0OET8dcW42jhd0XwTgVNASLsDyGVwWl8Rr7PRYBpblquYEjmuvvdYZvQEhO/gApsV5Zqh3DzzwgDvZw0ILQre/WMYCW9V514GYPAUoukIpmsmGLC2kw0DfrwzfGUM9UEwmlKXtDVQPpOACcDqQ0i6Ad+1tH52FGnBwJGl4OXgR9kS0OMZxjqbmHDOAi+OC6tWrtxt0QlXF0AHsqwQF0KwiU6QxpNwEtRZGKhp/kTkQquS+dGwATvsirTC81w8f4CQNOrRRo0aOUfEdbIqjqAkfqFKlijvhlp+AEwc28jfHFmGT4lgpLk68xXDOUUEcMOlfpkoGBvOcBwN9YRMe9Y0+8W1PPuulNP9e7s8NoOVciz3fwcLGexgj1AUzAJ5af0tTXsrP67MBOOVVgoX4vKkIRIFzLBTBlbAgMmFyWiuD27arcFYd59YZc6LaDEIyXs6dO1c6duzo0vEuWbLEpfnlJNnBgwe748353K4gTW/+dPje0s74Z8zlz9tyVwqOFMYS4yK3mS1yV/L+3RWA0/7JLayeYjCTQ5xjnjjqmgMOUNG4zPuGikd2S8DLX9G5h8MVOVmWgxZnz57tTpJl8jzxxBNy6aWX/s+2liBIM/dd76u+BMbyN8wEtRr5Ikt/gcGreiBZC+8meypn3fGPy5h4OKjtATjlfqyF3Z3+6suhms8++6yLXQJUODUWxhNqVPXVPVgQf3/xxRfu5FgY1K+//upUPsISCOTkaKjQjAesruFmnwi7zvEqxBHgCxYscOoysjTHBWBkh8LiLYXtcuovarcdz1WQ7eLEnd9++82dJNyqVSu3CNn5hQX53tyWHdbglJsJACNgglmMj03Y3DybWyFFwn09evRwjIltKlOmTHGnr7AKM9gsTxPt8AGN036nTp3qtrnAnLjPTvxFnhwNVdQP1WScmCud3y2cwg69tLQzdvqvudhzyyC5D9nSL2vXrnXlkyXCTv+1/FrIHkDiKPE+ffo4uVMHyzZh8VD+QuHvrTQ1jLbQx34m01AVknsYFyw+Q4cOdduYcIywDxNmFy6ZTsManAwUrGMQGh2G4LNLeu6fVlocDLZ+FoIbb7zR2Ypatmzp9tVxHLk/QC2mhcnAZMHgjR2K1ZMNwlx8Zx4jVvLJkycXaXAKtavYZPA9WIyzvAQrAk5E6bP5GhUbAKhQoYKTs41X1DzACoZFUsDjjjtO+vfvLxdffPHu+2y8Ux7/ypQps1eDuQGXgShtstATsyECTKNHj5aLLrpIRo0a5cYM4BcO9ibGY1iDk3kzLDWIrRrr1q1zE+yvv/5y6gv6MvE7dKANrOIATnSgTRy2qKDOQc8BKYtn8gca9y5atEhmzpwp77zzjjOGWwyTBQOa67s4gJMBMY4CJjMT3hgSKg6yQQ7+lV1yv70xa+SJTa9p06aOBeE17dChg/ud8QqLAixwXGDzmzRpklMBcVDgQYXBWnyUHdFFmTYXYLrU2VivAY85LuynaRL2E08tQbiAEvUhWBcvbzidTRj24MSK4qsmixcvdoZfdtezwZXBU7lyZbnyyivlzDPPdKloDXVzc5Z9JKhsOQ1+ALl3795OLoQDoNYBTr5qi0rx4YcfuhN9v/zyS7dKG1vyPTS2IDA5OQuvqKt1sEb2GuKdZGIz1mAbjCnaDovxr9AjtHIaP8gT5gRjApBgo927d3fAh9z9xYPPpk2bJgMHDnRAOWPGDDn22GMdQ/JVuI0bNwphI1YGTg4b99Tf1FM7MYf2wMgAQC76FtsWrGns2LEuABeQQqW0+ZbTUfY5tTs/vg9rcAptIJ18//33u5Noocjo/wwofucY7r59+zr9mUFQXGxO1k68ddiPMIgzAfDWmb3i999/d8ZybEuAkm8/QcYWkWzyRq5MHBhYUQYnxg0xXoypH374wXnRmMhcbOshMPW8885zalhubUz+mCVuCEbDwkB/+IBvDN9+GkgBlNddd50DrbfeesuxGbQDLlgQajj3fP/99/L3339Lw4YNHYCdfvrp0rp1a/e+0M3b3P/ZZ585hwdjonbt2oKNEvAjBIVnR44c6WLa6Ptw0TrCHpz8bI/E8RDDg0cJloQKQwMefPBBYTXBs3TPPfe4Da7hYtTLjxVkT2X4EwbmBJiwCgJStWrVEtzXsCU8cZ9++qlbbblYHU19Cy3btr5wT1EHJ9qOOsPEZOJjFwKUUXkAKtjEGWec4RZAY5Tm6t+XCcyBpzgoUNEAvC5dujh7oG0xsj7AXMEWI1S7+vXru7AO6lG+fHn3fhYXgPSnn35ydaIuMCoADrXx1ltvlXsbvEgAACAASURBVE6dOu3OF08dATji1dA4mCuYQJhTgB5lA1iodQTjknyQK7StBTmG91Z22IMTlWcVQdDYSDD2Qk9R4zAYrl69Wi6//HJn4EVPR4/mKG6jtIUl2APxXh+AURVIkdKuXTs3qRj4qL589t1337nq4IlBlgxOLlbZUDXF7BmssEXdWwdz6tevn2MPsA9kyARlAsOckAXJ+vzLmGpumBSAxzjENnr00Uc7kMFxYeYH3g/IwLBYSLA1AUxoCDBWbE7GZGA/9Cs2QxZlGDLOD4CKbUjz5893AEjurnPPPdeVyb5Ksk8wNwAv8nfBmlBlsTkS48T8ufDCCx1AGziZB7OgI9RzmiNhDU42AHxhkSQNcELYqCfQcUAJIUOHETITKxx05pyEn5/fYxBnlWzevLkbnAxWGBO2BuTnsyVjRwZSoX8jVyboxIkTi7Rax1jCQI1qh40O+xILW5MmTZyZAHaB7BiHgIhtygXU98VsANiQ0A/jN++BsZj3DNsStlP6h4WCcUwKG4AIIOFenr/99tudd5WgWFgO39nhFoAMnjeyTzAOADj6kHQ4fE67UPvxyjE3AC7CCFjICcyFbcGuUBFpW2GDks2LsAYn08NZwSz1hG9AJICMVY9OQJ+n85iYdkS3nbPO86xeeGUsZQgdFOkAxgBHVWBwosrNmjXLOQiQFYOOyWCXxeuYh8oHxlBPneUbR0XGjoHMbcAiM2Rndr38BNj8Lot2MAYAWnKlIyt/PxnsAXDCGG7GadpFW2FRqMqWJdTUYJNDbiOo6SNsQwAeTAn7kQEAfWGqNiCEKx8tgMUWtY6Le2A+MCmeJz8X4IXBnvEMGzP7FIZ0yiDeDdDD4I0qCDukL+14MMqFgZERlawUgBbgRFu5Z1+AN7/7LJSl2hwuyPeElh2lAsjc1xf6AZZQVrxJ2EVQV+gYVD1oOJ0FWNkr2C/GxCW5GkzC9P092V32tV6FdT+Tj8FPW7HDMQm4bKJZUjjkYLKwyWVslPuzAydzdQNOZiTmXUwsVuxIACfzcmF/Q6VBnWIyw1AAWCYmNicit5nUTHi+I2IemZJKBpWHiG1/uJrcc9pqYnYp+gVPGBMfloKKB3gANhbaQbgB9lQAA5ZmWgOTE7th586dnepHNLep4gAdtlYWIfocBoa9Fe0B7yA/GfPDhw93DIr3IRNblAFm2NMFF1zgwAsZcKGOct+BStmyp/kT1szJAgf9uA4aQmQzLlfiehhk5MdGt2YQ+eED5gmh08gKye58c8lmF8RZWCCzv++lDayeDGYMmzAB2swkoM0W/0In24DO7l0GYua1Y9IBPqzgRDYD9pRhkcfGTEO9fPvbjoJ6jnYwPvC2odpgUzFAoe54MbHX0FbMBNyHqodhmcUPRsHEhvUYm/BZfE71NnYFOAEW2LEAQ2ylZphGltgFBw0a5OqG+obqhtpm4MZeR4zWfA8gAS7Wx5Rj84OxjSqKeQPmhYOIhRk7F9pF6O4JVEfAENBGFbTwE2tjTuCbU/vz+n1Yg5M1zk+6j40JVQ5woqPYU8aqgjoDg2LFs5XET+ZlxklzrzMo9oO85VXe+fq8tZXBROI4mCTxK6zSTC4Gpl1+lsP/Q2OVgRkb4DtWTQY/MmbgWvoOJjSAiCwt4DVfG5TPhdEGC5q0fqfuplZhGEalY9xgq4PNoGYRkkKmUFzrTFqAzSa2b3fKqbq2OBo4ASR441DdLFiSe1hgYDk4ewAI1DEYlu2GwGtHdghYH2Md1z/P2SJhCw8/UV8BQoAXVY2QA8CJeCb/Yk7hOQSg8PDi8cagHticVJPIjVpnq5WtIKwMdC5BhtDgtm3bOrcsHQJTwBWMgEPTevjAZKtBUUj9YbnCARP2YyEXBjE2BgY8YIW6h2y4mISs5kxYLn+7CnIxJsQAZWJjx2LF5vdIDGilPcb6/DbYZ8TL4UQAeGAbjCe8X6hXCxcudCACaBCjZCzIGOS+qDyEEpAbiwUUYzYAYyfc0DeADp461CyixFElSauM+sd78boSv0cfADgwO8Yvi5NpAswRgJZ3AE4AImzs9ddfd8bwESNG7I5E5x5AeMCAAc5O2759e8foYGssOrwnHLawhDVzCvXWYQugY+hIVkI6DjsBE4sBxmrD9wiZzstpUkW6zcn3qjChACdCCQjCJGqYwDs8dua181dOVAMGtLFHH5z4jpWd1RTVzhKQ2SJhNolwB6y9eZ3o++eff94xTuw+gDrhBHg533vvPaeC8R1jCkZlk3Vf3ezIioUU1RA5woq6du36fwKFsSfRfwAGF55SzBW8D6AErIjzO+ecc5ydyN8BQN1gufT78ccf70CJBRs7Emop6ixtwVnERdvJjMp3sEdsToAmAGoyCz2wNSeWWBDfhzU4+Q2m8xhMMCcMmKw2CJKOsV3lGD1Z6VBtmEhGi/1BauH9lgGwIIR6IMu0FZ084djgTjjhBOckwPbAhXrHXjpWX1ZWGJXvjTFw8lkUqyfgxGTBPmIsIVy8OLmVr7+B12LlGAum4gEajz76qJvUjC9jjjALmBQmAwMBi5vz7XK5qQcLLO/BE8Z7Ua9I+IeMsYfBfszmx7jGBkR8EyADs0O1BODwwAE6MC0AE0CBIdH/xLFhvCf6H2+eZT1lMceGhb0VUOO9zA3AGGcAY4L64f0DNMkFZlc4BDGHPTj59iaYAII2Q7C5RhlwfIZah+3AdnkjaIsnsVgeU2fsu9wMsHC9xzdYMvAAb7xrBE/ieWH1Y/Az0LBbQOHnzJnj4mYY1D5b8sGJSYQMsbcAThYhzQS3eB//2UiQTyiwIhP+sYGcOCe8WmwzwbOHzQ5jOOocLDI0K4Etdrlhjha7ZGXBeugrPjf2j/xsUy91YYFFvQRkiFsChPAyo3qx5YT+I/cTzwMuLDi0hcUZcALYbEFhTKAKolrC3GDUplXwE7A79dRTnTcP5ujb5Aq7X8MenExAtsL7RmwLs7d7bAWyvwvb23AgOtfCBDB6YlBluwWgwoBmwNsE4j5ivQCpl19+2bnLTa01JmGsknuJCYJVsEIDcFwGaDxXFLydtIm2wmCIC7PYN1h5aDaC/elLU4MxShP0SPAwjAwbj13G6EzGgAgq1xtvvOE8iNgSUQlZZAFPIsUJtmSri9kOCRw95ZRTnH0Q4z19Th/RNsALwOMZ+h8wQn3Dk8fCjwqL2odZgDCEcLA1+XM+IuKcsgMnf8DYJMzNarY/Ay0cn7HVH6Ag/w/7rlgFsRWZWke9zQAMCPE7dB73NF5PizL2t7QgayYLdg9sTthc/Cu3AYjhKLM91YnJb4n2kFN+LGw+WzPjvIV3hNrDrC/53DynPG8xSb4DB+ZEP+LswOYKqPDTFhnTDqwN9Jc9AzjRtwAeF8wRL6JpIda3pnIWZh9GDHOyVS47QCpMARb2uxlMrNAYUrGdnHzyyc7+YJ4eP7OjUX0mAoZQgvug/exZpBwGKGDFRZgG5ZhaZ/L3V+V98VgVtpyye79vkyqM+uUEALAe+o+f1NUWCbN72baaPS3I2NHMKWRhNZa33DLH+u2GPaL6BdtX8hhkFGnG2YIc/NBzvDm4/olZIX4FQyqra2isF+DDgOUfzxE3BrXHHkVwK6uvqcsYYTG+UgYTAgDzV+eCbNOBKNs8b75TwLZJ5cf7fRWJiY8cTX0zTzSyNnXZVGWLYA9VLamnOXl81Yc+BaB8xucDb3YOECvLPN2UZ2EE+dH2/CgjophTfjS4KJVhzgI6kcBBbETYnPBoYtTlMk+mrYYMbguqtMnDCk6+J/7hyWHFxfCNDYv4Gttvxf1FMVeWySg/gcmYJn0TqiIa+Nvn/jodyoIMeGyzMOXy3J4M16HeRMaIpbX2o9v3ppobYytsBlXkwGlvHV2UgIm2+HFghBLAnAglwPZEOg1/xQzNP2Q2DKLpjeIT4wNAYXS1CGICAvneNg7bZtpI3zS9t7GA3EK3TO3v2LGyLPWJGXjNC+h7kXkH/WT2P9tjB+MKVaExrltYhIGIGcH9e/eWd8r3hDMeqIs9Gw622wCc9nfUhdFzrJbYh9hbRzwNHiE8ML4R1UIqzINngzY0noVBj2cHrx678vEC+YZZml0UoutpR3b75HxVL682NV9OyNu2//BuY618bixobyoz91tfhXpK/XCZPdWZe8w7CwiZOufbIQ04/YWoMId5kQOnwhTmgX63ucExYrKXCo8MhmwAyrw+vkfPVmZ/rxyDlgHqr7p4dPgbdY+gvVAVoKiAk8+yTbUz2eR3X4baSPnb/vnqkx1YAAD5Ce1Cjffm/cuOVZlKaQbz0Lb4C5KvNvr3FbazwNoQEaEE+T1Yikp5vo1hTytoqO8hu0nhy8M3EBcVOQXtiDwJBMwp8vrsf2psVH1fjZcAWWjQaihAhYPdIcK7J6h+HiQQgFMehBcOj4Z646iT/5nZGoxhAWKm8u2NIQWhGuHQu8W7DgE4FaH+N2OuAVFOHrWc2FMREk3QlAiUQABOEdhpVuVQdmNJx8wbs6d4FTN+W1xPoL5F8CAowlUPwCmCOzc0DGBvqhheDwv+M5e1/b0321MEiyeoeoRLIACnCO7APYERoGMBdqGGcmNX/kbpAJwieBAU4aoH4FQEOjd0OwSBlKTXYHMvp9GQS8h2nZNqg7Qc5AAiF7UBU6DaFYGBUMSaEIBTBHdo6NYEfzsCJ79yHBaZHK+55hqXH5soY7aokNSeZ0lORtYBEpDZZWWGBuEF3rsIHigRWvUAnCK04/xq21YIi+QmRw8ARL4m1DoyIbL3jqOPSAHLJmGiv8k4wJFBJCsjIjl0g2px2qdYBIZBkWtCAE5FoEtDt5OgupEChVziqHfkhyY1LBf75jiRg0yY5H7iHkDLNpuajcqPPM+PxGtFQMxBEw6wBAJwOsACz8/X+TmBfMM3ncrRQORqYkMw+cRR8zh0FFbFfiryUZOXmmODOHnEDjD1bU+BKpefvRWUta8SCMBpXyUWRvcbePjqlyUjs+RwJKEjZzgneXDKBsZzjOOkRSG1Cht7yQNl56hZdLkl4PebG5orKIxEEVSlCEogAKci0KnZpf4wDx7J9bt16+byPHGmHwZy1DSM55zuwWk25Bzney5sUeQRys57l91WmSIgvqAJYSqBAJzCtGNyWy2M4X6ecPvd97ZxMgtMieN/8NzxHSohOcRR+zgMAaDiIEYflFD/KM/PERRsecltzwT35VUCATjlVYKF/Lxvd8KehNeN3NN2DhrV49BFAIpjg1DzOM2WXNawJM45++STT+SZZ56RFi1auNasXLlSFi9e7E7ogEVZ3mu+s3QrgZG8kDu+GLw+rMEpO4OsTQ6bKL4h2I9+5r68ZjKMhP63uCSOHOfQUdhPjx493EkdyMYyME6fPt2dzXbZZZc5w7iBy/vvvy8ff/yxy3pJojpOBeben3/+2bGsSy+91LEpy46ITOwEln1N0xJu8vTjxPB4hib4t7GWXQT93kDayoJlhp42bczWTyTnywV1PDt7X7jJ7kDUJ6zBaU8CoNJm+LWd+JE+Ufa3sxnktJ1jpwkf4EgoDjggGyYDne8xdqOiMWk4MBLZmQyZkIQeAD4EbX7wwQfu9NtNmzY5I3pRBidknl2CPkszk1NWB1sg7dAIyyjK876qjaz523co8Bn52+24J+uT3Lxzf8dKpD0X1uBE5SzNLIL1cxGZoO1oHQsiNKZg90Zah+xvfckbPm3aNHcUNaBip69Y2ldLqG+M0k+KjwrHqbCvvPKKO30FOxZghaoH0zLZ+0w2HNK47q+s/OeI70IWoWrqvrTPl4t/uk3ogQO8i3L9XOHmaQ22D/3f3gxrcMrN4CvONhBfFUEtQx2z01eIbbJVmElhZ88ZKMGkWLk5VBO1DvUOlmVqG3YpGJgxJ54rauAUmkUUmdBOFrrQjA/Gkkw+2Y3NPbF4PKPkeOcf5cKWACMOoSCsg9N6ufiOhQE7X3Bl2TfDNod4djYno+E2EKwj/SO3i0vHmueMQU0EONHfbdq0cceIA05muwiNIOfzuXPnOrb09ttvuyhygArDN/dSHkZ1zq2DOVnSf78/suubSJO7H3gaehBEbsAplBn5h2jyOwdFIGfAf+HChbJq1ardJ9kw6Q4//HDXX+3bt5e6devu3oRdHGyluRkrYQ1ONMDUNCZIqD4euvHVKLo9F3qETm4EEqn39OzZ0+2ba9WqlduSAjjZZRuCkddPP/3kNv9yyi9bWMhOgJoBa+KnHVPEBPFtTvxdFAApu/4NBSLbo2iM01e5sjsFBZUw1E7166+/Ovlhx+Mk5XLlykmtWrUcU0LGsDSi+FkEWrdu7fY7ciAqV1E53SavcynswcnorqkjdNyKFStk9erVbvsFxl46nbQgxU1v91d+1DrA6dhjj5XJkyc7w7g/kQgb+Oqrr+Stt96STz/91IGUHT1uXk4bTEwYZDlp0qTdzKk4gBMAjTOAkAzkx5higcttnJfJG48nm67pDw4kPeaYYxxDIgCWvy3fFiEc9AfqHpuwidivWbOmkPLGDOV5neCR/HxYgxOd6Hs+WMmgyS+88IILIIQ2o6+3a9dOunbt6uJ4aBCU2vIXRXLn5KbuZmS94YYb3DYVDOIMcuwZdm3cuNFt9uVEYCLCzdZi9hNkBsgDSKh3gBa/w8BMrSuK4GQMyYJSkQ17DmE0tJuIemThG7D9IFRz2Bh42QGZnJpMPBnj8KabbnLlkJYm9AhxvsfmR6wZ3tExY8YI/WhbiXLT/0X5nrAHJyaSqWdLlixxUc5MQj4DmAgYhFVhc2FgseJkl/6DTrSBFfp7pHYwk4uJQyf26tXLgQ9Afc8990jTpk0dCMEE3njjDRcigCeOyzxT5tq2z+xvJhvlwpw6d+7sgN7S/BromyMinGVHHRkbpibRPtQpf/KbnWjZsmUyZMgQF44ByAAoBK6y99C/Qr1xlA/4V6xY0d32xx9/uIXyyy+/dACHUwFZotYh19D4Jg5CHThwoLMXot7hmLDwjh9//NEtwDVq1HD1fvfdd92YZwE69dRTXf/SJpjaN99842LTqAdZJiiLxZq2o9bzOeyZ/qP/Kfvrr792B7HyPWlz2ADOuPEPUaW9jCHkgweYwFxOlsYkgHyxlbFnE5Zp26LyC1zDGpxsUJhtCSGxsqCSQINJoIaQMOxCh6dMmSInnXSS61yzjxSHzaq0kVACwAm5GEgDSgwk1DgCMBk8DE4GNYPWv8xuwmcGTsacDMyKgkwBI9rHZKc9qFmYB1DBJkyYIP/++68TC3FjN998sxx00EH/ExXv26EMaCgLxwyTH5mzFQjVDAbVoUOH3WL2D5bgXt4NMAAS2KUAQssQAYPt16+fAw8AiXr99ttvru6o8AAp7BYVHmADPLZs2eLGPrFszZo1cwvLRRddtHs+UBFsjLBo6ontkXpTV54DeLj/ggsu+J8EhBCCmTNnOjsmIPfRRx85pmcxdOeee65cfvnlctppp+1ua37YzcIanGxVo6F0JrYmvEsIE4GA5EwgBhKeJigy2R25Qo3lJjXKMQNoUTGYAx6oEcgCwGZQsoITNQ6Q+wwJOTCoLb7G5JIdOMGcLrzwwt3R5rbB2N8yE87MifEDa/H3CFq0u19v5ASgY8Q28EHVYiEEnPxYKH+TtY0jG2uA3IgRIxxgwEBmzJghtWvX3n1OIOABg/IX3dDjz6kzFxpBnz59ZPbs2W67EYBDmZQBeLAIETpCvQEK2BTsBfChHaRohtXA3LjfgBEQJhEhoEegbsOGDR3IkLqZ52jvXXfd5UJIAELGBTsFnnjiCfd3/fr13Q6DOnXqOLCcN2+eW/CuuuoqGT58uHueK/QI+/0ZJxEBTtZYi7WxVQ/1jlUDV+0ll1zi1BmM43QEggTEWBloJB1oKwS0E2CinEi+aAMTg/bSdoImGSjYN8jlxMCySHo+p/12mWcuJ3AizziyRI6mFtuKGcq+wk2WGPaZ7LBGVB0WMGN/xnZwEjBZUYtwJuDuR03CVsSix2QztuWrw/6WFiYifyNfzAtssmZys6kaUEH2pgYzhrmPz/xN2hYag6wpCyZFkkD6FJCBLV155ZUOnLiHhRq2QnQ/IMbvhCbQLuqPekoqHAzxjA2YFBkq2NqEek95AAo55qnTX3/95YJ4Yd+og2RIRXWkPICahR858DzqLmOMcrgPJgbrYjFr2bLlbjNMXsdDWIMTjYPp2MZTQ2M6F0pKpyAgBh4rBB1k0b5+xC+UF1rKADS6aStgXgVYmM+jEjDAkQ9U21QS7G4AiGW35B4GvD/JbIXeGzixOrIZmD7wgzAtrUphtj0377boeCYSTPvEE090qpR5dbHnjBw50k1kJiSMEzYCO0c1YxJi7/EN3wYyALVtV0E2jCeYE4zGzA+UDThxGbvCE4j6yBimDEAKtmPBmB07dnQgCePleVgdIEFYAsyICxsXIDJgwAAXdEs8GqzKNA3ah+MIuxmABJMjbQ7MGlXRngFQfIazYMECp8rOmTPHxcoR3sD3ABIkAPADjLAx2QXLwpAPIwTczjzzzHzzmoc9OLHqwXQYAH6QG3YUBMbKh3eFlapLly7O5gQwca9tYYE1sSmWQDhjVUzeSA92o/7WRlzSDC5WOj4PDQ/wGRPPADD+lZ1ahw2BlRAQtAM4zagL8wpVF3MDGAf6HiYXDIq24NK3kBQ+R+1CLWKMwSIwIsNWmJwwC9g4cWO29cc2P5vnkrHkq2WoRldccYWzg1IeZcNMfGcC47V79+5OJaIu1A35MhGx6fB+1DDGLGVhBMewDnPBDgW4Mt4HDRq0W23ElEFZAB8Ml/qyUDHeCVPAPgXoUDZsDjkAgPQhIEkdbNFGjYS19e/f34ETdjDYIOog8qBNbC63sAnsvIAocoDlAU7FQq0LHchMPFv1ECaCZYXA3kJnIkyMd3QgHcm95jkAjOwzCzeI9E2WprYhJwYNdgHajhqA/QB5GXvygSQ78NqTzQnvH3I0ILcgwlC18ECDTm7eR/8CIPQ7RmUbC/Q/7AN1hQnF5GTCkpUBbxn3k+PqlFNOcQdD8B1XaER46N/E3jGpWTRhMjAy2Kd/YeuB9WAT4r2mosGQYHhm74GF4eRgEQZ8KMu0CDxt2MMAQS4AiflAH8NgGOvWZ7QFbyALNzYh3mMqujE6/rYQEsYL8qHdpHAmJAVgg+3xGfVDjrYzgzHHARqQAVgn4GSmhNz00d7uCXvmZIOCxqOW4QGhUxEY9iUACiqMq5wVBuGB9gY8psvbilnUopyNlkPhyWiJLFjpcGVD41lNuULTfoSynuzAiVUR742p1bZaZhc5ndeBWBDPGxswVcxUfcYSLIdJBXuy1DLUgXsYOzyL4RdzAePKH0/I0tQ0fzMvoAAz4RlkRR+wUJjjBYYEqPPT1ELqQr4tvHq488eNG+cYCuyIxZYyUOsAUYtFQ+VD7cTWiiEcxoX6SF1Q6TGm41WzYE7UOIJKYVCAE6wJNZZ6UWfzbtN+ZMF7AFXUXP4GxB9++GGnsmJXAgAN+FHlYHFc2IBhqBbiktc+DWtw8rcVQL0JGcAOgNARCLovhl861AYbRkyEty+7yvMqxHB4Ho/K008/7Q7KZABhK8Ew+9xzz7mtKrYb3jb3WhqVPalmrIwMSNRlJqyvxhWVRHOoSsTOwbphnIwhbJMYnVFnmWi0H/bgb0D1PcEGAObBBDhgOpTFQomtB9DxbacGmlYO4GT2MPoOlkO9MMoTbEwdYFsW0U/oAQsRwApw0k/0CeXCbG3/KawMu5rl72IBe+SRR1z5LO5ErBu7pmwrA0BiDpkhHwbFOzDIA7yUZ6yRBWzYsGEOxAiOZvzl1+IV1uAU6o4kyIzVDvsKg4nYJugvHovmzZs7ITGgbGd5OIDGgaqDgRPtxwCKbLgwiDKIASocA2Yv8Q3iZuy2oEXbsmEbfxm0obFORYGBAigseowzmAYLHSwB2x2MEeYC6zCDt7Fv3/Zp/cskZ4Kj2mFaQN3B4IwBmkkN07D9i75zAu8gzgz6D8aP5xDHDuVgm8K4DpPCQA1Y0H8Y0GHFhC1gpKaf8MbxDnsPjBmgxavHIs78GD9+vFPteAZwI+zEvIO0g3LRTNgIjjqPDY5+hqXxPhg5JhTA1rzgeARRG7mPccb+wOw2Te/PPAhrcLIG+RQaFoBxjvgKQAkhNW7c2EXlQjtBfMurXRz22hlIsPEX5oTrmMGKymsGc1Z3NqCiGjDYTb2wbSy+8dxyhlOurbLmAbXYKORaFJipgQXAguoKeDN5ASkABS+Vedv8oEIbjyYD+9vURzzJTGK2wxCKAHtCRcKrbGmPYTR4mvEM8g/GhW2Lxfe8887bbRCHOQFOgACLhmWOwDYG+yGeDfYEqAJAXNgbKRMwguVgCCdeDTUQ9kT7ACyAkLglymQuoZkAeLxn7NixziDPhe0LcOJv5IPKx5hAfow51EXGEnYxmJMxuP0BJP+ZiAEn84owEPAm0Jno1gwe6CnBZJYXhwbmRxBYXoV7IJ43cGIAsdkUIy7gxAACaJh4DDYGE4MW6k1cCmqDGcvNE+fvuUPtY4DideL50BxHRYE5Wf+YXZIxBjtHrYOJ8DlysMwYtsfOXyyRsc+kTC4YsmEnRGJzYSDHc2fbRzDIE48ES+Ezxi/qEyEPGMYBHRiLxUxhbOayWDOYFaoWfQ1IYHfCoE8/w4BgTswPFm2YDeWjWtL/OE8wyPMMgcyAE2oobUfFRS3lHoCL8jC+s1CxABJKwJyjLNoOaFFP2k1dYU7+/sO8zIGwBicaaapGaCPNq2BRrHzv0+aisLLnpmOtneytQ5UglIJBS0yMedgAKCYAk49BxQrHIMVlboGorOhMMgMoVlwGNezB3NO+raUogJPZ23yDuamvtNVXZ30gM5uKGbXtO2TnJ4tDPSSEBUaCM8dfDHgW4MMrCBigYpl7n/IIBUCtw74EYNGnZhC3fqXegAUqH0DEcmlBwgAAIABJREFUZcwKwzjAhIcNNQ6Qof8BLTKeMlZY4H3WjFqJOgtrhMXRfuYULNBUfJgTZIDyGDtoMSxi1AV2BzjRTuSA4yovV1iDk60UNmAsrsQ3yPr6Lb/7G4XzIphIedbaT1wOAw7DKqscq6KfncFAh0GFnYWVGTUPgMIgG3oBZgTXMbjNWxcqa7PBRIqssqunRYrznS+j7LY/GcMypulv4rVkfTah/awYxBvBWlHlYEz0C+APM4FNYR+EjQBYtueOn0Rtw5DYvoLpwsY/dTOA5Cflk2oZDx9lYz9jHGAbwlvob1Y2OxvxTzzDOOC9aB04UYjroj4+OBOTRV0AOcrzL2xmfE+5HG+fX5t+eUfYg5NV0n5aB1msjgVbGuUODR2I5ImTm7obYBAtj1sXAy7gBI03cEcm2bEAqDzgBB3HhoeKYeyJZ/CCAno24IoiOPn75mwyWES9AZYFX1r8jh9rZ17M7NznyNKAweKCYDgsDgCOZTLw7VnGhHmW+lgAKO/Z035RC+JEnWMh4V1+Pihf7QwFKgCTd2CrNXZlc81st8YsLeTCPL/ZnWuIg4o65IdTKqzBaU+qWag9KbQRRteList7byBlgIFnCXczLnDcu6gL/oVMDNh9wGdgsipi0+AfqyCTD28otgRAz4IFfbkXBbXZj4Pyjbg+C/LVVx+cfVn47AvgQV7Zqb0+EPp9Y5lK+czK8gHFWJK9305toQ/M9EE/+uUYq7MQBh/YQtO2mOcWuyLlmYMg1KGUXZvMucJz/kb6/LD5hjU45YY55HQPHWoU1Y8INwrv27VC1RTfQGxBjKEdZqqkb/tCqAx23mcqgO/pyondGZDkFMHuDxZABMYEnUe9s2PHc5IPA9WYApkZsV/wk8HFtgTsFhho/QnoT4K9lZ+TXSqUCYRGXId+b5uczQu5p8lusjYAtT4zBmD1Kg6LV079H87fF3lwChX+3lZ8H0By02mhk883rGb3Xj4LnRAGVHyXXTqPvdWDyWo2JFQwPENEDGO0xLiZm8nne1YAB4yk5IBiWxD2JqKTbUuE2VFCV97cyMq/JxSoea+vdloQoa3EufH+FAUmt69yLOr3F2lwym5ltolg+rMfw2MrNxPF39LgsyV/9bUJxU9jaAwYW9nt3uwGUeh2Ers39PO9DUB/QhK7gpETlgN7yo2xek/UG9sFbmVyEWEkhVn5sszOMZHTRDFA8u+zeCmzifkMx+w7xpaQsQUM+hHQ/oLgO054zuyQfr/yDlsQIn3jd04yj/TvizQ45aRy2ITLa7BmTurLnuqR3WrvA1pOzAd7AhPQByIDX0u0lpMMrO0GrvxtjCWUCfr13R+mEiqn7PIkcc/egDU3790bg430CVuc6l/kwclfsW0iZhc/ZffZwOYePxmYb2T3QSM7VdBnQRZHYhPO7FjmbTSWxqDb10llncc7zN1POaGTfm8DmnuRi38AJ+UaQIUyJrOh5eck2ZMtaE9qc3bsknqabdHqbvY0f9O3qYg5AX9+ti8oa/8kUKTBKXSVtbw6AINP6X2vh7/XKDs7iQ92AI1vtLZI4lDjOOX74LSnCe4D2b6wOTNW22TOLZPzvU+hw8fKCPXQ7Yvamdt6ZGdTsroZ6Oypz/ZFNaM+vpNjX57dv+kVPJUXCRRpcDLB+LEdvrB8lzGfM0ksbso2UIZOCnven3gWk2K2Jv+9BmC2UvMO8zLZxPcjfkM9TDmpZebZs/QXGK0NJHPKke6Dk9l2eMZX9fLClPaktvJesxvZZlXaafX2HQO+imeLiB+PY2X5DNSXWXaMKi8TJnj2wEmgSIMTe6QI12e/EGqPReJiqyFSF8MvwXBE6zLwCULkfktqxzNMdmJ++J2JZODCoMf4bAd8AjBE5BLjQvm8k/KY7ATb2b4/3mlRwkxCIoOpA5tCcwKTPQ0LA0qLsTGgzY3qYpPXj2gOZYCUbwZqK5ufOZWfHXMCkI3BEqGMwR25ATLIBtkhQ/aJEXNF3+AtZCFB1vzkb+SJzIhQ5nOeI/CQz/keWVI+fUnZ9CHv4XvLX5RT/Q/cNAzelJ0EIhycNGBs21ZJLFNWdmZES2q0SLy2skTmVpHNy2XGE0/JyBfmSmryTh3USdL5pjtl6NXtpWzSr3LPsFHy7Ny/pfU5N0i/cb2k4fo/Zepdt8qkz76VpGUpsis2ScofdYS0r1FTvllaShqef7XcP6CtfP/dLBk45iXpesktcl6TcnLnqEEy89MPJb5SZSlbJlHuvaOfVNOJcc/osfL18iVSoWw92R53qJyg+6Ou79xYnh/bWz6fv0EWphwr9UqtkAb1jtINlb2l3ektJS5Wg+okWTLTRH9PlKgIH7Pprv4Zsj1pq5QpWUaiM2LUsKYpaTculWefekCuGvOhtD+1k4x/8F45rMoieeauG2XyO5lyy4MzpUnZH+SewVOlepPjZGivc+T1FybJqKdnS2JcGUndvFNOunyIDLixibz79BQZOuEVia9yiJRPWiqNmrWQvkMmym8fvCkPTdbMoKSgTU9VF2qMi9ki4r1kiVjJcDKOcAEX8epHODjp0E9Jluh4zZWTHi2ZOvbjtMNiU9bL/PdmyKBhY6RO2yvljNYt5J2Zb8j2UjXk7puulHqxa+SsDpfLkqR4qVv/ZOkxbrh0PqqWbFr4ubw9/0t55cEXJb7WwXJt/2GSsuAtGTRhhhx50U3y+Ogb5L3Xn5M7xk6RLpdeIqvmzpYVu0Su6N1TypTIlKeefFxio0pI6yMby/vPT5NDL7hBOp5+jLz74bvy1hfz5bTjm8vGRV9KWlxJuXzoJKmgEzVa72/cqLEovkpqmmYljFVIytRMi6l6sGW8om0EX7vSUiU9I1VKxJcQ7RpwSk+s2CCLF86RKZPHyONzt8ix9Y+V3jf1kfYnRsvE27vKkCeWSYtOt8vdPfTYr/HPydYKDaTTua3kPu2jGse1k4HXdJFvX58ms79aIhdcc6ksm/e5LFieJud36SFldyyWl16fJWVrHSM1MrbLJ3O/kiu7XSWntdOd8tFRjsG6RGnKeksnqvoawbItDlWPaHDK1B7SzEJu1CcrOEXFRCtz0iVxyz/y4Ij+MnfJRulyx1g5/6RjZMuKP2VrYg3J2PSPfPTcBHlq1hzpdE1f+XrWZ1L5tLYy4vprRbdeyvq/5sjtF3aTLTUbymtvvyN/vn2vXHHHcNlU+WQ5tdGRsvrPpbJ06xY54cR6suv7+RJ95Jky6r5xUi1jubw3c5aMe/YTqa2TIHbRJ1Kuy5My4ebjZfnCV+T2u6fK5u1VpHRahvyzYqEc176tRKWVkMPrHSHntr9QgybLS0qanjQTzzRWiFUmGBXZ2CSZKs+du5IlsUQWC8xIVjCOSZVP3p4hD9x3jxxyQif5Ye58aXz8sfLgnZ10URgsg55YKDsrNpXzGum+tPWZsqVacylfoayqaItk0AOPydmNNF/2glfl1sFDZVWFZlIpdZskl6ovg+4aL0dW3SU33XybfL7gH2lSIUHm/7FEDj+ikZSvVFHKV67k8n0d26ypekV1AdMKBeAU3hAX0eCUonpDFrlI04mgMBUVoyu0UvhtK2Vs/z4y86dNMv7J16Vl/YqyY/mvEn3QkbJt7XLp3flcmb8yTY47vqks/eBjqXxOB3nh6SeklLKgXX98IGO69ZWNh7WWhx99UFZ//Lh0vH64LI1pIMfXri471q+QHSUraEqJwyX1m7clreVV8sAjd0uN9HXyzewP5YrRr0nVkqXlyM3zRLq9II/1aSIbf3hRbhn1sGzI0Nzmav/4+/fvJaFiKYmKLy3HHdtKru3RRxodoRHdDmi1/pl6ekpqjMSho0bwpZYqeKxEKRhs0Q2m5coo8KYnyb33jJHpz0yXk8/vLJ9oErw6RzWRR8bcKNPH3SYvL0iSco3ayNrPH5dtG6OkwelXy8GVyqtKmC63jL9PGuqp3/Frv5LBY++Xn9fES+2ETFm1s7wMH/eAHFk9TUYNu1O++ulfOSRqp8z49DNpfHRTKVexgpSpWN7lpmqryfhSU9MkLjpGNb0AnsJ5eEU0OCXrXE4AnNIVVWJiRY/SVPvSdikRlyKzpk2UYVPfk0v79JfLWjeUt5+dLL9ujJZjmzSUSXcPlfWJdaRh7QqS/NtSmZeZIM9NnyOtD68qqf+8J/f1vEX+OaSJPDljsqQv+EpanjdAap/VVV5+7CZ5TVnXXY+8LZ07XicxPz8hs9ZXk9633iatS6/Rs8WmycdrKkuLJsfIujfHSokeE+WBy1vJNy89JuOeeUnqnXi8LP7xS2lct5H07DtKYsvskqTtmVJP/65cKUGSdm7FNKKqXUmFWjWIRDhzSlEgiouiLbqhdcd2tQ1myHfzvpB+N/SXdWuS5KCDq8iaVUskvvIhctPVXeT3z1+RRanl5cyuN8vnjwyRtz/4Xlp36CYdWmj/vfS0NL+kt/Ttc7W88uIjMvLZmdLplGOlzPYN8t2fO2TgyDFyWOI6GTh8hOyMrS6lNyyT1Rml5GJVv5scc7Rs3bnDHWlUS9OBBMwpnCHp/9ctosFJOYbE6kiLytAjnKOVbShzSkraIWUTRdYtXSjXD79fPvpxmdRN3CEl07ZItaNPl8MOrS5fv/+69Br9uLRqXF2Wzf9Dzr/zbrnsrMtl9E3dZcf23+TunrfKsvLVZeJTYyV1np6SevtzctTFPWX8HW3lw9mPy12T3pPO5/eTE6v/IcOnfy6/L18hlZP+Us9eSWnbdYjUVLvGy6N7y4c74qVxiThJXb9VGp9xplx7c2eZdt/t8uO8v2RregOpclCS1Di4rnTv2lPOaX+62p9gGrpRWRuWlhInJUpFODo5435ClvpEU6I3aqKz59RQ/ZK0btVBRg2+URb88L4MfWCqxGxLlwal1ctZ+WC55PrBkv7tR9JZ+6HPoDFy2yWt1bkxQca9PlfKVT1YtuxIkmqndJZ7rm4uv3w4UwaOe04qHlJPDo1dJRlxiXJ5r8GSuF5PVxn3iFRVD13JsqUlJiHenXBCcv8qFSsrO9XYs0jXmyMDY/a7lhENTllKg9KnzHTZlaxHQis4JKuqVypGB15GkiTt0BzH782T1b/MlWqqUjQ7p5t68pLkp0/elIv6DJbSURskeUcleeTzL+UIVUHandZctkSlyuczPpLYOtXlRM2NVHr5z/Lxj5slrXZLObziBknd8LssWZMmDeseJfUrp8k3i/6RT/T4nm0bVmqyrTZy/ElnyPZNG2TBZ7Plj7VbJWPrejmo/lHS8JT2Uq10hnz96mTN55Mif6VWl6jtv0uVyjXlrHbny2ENamlLUhSgVAfKUH1OjeJZVuRIvvS493RdKXDb0ZaYdbLgx2/k1182aTrhLnJIWW1x5l/yzrdL1b4UK0dWzJDfY1Ol1tEny5E7Nsmsj+ZI+cOPkyMOypSy8bvk+TlL5JefFkq9KhWl6Tk9pXHtXbL2x2/llU+XyJqkdKlbYoMc1+oUaXLimbLxl5/k64WLZIWGGmxT1oRBnNS7HAARH6MhIemq2inbDq7wlUBEg1PWmM8Cpy3b9fQLdXk597XO71LKQjKTt8jv20tKvUrxunDvkg1SSkrqd4kpqyUlobrEZ66RFeuqSHLVaKmr8TOSskG2VtTTTPUwXNVG3IpfNvkf9TglyMbEalIFkxD2dmVnpUomSWx8JUnZsUUyYuNku9qJSmtMlKSiVsZIcqpuAdmsZZTdJatUV1ubUU7qqJ27rHoXd25ZKavLVpNqWqcd29N0Ja/qVI3k5K1SIjFB66+n6SYr0dDiIvnKlCT1pmriMQSpHjJRtYsrKUUdBjEJEk9nZf4j2xNqSuyuaCmxY5tsqxQrOyRRqqucJDNavaFxUq0cT22Tv5NLSq2EGLU5LRVRL156nDKzdX9LWvnDZZvKr+TW5VJCZbkjOkFU7JIelSLrNPlZWbU3AU5sZyEWKlYZNkQusDiF9+iKaHAKb9EGtQskEEggLxIIwCkv0gueDSQQSKDAJBCAU4GJNig4kEAggbxIIACnvEgveDaQQCCBApNAAE4FJtqg4EACgQTyIoEAnPIiveDZQAKBBApMAgE4FZhog4IDCQQSyIsEAnDKi/SCZwMJBBIoMAlENjgRIm7RdARduv+IwYxzP2P1f6kacZ3BtuAMTdyfnhV2l5yyXWJK6ffJpSU9fo1kpmpQoAZSSvS/+rBG/KWW0Z9bdOOe/tQNp5oaUrdhpElKuh4cmJCoG4yjNL2JlhmbohHq0Ro8uVNidSNpfFyCJO9KkQSNVOeiehm61y8+hm3wiRr/rQGGKWmaQiRKwwxTJHWnpvnVwE23EVXTirjDDTVAUIvWdCleoKD+nZ6u3+kVo0ntuPQMX23TTslIzZCohFIa2JjhUqxkataDuEwNYGSPbXTibvFkaE4jl1xN686lufX0b4071fP1ojVi2j+aKSWV9MO6hTp9q9ZdI7xVnmlaJCIiDnVH0kZN3pYouzRwNbF0JRcsybVpy2opW063imgamBTduKxRsJrYTduj0dhsZC6hea64UtJS9HPNhrldsxWUZqvzTq2nbsRN1+/1BamZu3RT9C6JzSiv9SVSk0DbOJUBeda1HvH0aJLKt7Sk6u7vOJVvrGakoPeTdadAfEKJrCDYuChNNpeiQbGkZdZ8X9ouJ0Ntmxsf7q/gClcJRDY4MVMYZdEACL9kTVo9Bc0N4jid5elx+k8/T9dJnKj777JGZYZsS98uZUSTKMVs1A90q7uWtTP9X939XkYzB5ST6JI79PNS/52iygS1K2siZhDRnZIkJXQihEYaMwkQbJICWvmSTMgs0Ex12aayotp3JW3WyaoTOTbevYNMlH562h1Jetjlf0AUH/9fvaN0Umq5AAtAlqj79nbu1BxQCphp6VntZ/sLwMLescyoWL1PIVIj6LOOSdJTfzkIQO+1lMLZ5RG39LpZWQUUBPUf5WQdhMDEzkpTo5CtoKPJ5LbtkvIVCeNmt6O+wwFfggKH1o26802qlqLAm6qgEROrYBynN2nkPbi2Kz1ZtxElaSK5UpKgqRi0BE3MoFuQFJA0r4w2Re+N+v/5l1JSU3Sh2KogWFblpklyNLsmCwTZLgEnZBqjYelJKsOSJf9v/9B3uzSVS0mi8YMrbCUQ2eDk5iNAoPCj2xP4T6edAyYWybhdWyW6dEmdYpq2A1Bg7vCM4sUO3R9SUidQUspK/baqglesJJbSvWAKIDu2R0vJ0jv0Z4wO+CwWtHNn1mDetm2bm+yk7C1RQunXf8i0efNWBxzly5fVSZwFFICkm5gpO12a2ywAIrkL1dUEKbrl5T8io/ekZKWa1fe5vN3QGpKo6MTkbwduuiMYqLCc41mgm64MATAChPSu6CzWmJSs7yNpEe2O+f+b9PyTiNmPmJCQBZhMcN5lf1OfzKgsQINpwANTySipdU5QCgVeKOXcXbYde40MAFuAgisrVW/W+xUv/8tRpfm3VCaxcekOYFyFuXRfI+9JVwYVpZkDUzN2ZJ2arMDE+9J1sYnWfs7aEkcF3Auy2KbKF7lkHfag23+UZrnDGFR2LBaAOamWSRGcqWkwE9hqFOlpH/4TW1H9EeHgpIPZ1BRGvi7D0bAjxixjXdmRpsmUbcmqRinLQM3LULYTrWxnp7KH+BiYQZoOUc2tpN+x15Yhv0sHcFycru6qfP03BWTt+s1StXL5//bi8i5W/lhJVrUhAXaUlcDSAU8Kap6qEahLABRTTqdzVq4peEGyTrKEkrItSXUlvUqV0LPndicg0M2wuncvPlHZmhaWrvWMIh2MFr5LVUbwpoQCCvVN1olKa6N1sgF6KQpu0aoeRql6uUubVor2KQhm6rPJynxiNGOoJVkDQBJLartDkq5lTfL/KqPypE2bt29W0FQgRqbaCm2ZE1QKKpZusoarJikolExUYNbPknZq0rySmo1BAWL7thTN6Q1gq6RVNc3KocQ/BZKMlbpAVNW9jKocs6UwZqfs1Oyg8ZkVVMXT/YmxO7S+pTwIUdlpGZku3W+c9lGqbFy3USpWqbZ7fmap1bpApapqCMCDZC77wH+MVwE2U0E+htw0ur8vuMJXAhENTmlqm4hV1YWLSczK/z9HOyn1l8xESVL1AXNHbKbabdKUHWm+JOAiKX2zJMaW1UmvE8KpUHqvDur4xKzcUNG6URT7S8kypXaD1C4FlLIldWXWlR/VZde27RKrDCom0W1BdpOTyaoGIZ29mlw/vqyDpPTUnVIqU9+tzEZ0wiXpxNfXODUEsEG9stNY0rHJqBqWqlke4zSlr/I0p2A59vffv7QUZToKwaY2ObAE+lRniVamBFtI11xHJUqruqVpRHg+BZVKAY1km/9ZntwzW/UgiLLlKjiWs0kZYIUKbqetJG3ZKqXUhgTQq4Uoq/w0lYxO9nS19WQkltAkcuslLiFD09RUkGgFDNqfogAXH68gkJU0OQvxHZ7t1M9S1C6nm3RL6KEFslZV6wpKCfU+rVNadLLWU9mb9kOU4nZKAkxNVVfdiE1+9YQEtY/pHVjsWBjcTdgXtT7aDVJK8TNN2xilGUUBTWQbreAUX6qsq8J2zVJRtpSCt7LMdK1ETIksdhdc4SmBiAanFDW4xkUxAXSFV2BK11UxjlUfYFA2sXzxz/LHqiTZkBSn6lYJOblFA8eIli1aJkuXrpcqdStJw3rHSoLme0pN3iDffrNM1m7WlbimZhtIrSqnNztE020ky9fzf5JkTZt7fIsTpFzpGNmpGRDKq0FYNOuB0hT5599V8vuylTop06XZ0Y2lapUKsnHNKknd+K/8sXGXVKjdQOrVqC6ZW/+VX777XtJL1pKaRx6jlORv+f777zWNbGWdOFk2k6MaN5VSCoZZBludcTr5fvnzH1m9dpMcpRkjK5Qu4Q5xAIwof7F+949+l6xsArWxhE7KU09sLjs2rZNVq9fKRq3rjrRoKVe5uhxU4xCpVKG0ysyhjDKWLeoYKC3L/1omK9ZoxgBlmdX0nho1NePnrkyFjQ2aiiZdvv1xkazfkuRycDc/+khlRbHy96KFsnJXBWl4pCZ202yU0Qop875cLHVqHa6n0ujv8z9UoFf1eZuqXJqbKjY+WZodf6iyGpEfFvwu5UrVkdqNa0oVtUmt+HmhLF72r8QfXEPqaj71atqO7cv/lq+X/akZG+pJwwaHquoKfm2Vnxd9J2tXwqgqKxBvlJ0pUZoXq76qgJpHXheT449tpNkhVLSawmbtmg3y1/KVUrpCFWnU+GgplZjF+GJVLY9BDY4NmFN4wlJWrSIanFJ1gmK7gbBDHKKjWR9TdTJsla3bNsrIIXfKe5/+ogypjJxwQlO59foLpbSqDaOG3yu/LVovdZo1kQvPvkqu7NlKPvvwObmt3yOyLmmbnuDRRE5o0VNu79ZMnnlxhgwcMVbiy1WVK6/uIb17XasTK1HKlVTvUvIK+XbOtzJszP2a0+lbUTOPXHhBBxk5dJAad2Nk3G09ZPaPf8i5XXvJmJFDZOFns2TAzbfL1ugacm63/tK4/Erpd/Mtsn7TDme0Bzy6dr9GunbrLnXr1tTpvtWlgpnyxPOyYOFiuezSy6Vdm5PVCaZ2FdXPPnthggy5Z6L8vGKLGvh1Rqru1KRedXlo9AD5++d5cueEaQ5UtihhrH5oA7m2V2/p0+s6qVpeVcotm6Rs6Sj58atv5Y5BQ+SjL+ZJZnyinHbWuTJs5Ghp2vQwTVn8qdytCdumvzhbU46Uc8c43XT9VXK+Hjjw2ENjZeY3yTJ6bD9p3KSm/LxgifTrPUo6nd9FWrQ8TIaO6CPffPebMtLK2h/xckjtcnLjrZeqOpUijz3yiuZKP1QeeuZ5qVV6s0y9f7A8/fJMqdf8Qrl1yGhp26yOfP3uY9Lm8v7S9uQL5ca+t8uZ7RopgP4kEyeMkuefnqkZNLHFKTNSFtym3UVSqvzBsnDhQhkx5BZpVK+avDB9qkyZ8rjsVHCtdmh9uab3DXrySi+poKQ5eZsmJNSTcgKbUzhDU4SDk6k6gBMG0xgHTsoUtq+T1av+0RNSNLNlRhXpcOm1cqqmdK1/UKp88PrT8tSUFxRErpGXP/pCjqpzgtw1rpO8+daD8sjkz+TEU8+QxppO97yze8van9+Q+x/SXNZqoK131LHy8htvy6233iq9undS1USN39t+lDEPTJaHn3hRjm99hoJTtPy+dLFce3VXaa6pYacM7imvffOPglM3GTvmTvn45Wly282jpOTBjaTPiMelxD9a/oMPSstWJ0tpzUM0//uFqq2UkL433ixX97hcHeWbZat6nAaPHC9fzvtR+vcfLOef2QZnoxqSM2TutGHS/Za7pOxhx0itxic6g3rtCrHy0NC+MnX8nTLmqZlyuuZHjylTVT6aM0+JQkmd6L2ka5fLpJTmN07RFLmjRt8l06a/LC1OOk1ZVAX5esHP0uGSLnpQwC3y6riO8sLLH0ilqk2lUZOTZZbm+z7+mDoybHB3efftZ2XKW5vk4SlDpdmxteXPpavk/HY9pHuXPtKmbWPp3KWtlK9eWxofcbJ6JStJWY0KuLzbyfLzr9/KLTferQywkdw2XNt+eKpMe+AGeWXmn3JY63Pl4WmvStM66TJ+0IUyfPIcBenj5Zqr+0if6y9WRrRO3pz1lEx/6m35/Zctmovrb2Vjp0jDJq3l39XbZN68eTJsUD/Zsu4PeWTSvdLw8KOkYrUa8u3C3ySxbCUZPVqB78SjNKtzmp6WEwQShDc0RTg44S3CU7MrDQ8W1mP11UUrZGn8z9vPTJVBtw2TX1V96FKxjDTv/YjUa7ZJXuh/uXxfob/MvPt8eX9IB7n/n9Ly/jPDZNqdt8mk95PllHoHS70KW6TdU99JiZ/ultF3vS9Ve90lQ6vskmt7Xi/x10+SN7ueJSUrr5K0HXEyYWg/eeb9H+Si7jdL/cSt8tX8+dKi7VnS9rDSclvv6+QPwDI7AAAP2ElEQVSLxeuk7tlnysmtr5Z1P78gM19/U42+Z0q/UV3loC2LZMxjH8mUZ56WU5plyJr5b0qvXiOlxmk9pcu9D0hLXdxLpf0iQ24bIZ/8fJD0uWWwdDojUQ912Kyu9ENkyfhLpOPUHySxUUvp0rq2eujUDlT7dOnX6VR5t187eeHjv6XzhCc1PW0r+WHGXXLjkClS6ozhcv/4a+T4hFXKLrfJ1BF3y9AH35Y+A0ZLy8Ni5Y1PP5HWHXvKSQ0OkbE9O8m8mCYy9ZmnpFXpv+Td11+UX6PryGknNpVF0/rKXW8skRYN2kmjow5RFWypvLtgvXTpep5c2LSSDL/kesls004uOKGhdpN6Og+tK10uO0fmznhM+vUZKZmaLK7d+dfIqadWkCdv6yO/LEuTkud1lCcff0USF/woT0y6Tv5MOVhKlK8ssaXLyIAhA6Rx/SoSu3OzxCetlofvGSaPfb5Kj/V6U25oWU7eHD9Arnx+qfS/vrOs+HyKfJpaXybdep2c0PI4efWNd9wBndf2uEpTKFdSe5PGnqH+x2R5YoMrPCUQ0WqdgdMOPekgIUFjetQ+lKHhA6VV5Zr/2UfyxSdfy9qaNSTto+fk49V15arrOsgvLzwu3yZ0lFfvaSNvjrxMHvnrEJl+3zAFhnflu23lNXvl7/L9+2/IltbD5aomf8jjT3wrLUc9JbdU2SnnndtRYnqMldk3XiClKqqxXa8/5r4v/SdMlzmaq7z8Dj2ks+3p0vOWQVJ++2IZ0buPfL05Tg5p1lhi0g5RW816WfXnj7JxdRO5atT1UmnFOzLpuW9l9OQpcvFZevqK5i+/ptMNklyjpfS8f6IcW1b9iGmL5U49mmrWt6Wl38CR0uWcqmoQ3iQpyghXTrlOGl4/TVKq1JcmVTQrpFqpDm1ztYzqdZUsfrSvTHj+Sxkw4z05rW0ziV81R7rfMEbe31xPVZ6J0rbsMjVnHSorfnhNBk58WD79do1UTo2XBs1Ok/P7dpOmh2yQm9p3kdoXD5bbB1wnh8WtVy0oWbbG1lCb23r58O4uct1jH0vFzEOlTGKqbNVAyH83lJHbRt0sHU88RK5r10V+SomRExrXUtvPSjlKGelddw2QJZ+9LoP7j5ItsfWk9sGHyZHND5PlX70li5b+LmnHnCYzX3pDVn34qgwd1k/adOguy9dsksX/rJYe1yjju/xsKR+tOur2v2TC8FtlyicbZfizc6TzYRkyY/wgufWt5XLmyY1lw7zn5OALbpHRva9RZwNxVOrhxMGn/YWRv5Ia+bNyB2eFUQRXeEogssFJD6HkOCjiDOPU4+WCxV28T7KsUIMtLucyjQ+XJW+OlCuGzJLe190mf8x6R75ObShfTO8sE4d2k5f/PkKeHDNOKqZoPu8TWkj81sXS57Ju8uKyJjLqshIyc9YiOXXEk3JZ2W1yYcdLpMyVd8rbA/Vn+VTZpEn0Vy/8Ur7+a6em462l+cGnymuz3pOzL+kqPc48Rp4fNVSWVDtZT/yIl/df+FyOOO9MqanpfX/9YJO0GXqHNFj/kjz88i8yesrTcnqrQ+T372bK9d0GSN0T2svtk++XOjqxEjL/lDEKTm/O05Nwh96jh3TWdIbhbRpAuvyhvtLhrtfkrG7Xy+lNlWWULCsplRvLiQ1qyvsjr5SJr3wl9838VI+fOkz+/PJluXHw/bKsVEt5WW1VR8etlmQ1nv/++UeydGNpWZ9cQn794jWZ/vZsqXBYC5k6+jYZes0VEt3kPBkx6k5pXVdk9dIf5VvFqCPqHySfTLpRBs36Sbqd3VeOa1hdlqgBe+iYl+XKazvJVRc2k+s7qX2n+Wlyx1UXukDJ2Bp1pWmzuvLipGEy9bHpUr/FpfLHZ+/Jmpi60vyo0rJ142LZUbaxPD1ppLw6ZbAMu/cVqV6tlKzdQPxVKel7+xAZrycCl1BvXfLaH+UhXVAefn+TjH3uE+nYIF6eHTdYRrz7p5x3WjNZ+eV02Vmnldre7pGKlcvKwp+XuqDLOrVqSuXyZTR0QwNJNZAzKtLP3gpPTMm3WkU2OOlpsuordlHhOznETrdJlNSBl6GhAW+8+rJ8/c0XUq3ZMZK+eLa8+sUKub7XbfLnp+/JM3P/kfv7n+uOclpRoqWMveMW+fjVR2VX+YpyTP1K8sKjj+rg7igDL6opjz/1pqQ0OENOSNgob74zW068baLce81JGoeZrO7rlTLwarVXffWn9O1/t9RUG9HEKU/JQUccJ3dccYY8O7CvbGt1gzSruUsmjp4gJ/QdKU0PzpTPJr8vjW7vLy1S3pXeg56Xzv2GyuGNysoHM56UJfP/kUGj75eLrrtElDjplpvlan8ZIQ/O+FFatOsgJzWpqjacNKnRqIVEfTBRbnhE7UqXdJfWTWqrl6+ccqqKcrIC8keT+8vkVz+Tk/S7xmrc/kCPU/pl2Qa5Yuij0lPV0oMzt0tK9FoF0Qvlg/nb5bIeN8oxdXbJpCeflbWqMs5+8ml5YuIQefS97+Scc9vLOU0rypNTH1IAOVgeGDtCvnv1QRnz+WJ5ZvxL0u7ERvLTgnlyTodb5byLz5Jzzmkol7W/So9g7yKXtT1OSpcrL9vUntX4mPoy982p8uyzr0qL866TlR8/KG8vOlSu7NFGkjf+IMv/rSDXXXy8PPPknTJvbTNpf1yUbN0RI4t+3yTVD64vE8aNkaMbVtYTzZfKwxOGyZR3N8uQ+56UrifVlSl63NctU2bJ+FF3SOza72XYlJekw9kdpW6D+mpPnOVCNe4Zc7ec0kq9pLp+pWnISIKGQgRX+EogosHJ7Rdz0c96fAGnrxAjowwqSU/k/ejDD+ShKWNk0bIoTYqfLM1PO1XtOV1k1+oFcuvdj0mCHiyQWeJwOf2KK6T7xW1k8ti7ZPrr86S0xjsdVqecXKInx55xWCW598EJ8tIny+WgqNV6emxjuXTgJDmhAdtF9N2aQP+bt56Te6a+Kd8vXiNltiyTarUPl3Ov6CWnH1VNHht4jcSdcauWk6ZM5HFpctMIaVg5WeY88o7U7tldGm3/Ui657j6JKldPKlTV7TVp2+X8MzrLgMF3Spka8Rq/o4bb5I0y/ZHHZOBDL8iq7Rmq5u2QmjUqOSN7y+iVMujB52WlnubCfroEPVm3TNVD5d4h/WXDojky8fm35Oe/10qdQ2tLdMpGadP+fLV1TZJKpeKkSqxuGVFD//zZk+Xep6bLp9/9K1WSYiSxaiM5vUtnPSbrbFk4b7FMnv66fPr5JxKz/V8Xa3R2pyvVqH6tfPLa/2vvXGOqrsM4/j2cczjAuXDgKJAJDUMNUZQyjXkFp02zZi7XVubaKqstm5u9ab6pd5Uvur3oRbM1Z29qtmYaSoSouImmBZkXckISCiKXc4NzP31+h6z1sq0taBzenAv8L8/h9/x+v+f5fJ9nrz5o/l5vv/6eli2aoc6f27Vzx4d6bPN6LV1VTuZut67eDMobHQYjgAfzzdT2l7dqljembxqatWTji7JceldfXpmrLU/Vq/vHI7p4PqXF5Xn6qaNJC578TLu3+jQWd+iTfV9r3/4D2vnqDj3/zCOsjge0541dOnbZoe2vvKZNy+dp/8cfadeevTitt1Q7p1BvvvO+mlrOKMxW3+ny6PEntmjbtm2qJJZmUIokGkSrfbK33pq4juXfuLJJ7ZyMJMHcwLhu7O+PBEHY8+3NOtVCjMFtV926atLZ9Cuz9Krx6BG1tw6roGyltjy9GiwgqIG+2zrR2guDc0V1axdoYW2FfA6Xfrl8Wo3NPQTZb+r+xUu18CFaC1lGiFi4YYECKrSN6sTpqzr4XZt8kRtaQhC4asUGOYNdaj38hayVa7S0PKWTX51RAYFyH+fqaepSYf182W9cUOPxXg0EYZbSfZo3q0xrlm1S+ewSJaC7QUzligXVdf6cDrSdxTkx5Q+FuF+LHtywSjVOm461tdM3r/9PMt446pee3aqRG9fU0tGh3p4h2mTZVF5RppqVy1VxXyVbRVZkpDeD2M+dPayW1g4dPv6DihIjmvtAnRbWP6x7aGNlNGgXaDra0NAgP52OF1Uv0CpaKxUXFant1DG1/3ZLa1dsVimrwVC4X59/elbzqmC6Kt062nhOF7t7aHp5G8DTp27iWUtqq1VVnNblzm6u/zklOon/+StUUz1bXedOaiQ4TaWuLGJy11Sx/gVVTTecl0PtF6/haFrJuK5WTdW9TEJhtTYd0nW/SyuW1aq02KvOS1d0CGe0bm295vM9/0rW9OC3J9R1vUfzaXK6YeOjsG5GyM0RjYAZsbUVQfDUY+JaYFI7J2PWO1S1eW6kFxmHxQAdF3yOKTiQKzv90XIcIcXDHtnzTIavn+d3K+2EliZG5R/qU75veiZAOhSGCGdlgfgCPbGVZCBwYrxYUYuhyGkQmSDwbhvkDL4M+Z2bGlAUuUUSEjkvFUAjh+A0x6184kLptIdGn+aog9CIPkWcEOyAlbZRiOW8YVZ7ZLHsJeORWquhnXE+SWh0I/XIQsoBCZ2f0QOCR1gMJl0gJzBoFLwg4UojumHmB/zMCJ1BEAxbmY4gnQFsNFUUgmjTPA5o7wivqYRAfJqKB5DqBlxNQsFbEc+STPCHvLJTXCBPgKM4+5BlhgpMY0/EuYaVNw/Y8swK1ZIh0bkGBL82tkopjpXKCXLuUaRxxbT5NvcS0iCxKcc0l1xsf40FRiDijS9wakiRwKjinpm49xH1E0UiH6d0MKCYu9Cw39g4oWFWsAU40BiTTBot3xhEt4s276ZKRBarHiMNCkdjxI8sVEyIypJLhQIjszPt/rh2G98XhiBeZfR1NFz9YwzeEbIYCt/G51OPiWuBSe+cxk2byghXbWjKzDg3w8eI9O2wQJY4PI99AKoazUQE4ptkj9sTJlhOxQHCyk6aMVocQDgMnGSyTwkG+e2wTSVIG0yrtWxiTZaxQsUJT6D8kBUfkaZigQnSjvGf7oJSjsFSx/jQhXMyIrEAs72H6E+Q97NCbLfspqSKl8E0QlrcxuBxUUrlKn9cStkUBxo4M35pwEmsLCv7LpyGobX8DPd8FXE+M9qijiDvQbpTNSHJYIzksq5Ku+QwNLxxw0bOYZwlrxMcx5rrViAxpHxTGwYBc9TozfBJDHO2eNxzivszkp6xmzhpj7GEPACowrEGuC9PahCHmIcjM86JEjHIgAzwasXOoVBEOQX0f8OkxmfFuHZ/oo9M2hy2l1x7pA/xbQmuJyUv50sE4op5vZmERU68L5PC9yc9yseefraK+eYUMGJB5CrDg7dUBvAaZlJwRmfwu1R0QCA8/mPykZSYCTPZGC9okm2pEBm4MWUXmsnlr/6dNvoHIgcYV/UgGTJlaMJUcHAj/kVOnQkBTBVNmbiOyVzZ/8Q5TWwjT13dlAWmLPDPLfBfOaffAR3AoQiPRsF8AAAAAElFTkSuQmCC;" vertex="1" parent="1">
          <mxGeometry x="130" y="410" width="245" height="155.31" as="geometry" />
        </mxCell>
        <mxCell id="HsP99W9kWxpz9ayobVGK-2" value="" style="shape=image;verticalLabelPosition=bottom;labelBackgroundColor=default;verticalAlign=top;aspect=fixed;imageAspect=0;image=data:image/png,iVBORw0KGgoAAAANSUhEUgAAAJwAAAChCAYAAAAyXNY+AAAZF0lEQVR4Xu2dCZxV8/vHn362UMoaIRKRLbRpJGOiKGXK0lRKZJdESBGlZiJUttdYEiXSRqLFljZKkyEUYSZSmCyRff3/vL//3/e+7ty5Z84595xz59w53+f1mtfU3HPP8nw/5/k++1Pj//4lMWQ4kCYO1DCASxOnzWUUBwzgDBDSygEDuLSy21zMAM5gIK0cMIBLK7vNxQzgDAbSyoHIAe7rr7+WoUOHyrRp02SfffaRa6+9Vi699NIKTF+wYIGMGDFC1qxZI82aNZP8/HzJysqKHffuu+9KmzZtZOvWrUkXrHnz5jJ69Gg59dRTK3z+wgsvSM+ePS2/t3Dhwthn69evl8GDBwv306BBA7npppukR48e6vPs7GwpLi62BMymTZukdu3a6vPbb79dHnjgAfnhhx8kNzdX7rjjDvX8mvr27SvPPPNMuXPVq1dPhg8fLr169fINlJECHAAaNWqU+unTp4+wIJdddpls2bJFANDOO+8sP/30kxxxxBHy448/ylNPPSVNmzaV5cuXy9lnny05OTny0ksvyX/+8x9555135NhjjxUrN2aTJk1k7Nixcvrpp1dYrNmzZ6vrr1u3rsJn2223neyxxx7q7/3795dJkybJXXfdJV26dFHHc7+1atWSVatWyTfffCN//vmnOnbu3Lly/fXXy9q1a2Pn3HvvvaW0tFTdZ+vWrWX8+PFSt25deeihh9QLVFhYKBdddJE6Pi8vTwH6mmuuiX3/rbfeUmA76aSTZM6cOb6ALjKA27x5s+y3334KPEgsTX/88YecccYZcvTRR6uFLSgoUIv83nvvyfbbbx877tdff5Xdd99dHn74YTnvvPM8A+78889X0saKWOxWrVrJRx99JAcddFC5+wBAAwYMkCuuuCL291mzZskll1wi3377bblTHnLIIXLhhRcqKcmLoonzA8LVq1cLLweA40UbNmxYue/zUnL93377TWrUqOEZdJEBHNsmEoGFSaSvvvpKfv75Z6lfv77UqVNH5s2bJ6ecckqF45B4SASkIBLRi4SzAxwSrVGjRjJu3LgK97Fx40bhRYkHYjLA8Vw8E2oEL0sisbUCyDvvvNMScPBs3333NYBz+6ohLbp166bedCtCX2IRrbbJv/76S9jyfvnlF7W9eQEcW3S8TqjvafLkyXLggQeqc7O9sfU6oWSAmzJlivTu3dvyeW6++WbhmZ988skKgPv777/Vto2+iCoxYcIEJ7dhe0xkJFzLli3lrLPOqhRwbF+HHnqo5QLBTbYVPwCHbjRz5swKC3TiiScqHe2YY45RBo0XwD344INy+eWXWz7PrbfeKp988kkMcBhSibTtttvKxx9/rF4CPygygEOisK2gMCfSxIkT5fHHHxesR7ZUpFfjxo0rHIf12K5dO7WdYb16kXB2WyrWbdu2bSvoVNwUFuerr74qL7/8cuwek0k4/QKhLuy0004VngddFHADzGQ6HNvp4YcfrnTfyqxhN0CMDOCKioqUtcUiwMB4wr3B9jZmzBg599xzleX37LPPVuAjIOzYsaOy9rxaqXaAmzp1qlx99dVKuvASaEJ5x8C56qqr1I8mK6MBixcjqFOnTuWe54svvpDDDjtMZsyYIR06dLDU4QYNGqSsWaS6HxQZwMEsdLiSkhK5++67lVHw2WefCdvKm2++KStXrlQ+K/6G1cZWhr8OVwHbzpAhQ9RxSL8dd9wxcMBxv0g4pOm9994rqASAD70OI2Dp0qXlrGgrwAE2XClY4BdccIGSdEhqXC68ZFo3s7JS8c2x/WOl+0GRApxevMcee0z5q9hizznnHAU6fFaaPv30U/U3fG5Yevvvv7/yp7Fo2pGqJVyyReD7p512mnz44YcVPsZF0blzZ+natavl+mmjBamCgxalnhcFRy3AwBm7yy67lPu+FeA4CKcxL9myZcuUtXnkkUcKEnbgwIGCjgZV5hY54IADpKysLKml6xaEkQKcW+aY4/3ngAGc/zw1Z6yEAwZwBh5p5YABXFrZbS5mAGcwkFYOGMClld3mYgZwBgNp5YABXMDs/v3331XUguRH/GgkUJJj54ZIGrjyyivlqKOOUg7bTCYDuABXDwcuCQPEXcmjI0pBOIogOalBTokMFxy3hLr4nclkABfg6n3wwQcqwE8oSkcoSBAg2kBCqBMiSH/xxRerFCFiqgZwTrgW0WMIjSGd3n777RgHiMeSYQwI7Yg094MPPlgWL16swmoGcHYci/jnbKn86NRuAuDEZUkcePrpp225g1QjrYpUcjKNDeBsWWYO0BwgK4NgOYFw0tO32WabSplDdgrBf4LyANYAzmDJEQc2bNggLVq0kN12202V4ZFRHF/MYnUScvdWrFgRAyaZLmQbk3lLmlKmkjEaAlw5KqiokUD/ou6TeginRBoRdQWacIuQkkS2b7LsXafnrerjDOACXAGKWAAKVmk8Uf9Kbew///yjcswoxbMDkdlSA1yo6nLqJUuWCPWfiUTGMFm4GBQ1a9ZU9an8roxefPFFlWlMFnAmk5FwVbh6AI4aiunTp/tSZFyFj+L40gZwjlllDvSDAwZwfnDRnMMxBwzgHLPKHOgHBwzg/OCiOYdjDhjAOWZVcAfi8sBVcs899wR3kZCc2QAuBAuBL46ct8rad4XgNn25BQM4X9jo7SQGcN74Z77tkgMGcC4ZZg73xgEDOG/8M992yQEDOJcMM4d744ABnDf+mW+75IABnEuGmcO9ccAAzhv/zLddcsAAziXDzOH/zwGKZOigSQkgjQz5PynhtD1lBoIVGcAZBNlygFkNTzzxhApHff7556ovMCnhZPFaESnmdJykkTNzI0aOHKkONYCzZXc0D6BOlFYNDAhhXJIGF9KL0j86nPNvMnMplKHoBRDyQ9U9vXXJ3I3PAqZOAfACQhPaiiauKjz1d999J+3bt1eNpAEPgfb7779fmKlAb2DqEdyMBaKNPYAFgIwaorILYvulDwkzGqormVhqJStLa/kzzzxTVc4DNBrJUJRMNbybCiw78FBCCAhJOWdrpj0/LSEYS1TdyAAuyYoCLsYC0a4exZ8GNEzqS5zv4BcYtA7HDAmGdDD2kuwR2vwzsMSuosuv+0jHeQzgErjMTAYmtNAD5IQTTlAAoM18kJRoNGDpMhmQ3iRss88995waBlIdyAAubhVZYIZgYBwwYY9SPj+3TrduEYwT7gFphzVMF6VMJwO4/60gvT8YhMaoRgZxIN3SRZW5RZj2hx7J/FYGDN9yyy3puq1ArmMA9y9bkWaMOcIYYGoLDWfSSXZ+OD02fNGiRXLDDTeo6TSZSpEHHO0YaMXA1Dym8+25555pX0s7wHFD9BrhPhn6xugjRjNlIkUacOhsNAfE/fDaa6/JXnvtlfY1JErBVD+cyHYD1AAdM7xoUEjP4PgR5Gm/8RQvGFnA4WM77rjj1EQ+FrBhw4aOWYjTFkuW0BY+tFSIwW1IKlqoAjaGreECsSO21+zsbNWya/ny5arRdCZRJAGH1ccA3DfeeENto24bxNDnjWbRq1evdu2uAGgAlTGUSDTAw9DgZAOBrYBE72BGqu+6666qaSGhtEyhSAJu3Lhxarx3qrpQKoAjgkAoq1+/foJ0JeZKr7fEwblOgfP8889Lly5dlBsHPTRTKHKAY6w2XSjR15BQbKluyQ3g2C4JjV133XWClUnsFfeLH+4NZriih+I6YZBwJlDkAEeTZgLkSBvamqZCTgG3ceNGBSwGAhPwZyLzfffdl8olk36HQcC8PPXr11egywSKFODYyggVMQUa526qZAe4rVu3KmPgtttuU/lvSCK6lgcRE6WdK3He4uJiNRMi7BQpwPXo0UNNgSHNyEts0gpw6GkYBLgr+Dcx2JkzZwaa9cG8ByQcVjbB/7BTYIDDCmMmAcp5GIgMEPS2Nm3aqGC4F0oEHOcuKipSPj1y53AeA2ws0HQQ+iGGEBbwDjvskI5LpnwN3wHHG0egOT8/X20rYQHcxIkTlYVI6KpDhw4pM4wvasAhKYm9kunL7AUMkDFjxqiZWOkkVAXug0B/YWFhOi/t+lq+Ay4+8zVMgGMLLS0tlbKyMqXAeyENODJzAR3Up08fNcCtKiQMEhYHNL9JVw8z+Q44/bBNmjRR6TRhkXAo7Eg4P6xELS15VrJK5syZk3LEwS9wkLeH7lhZEY9f1/JynkgAjm0US/GVV15R259XmjFjhuo+zqS/k08+2VU9g9drW31fb6tELUjeDCtFAnC4QbAWCZT7kSZu5xapisXGYEBVwAFMxnBYKRKAQ38rKSlRmbxO5lzZLVYYAcc9M3GacUtMoXZTRWb3vH5+HgnA4ezlh9CSHxRWwJFxQlwVwOFwDiNFAnBsNcy8wmXhB4UVcKQ3kaQJ4NJRi5EKLwMDHEFlvN9hqK2E+ZT8ETT3g8IKOCINxFbJ16tbt64fj+r7OQIDnO936uGE6DNUQBHa8oPCCjga6KDHEdRPd12GU75mFOByc3M9h6WcMsbJcdSutmzZ0smhaTkGyYYDmAxmt0mlabnBfy+SUYCbN2+eagbjhpikjFOUOCfDcv0gLN65c+eGLkNDA44wW1hTzzMKcKmChfnygM6vQuKwbqmkmxPhwQ8X1oTMSACO+CZdiugX4geFFXBspWSoYKWmksnsB2/szhEJwKHXkCFCTacfFFbAkaJEqlLG+eHQkyZPnlxubcht6969e9Ks0gEDBkidOnViHR3jv0g4iYXW9QM5OTnqPPoNJGOVnP9k1LlzZ8nLy/OMESrqIRrV+EEacICYrRqnchiIXL8VK1YowKFGhJGSSjiYSEUR6UUQfcvwqz366KMqHkmGqSYsNUBE6R06RHx9J36h5s2bK4Wdsjp639LIj8wNEhYh+mbgJ0vmssCH5yUzV9/j8ccfr7ohEdqi06RX0oAjTEZ2xiOPPKKqp5KV61G8bDfP3uv98H3uA5DBy4wLbQE4EvmQSvFEe1AkH+4JTUghnI3k1JM5ga6kiXQZfEMskCbytWrXrq0SFrGkAFzTpk1V/n9QpMsCefup5/RKGnBYqjfeeKNqNEM6Ob6+eOsQsFFnwPNR0xAkUSCNs5fWr9TahpUsJVwi4JBgPNDSpUtj2yp5+6Rtk6bz/vvvq34XbFtanJMLRwuF+fPnq/I4TYCWhUgX4MikAOTjx49XzQW9UqIOV1BQIPzQxZJs31GjRilJSjsGumZCAA5VIiiibzC7CdVovPhhJUvAUd5GMBhiS6WdFQ1fli1bFsu4IJWcrffLL79UxyEByRXTKdyUyfHG0ZaAba1nz57SsWNHlSKkY31IOLJw6ZebSEhLzukHcU2876+//rrn0yUzGuABOXKcHyMFPvCsSDkIwJOz5seWnuwBGPLLi4zfMcxkCTjeUjp2a6ItAso/eWV6SwWAJPuRSQvx0Eg3tpZ4YhuFGdRnrl27VqXOsNXCfACHzsHvRCJt22s6uD4nLwF6KHql1/huZVYqNa99+/YVSgUTqVmzZrJq1Srf8aC3U3YR/fL7fhGfTuh4S+V6mtFsr0gvDIREhZh+GRgHVC7RQI95BPHbKeDCquNz9Lh06HDcO3oWuhRWsde0dzu3CC+V1SAQ9GN44ifR1CYrK8uXAiE/7yvZuVwBTj8Y2wRZtORcxRsEXABGU2GOPwgLE50p0cOPtEPXIRSTLsBxb7hHkABIXC8JinaAo18IYbhkhCrBS+mX24KXH4OF7TqZVA0aQG7P7wpwSDR8PRT7YizQUCXR6hs4cKDS89g6KDYhDw0LlpALhD5HPzS84pwrnYCjqgrpMmnSJFVllSpVBjiMJNxElRGjkCin9IPWrFmjAEceHG6rsJMl4ABK/HaJRYqVBYiwhGiMxxuFMhxPOHHpu4YLgkwKlGect/pcGCAAFWMCAnBYsckSBvHdJTqgvTCUa/PSoPMgXVOlygCHpRg/acbqGuh56LReCOkGr+kr8v333/smNb3ck913kwIOS0dbV/oEbAFagWdLAIDJLEgWFQcrANPRBBiDawLC6Ruf/szf+TwZcZzf/Ti0lCOuqmdd2TEp8XMrwJFFoqMadudkS6eSjAEgqW7vdBDAgMO4w8jLBIpELDV+IfDI0zVp5cqVymjBae2WKpNw6FK8sHrQm561xW/cP1wfgwvphgulXr16KtUJC9YN0XYMac1LT/THj+IgN9dP9djIAQ5GMdsKnxxgIxznluyMBifnYyfAYY5qAhhRH9AtnbqBunbtqlQTJCTnyBSKJOBYHJzWGDj4ESkedkN+AE5fD4uZWguqrXAVUeiDflcZcb/0EcHSJ3qSSRRZwLFIujkhYanBgwc7Xjc/AacvistJd1/C2Jo9e7aqT0gkHMu4pOhrgmEW1nJAK2ZGGnBIF8JPLBzWsNNUqCAAxwJh9ZPEQJYOmSc6C0UvHtEemmEz1wEdNN6h7vhtqeIDIw04eI8/jDjvpk2bVKMbJ2nodBEnrOdHmCzZ+tORiSY5vAy4lSB8m7iQACK+Pq/huarCXeQBB+MBG4o3ISncC0OGDLFdD1oqIGmCIvQ5DAPcOMSmceziMMYV4taiDeoeUzmvAdz/uIabgWwPpAcWIz2Aq6LXm15EAEeuIbMYKOImOoNe16hRo1TWOTTfMYCLWwqc3Vh+SBWymsmMad26dZUsFoDDgU6yAw5i2jhUxWgmvx/eAC4JR9nCcJeQUEnKFTl/QW6f8beApMXtQT4ikRquTZgx06xRY6W6fFWRLgT42cbw4pP1wsIHpawDNCTr2LFjVcstrkkCLLHr6kRGwtmsJtkYKOy4ISAUeRzGWLZeaz+JRxPeIsyFVCWmjK6Ga4R6EG00GMBVJw44fBbirkg4smHYaiEcx1SbkXrFlktqudXWRygLyYUkI5yGu4PewPgC+Q41HgwK1tNx4q1Uh7eYEYcZCZfCMrHtkXtGmjxzGeKJ3DSAxw/bIscAKvIA4+ehUsdLPJfUd7I9+H88GcClsDBR+AqllGR70LCaLBAsXbZKAvJINdK62Hpx2BKqImyFVLQbU2QAFwX0hOgZDeBCtBhRuBUDuCiscoie0QAuRIsRhVsxgIvCKofoGQ3gQrQYUbgVA7gorHKIntEALkSLEYVbMYCLwiqH6BkN4EK0GFG4FQO4KKxyiJ7RAC5EixGFW6GAhhRzv+aDhYVnJlskLCsRkfswgIvIQoflMQ3gwrISEbkPA7iILHRYHtMALiwrEZH7MICLyEKH5TEN4MKyEhG5DwO4kC00hTazZs1S5YMMM6H+wa/BwmF4VAO4MKxC3D20aNFCtXegLpUuSrR4YDAdMyaqAxnAhWgVmeTM0BTqVykzhBgXRU+RTOt0acVWA7gQAY6hJXS4RLpp6tatm+qYRJF0dSADuJCuIl0waRjNgJXS0lLV/7c6kAFcSFeRQcYMGEGHYyzo8OHDQ3qn7m7LAM4dvwI9msG6VOu3b98+dh22WFqH+TUqKdAHcHByAzgHTErXIbTrot0r/Uj0KKjp06fL0KFD1eDj6kAGcCFaRdp1NW7cWE3epjccTatp5cVkaSY0VgcygAvZKtJpiUHCjHpv0KCBmt0QVBPEqnh0A7iq4HqEr2kAF+HFr4pHN4CrCq5H+JoGcBFe/Kp4dAO4quB6hK9pABfhxa+KRzeAc8h12tpbOV+zs7Olbdu2ymfGdGa6nScOElm8eLHww/A4ev0uWbJE9QQmG4S4qe6Mnux2yIcjnmpFDBFZuHChGgCXjOgrzCyxadOmybp168odUqtWLTVIrlWrVg454e0wAziH/GP8EOMlmc+QSHQiJxzVpk0blTg5YcIE6devX+wwHLpMH6STOcF4hrONHDlSGEc5f/58FSvF/wYxqbC4uFh69eoV+z7OYJzA0Pr16xWwevfuHfscwBKNYFQTxdOJxH0x84FphJs3b5asrKzYIbTxpyk2EY5BgwY55EbqhxnAOeQdgGOhhg0bZvkNFpbkSab+ASRNgKhdu3ZC+lEywMWfkKFy5L4VFRUlvQ7nBVzMi4gn/gag9bjLZF8GcAz2HTFiRLmPAXBubq6aIRE0GcA55LBTwHXq1ElJLILtevYCEojoAT9hBByJn2zbtPoPmgzgHHIYwJGF27179wrfQD9iFgMSrn///mrQL3Pr0ddYREJUU6dOVVNmggQcOmKyUeps9zVr1lRbaqKEQ6rl5+cLI9CZjB00GcA55DCAQ+Fu2LBhhW8wkhxppgG3YcMGNSgEicasrpycHCkrK5MaNWoECjim4zAJJ5HYZnlZABzjlhKJZIFFixalpW7CAM4F4JzocEg4CmEwErZs2SIkUiJ5UMyDBlwqOlxJSYlgZQPUeL3TIVtcH2YA55BlTnU4AJeXl6cMDFptMUcLCYPbIYyA4/ELCgqUhYt1HDQZwDnksFvAYSgUFhYqHQ5XBhRWwFEHO2DAANm0aZNDbqR+mAGcQ94BuAULFiQ9Gp/ZlClTYjocEg4nMXlsjLjUroqgATd69Oik94fvEKPAyi2CCwb9k6HEXmfA2rHTAM6OQ+ZzXzlgAOcrO83J7DhgAGfHIfO5rxwwgPOVneZkdhwwgLPjkPncVw4YwPnKTnMyOw78FydqKg5HvfYQAAAAAElFTkSuQmCC;" vertex="1" parent="1">
          <mxGeometry x="250" y="210" width="156" height="161" as="geometry" />
        </mxCell>
        <mxCell id="HsP99W9kWxpz9ayobVGK-4" value="GPIO 7" style="text;html=1;align=center;verticalAlign=middle;whiteSpace=wrap;rounded=0;" vertex="1" parent="1">
          <mxGeometry x="150" y="270" width="60" height="30" as="geometry" />
        </mxCell>
        <mxCell id="HsP99W9kWxpz9ayobVGK-5" value="3.3V (Pin 1)" style="text;html=1;align=center;verticalAlign=middle;resizable=0;points=[];autosize=1;strokeColor=none;fillColor=none;" vertex="1" parent="1">
          <mxGeometry x="292.5" y="160" width="90" height="30" as="geometry" />
        </mxCell>
        <mxCell id="HsP99W9kWxpz9ayobVGK-6" value="" style="shape=image;verticalLabelPosition=bottom;labelBackgroundColor=default;verticalAlign=top;aspect=fixed;imageAspect=0;image=data:image/png,iVBORw0KGgoAAAANSUhEUgAAAJwAAAChCAYAAAAyXNY+AAAZF0lEQVR4Xu2dCZxV8/vHn362UMoaIRKRLbRpJGOiKGXK0lRKZJdESBGlZiJUttdYEiXSRqLFljZKkyEUYSZSmCyRff3/vL//3/e+7ty5Z84595xz59w53+f1mtfU3HPP8nw/5/k++1Pj//4lMWQ4kCYO1DCASxOnzWUUBwzgDBDSygEDuLSy21zMAM5gIK0cMIBLK7vNxQzgDAbSyoHIAe7rr7+WoUOHyrRp02SfffaRa6+9Vi699NIKTF+wYIGMGDFC1qxZI82aNZP8/HzJysqKHffuu+9KmzZtZOvWrUkXrHnz5jJ69Gg59dRTK3z+wgsvSM+ePS2/t3Dhwthn69evl8GDBwv306BBA7npppukR48e6vPs7GwpLi62BMymTZukdu3a6vPbb79dHnjgAfnhhx8kNzdX7rjjDvX8mvr27SvPPPNMuXPVq1dPhg8fLr169fINlJECHAAaNWqU+unTp4+wIJdddpls2bJFANDOO+8sP/30kxxxxBHy448/ylNPPSVNmzaV5cuXy9lnny05OTny0ksvyX/+8x9555135NhjjxUrN2aTJk1k7Nixcvrpp1dYrNmzZ6vrr1u3rsJn2223neyxxx7q7/3795dJkybJXXfdJV26dFHHc7+1atWSVatWyTfffCN//vmnOnbu3Lly/fXXy9q1a2Pn3HvvvaW0tFTdZ+vWrWX8+PFSt25deeihh9QLVFhYKBdddJE6Pi8vTwH6mmuuiX3/rbfeUmA76aSTZM6cOb6ALjKA27x5s+y3334KPEgsTX/88YecccYZcvTRR6uFLSgoUIv83nvvyfbbbx877tdff5Xdd99dHn74YTnvvPM8A+78889X0saKWOxWrVrJRx99JAcddFC5+wBAAwYMkCuuuCL291mzZskll1wi3377bblTHnLIIXLhhRcqKcmLoonzA8LVq1cLLweA40UbNmxYue/zUnL93377TWrUqOEZdJEBHNsmEoGFSaSvvvpKfv75Z6lfv77UqVNH5s2bJ6ecckqF45B4SASkIBLRi4SzAxwSrVGjRjJu3LgK97Fx40bhRYkHYjLA8Vw8E2oEL0sisbUCyDvvvNMScPBs3333NYBz+6ohLbp166bedCtCX2IRrbbJv/76S9jyfvnlF7W9eQEcW3S8TqjvafLkyXLggQeqc7O9sfU6oWSAmzJlivTu3dvyeW6++WbhmZ988skKgPv777/Vto2+iCoxYcIEJ7dhe0xkJFzLli3lrLPOqhRwbF+HHnqo5QLBTbYVPwCHbjRz5swKC3TiiScqHe2YY45RBo0XwD344INy+eWXWz7PrbfeKp988kkMcBhSibTtttvKxx9/rF4CPygygEOisK2gMCfSxIkT5fHHHxesR7ZUpFfjxo0rHIf12K5dO7WdYb16kXB2WyrWbdu2bSvoVNwUFuerr74qL7/8cuwek0k4/QKhLuy0004VngddFHADzGQ6HNvp4YcfrnTfyqxhN0CMDOCKioqUtcUiwMB4wr3B9jZmzBg599xzleX37LPPVuAjIOzYsaOy9rxaqXaAmzp1qlx99dVKuvASaEJ5x8C56qqr1I8mK6MBixcjqFOnTuWe54svvpDDDjtMZsyYIR06dLDU4QYNGqSsWaS6HxQZwMEsdLiSkhK5++67lVHw2WefCdvKm2++KStXrlQ+K/6G1cZWhr8OVwHbzpAhQ9RxSL8dd9wxcMBxv0g4pOm9994rqASAD70OI2Dp0qXlrGgrwAE2XClY4BdccIGSdEhqXC68ZFo3s7JS8c2x/WOl+0GRApxevMcee0z5q9hizznnHAU6fFaaPv30U/U3fG5Yevvvv7/yp7Fo2pGqJVyyReD7p512mnz44YcVPsZF0blzZ+natavl+mmjBamCgxalnhcFRy3AwBm7yy67lPu+FeA4CKcxL9myZcuUtXnkkUcKEnbgwIGCjgZV5hY54IADpKysLKml6xaEkQKcW+aY4/3ngAGc/zw1Z6yEAwZwBh5p5YABXFrZbS5mAGcwkFYOGMClld3mYgZwBgNp5YABXMDs/v3331XUguRH/GgkUJJj54ZIGrjyyivlqKOOUg7bTCYDuABXDwcuCQPEXcmjI0pBOIogOalBTokMFxy3hLr4nclkABfg6n3wwQcqwE8oSkcoSBAg2kBCqBMiSH/xxRerFCFiqgZwTrgW0WMIjSGd3n777RgHiMeSYQwI7Yg094MPPlgWL16swmoGcHYci/jnbKn86NRuAuDEZUkcePrpp225g1QjrYpUcjKNDeBsWWYO0BwgK4NgOYFw0tO32WabSplDdgrBf4LyANYAzmDJEQc2bNggLVq0kN12202V4ZFRHF/MYnUScvdWrFgRAyaZLmQbk3lLmlKmkjEaAlw5KqiokUD/ou6TeginRBoRdQWacIuQkkS2b7LsXafnrerjDOACXAGKWAAKVmk8Uf9Kbew///yjcswoxbMDkdlSA1yo6nLqJUuWCPWfiUTGMFm4GBQ1a9ZU9an8roxefPFFlWlMFnAmk5FwVbh6AI4aiunTp/tSZFyFj+L40gZwjlllDvSDAwZwfnDRnMMxBwzgHLPKHOgHBwzg/OCiOYdjDhjAOWZVcAfi8sBVcs899wR3kZCc2QAuBAuBL46ct8rad4XgNn25BQM4X9jo7SQGcN74Z77tkgMGcC4ZZg73xgEDOG/8M992yQEDOJcMM4d744ABnDf+mW+75IABnEuGmcO9ccAAzhv/zLddcsAAziXDzOH/zwGKZOigSQkgjQz5PynhtD1lBoIVGcAZBNlygFkNTzzxhApHff7556ovMCnhZPFaESnmdJykkTNzI0aOHKkONYCzZXc0D6BOlFYNDAhhXJIGF9KL0j86nPNvMnMplKHoBRDyQ9U9vXXJ3I3PAqZOAfACQhPaiiauKjz1d999J+3bt1eNpAEPgfb7779fmKlAb2DqEdyMBaKNPYAFgIwaorILYvulDwkzGqormVhqJStLa/kzzzxTVc4DNBrJUJRMNbybCiw78FBCCAhJOWdrpj0/LSEYS1TdyAAuyYoCLsYC0a4exZ8GNEzqS5zv4BcYtA7HDAmGdDD2kuwR2vwzsMSuosuv+0jHeQzgErjMTAYmtNAD5IQTTlAAoM18kJRoNGDpMhmQ3iRss88995waBlIdyAAubhVZYIZgYBwwYY9SPj+3TrduEYwT7gFphzVMF6VMJwO4/60gvT8YhMaoRgZxIN3SRZW5RZj2hx7J/FYGDN9yyy3puq1ArmMA9y9bkWaMOcIYYGoLDWfSSXZ+OD02fNGiRXLDDTeo6TSZSpEHHO0YaMXA1Dym8+25555pX0s7wHFD9BrhPhn6xugjRjNlIkUacOhsNAfE/fDaa6/JXnvtlfY1JErBVD+cyHYD1AAdM7xoUEjP4PgR5Gm/8RQvGFnA4WM77rjj1EQ+FrBhw4aOWYjTFkuW0BY+tFSIwW1IKlqoAjaGreECsSO21+zsbNWya/ny5arRdCZRJAGH1ccA3DfeeENto24bxNDnjWbRq1evdu2uAGgAlTGUSDTAw9DgZAOBrYBE72BGqu+6666qaSGhtEyhSAJu3Lhxarx3qrpQKoAjgkAoq1+/foJ0JeZKr7fEwblOgfP8889Lly5dlBsHPTRTKHKAY6w2XSjR15BQbKluyQ3g2C4JjV133XWClUnsFfeLH+4NZriih+I6YZBwJlDkAEeTZgLkSBvamqZCTgG3ceNGBSwGAhPwZyLzfffdl8olk36HQcC8PPXr11egywSKFODYyggVMQUa526qZAe4rVu3KmPgtttuU/lvSCK6lgcRE6WdK3He4uJiNRMi7BQpwPXo0UNNgSHNyEts0gpw6GkYBLgr+Dcx2JkzZwaa9cG8ByQcVjbB/7BTYIDDCmMmAcp5GIgMEPS2Nm3aqGC4F0oEHOcuKipSPj1y53AeA2ws0HQQ+iGGEBbwDjvskI5LpnwN3wHHG0egOT8/X20rYQHcxIkTlYVI6KpDhw4pM4wvasAhKYm9kunL7AUMkDFjxqiZWOkkVAXug0B/YWFhOi/t+lq+Ay4+8zVMgGMLLS0tlbKyMqXAeyENODJzAR3Up08fNcCtKiQMEhYHNL9JVw8z+Q44/bBNmjRR6TRhkXAo7Eg4P6xELS15VrJK5syZk3LEwS9wkLeH7lhZEY9f1/JynkgAjm0US/GVV15R259XmjFjhuo+zqS/k08+2VU9g9drW31fb6tELUjeDCtFAnC4QbAWCZT7kSZu5xapisXGYEBVwAFMxnBYKRKAQ38rKSlRmbxO5lzZLVYYAcc9M3GacUtMoXZTRWb3vH5+HgnA4ezlh9CSHxRWwJFxQlwVwOFwDiNFAnBsNcy8wmXhB4UVcKQ3kaQJ4NJRi5EKLwMDHEFlvN9hqK2E+ZT8ETT3g8IKOCINxFbJ16tbt64fj+r7OQIDnO936uGE6DNUQBHa8oPCCjga6KDHEdRPd12GU75mFOByc3M9h6WcMsbJcdSutmzZ0smhaTkGyYYDmAxmt0mlabnBfy+SUYCbN2+eagbjhpikjFOUOCfDcv0gLN65c+eGLkNDA44wW1hTzzMKcKmChfnygM6vQuKwbqmkmxPhwQ8X1oTMSACO+CZdiugX4geFFXBspWSoYKWmksnsB2/szhEJwKHXkCFCTacfFFbAkaJEqlLG+eHQkyZPnlxubcht6969e9Ks0gEDBkidOnViHR3jv0g4iYXW9QM5OTnqPPoNJGOVnP9k1LlzZ8nLy/OMESrqIRrV+EEacICYrRqnchiIXL8VK1YowKFGhJGSSjiYSEUR6UUQfcvwqz366KMqHkmGqSYsNUBE6R06RHx9J36h5s2bK4Wdsjp639LIj8wNEhYh+mbgJ0vmssCH5yUzV9/j8ccfr7ohEdqi06RX0oAjTEZ2xiOPPKKqp5KV61G8bDfP3uv98H3uA5DBy4wLbQE4EvmQSvFEe1AkH+4JTUghnI3k1JM5ga6kiXQZfEMskCbytWrXrq0SFrGkAFzTpk1V/n9QpMsCefup5/RKGnBYqjfeeKNqNEM6Ob6+eOsQsFFnwPNR0xAkUSCNs5fWr9TahpUsJVwi4JBgPNDSpUtj2yp5+6Rtk6bz/vvvq34XbFtanJMLRwuF+fPnq/I4TYCWhUgX4MikAOTjx49XzQW9UqIOV1BQIPzQxZJs31GjRilJSjsGumZCAA5VIiiibzC7CdVovPhhJUvAUd5GMBhiS6WdFQ1fli1bFsu4IJWcrffLL79UxyEByRXTKdyUyfHG0ZaAba1nz57SsWNHlSKkY31IOLJw6ZebSEhLzukHcU2876+//rrn0yUzGuABOXKcHyMFPvCsSDkIwJOz5seWnuwBGPLLi4zfMcxkCTjeUjp2a6ItAso/eWV6SwWAJPuRSQvx0Eg3tpZ4YhuFGdRnrl27VqXOsNXCfACHzsHvRCJt22s6uD4nLwF6KHql1/huZVYqNa99+/YVSgUTqVmzZrJq1Srf8aC3U3YR/fL7fhGfTuh4S+V6mtFsr0gvDIREhZh+GRgHVC7RQI95BPHbKeDCquNz9Lh06HDcO3oWuhRWsde0dzu3CC+V1SAQ9GN44ifR1CYrK8uXAiE/7yvZuVwBTj8Y2wRZtORcxRsEXABGU2GOPwgLE50p0cOPtEPXIRSTLsBxb7hHkABIXC8JinaAo18IYbhkhCrBS+mX24KXH4OF7TqZVA0aQG7P7wpwSDR8PRT7YizQUCXR6hs4cKDS89g6KDYhDw0LlpALhD5HPzS84pwrnYCjqgrpMmnSJFVllSpVBjiMJNxElRGjkCin9IPWrFmjAEceHG6rsJMl4ABK/HaJRYqVBYiwhGiMxxuFMhxPOHHpu4YLgkwKlGect/pcGCAAFWMCAnBYsckSBvHdJTqgvTCUa/PSoPMgXVOlygCHpRg/acbqGuh56LReCOkGr+kr8v333/smNb3ck913kwIOS0dbV/oEbAFagWdLAIDJLEgWFQcrANPRBBiDawLC6Ruf/szf+TwZcZzf/Ti0lCOuqmdd2TEp8XMrwJFFoqMadudkS6eSjAEgqW7vdBDAgMO4w8jLBIpELDV+IfDI0zVp5cqVymjBae2WKpNw6FK8sHrQm561xW/cP1wfgwvphgulXr16KtUJC9YN0XYMac1LT/THj+IgN9dP9djIAQ5GMdsKnxxgIxznluyMBifnYyfAYY5qAhhRH9AtnbqBunbtqlQTJCTnyBSKJOBYHJzWGDj4ESkedkN+AE5fD4uZWguqrXAVUeiDflcZcb/0EcHSJ3qSSRRZwLFIujkhYanBgwc7Xjc/AacvistJd1/C2Jo9e7aqT0gkHMu4pOhrgmEW1nJAK2ZGGnBIF8JPLBzWsNNUqCAAxwJh9ZPEQJYOmSc6C0UvHtEemmEz1wEdNN6h7vhtqeIDIw04eI8/jDjvpk2bVKMbJ2nodBEnrOdHmCzZ+tORiSY5vAy4lSB8m7iQACK+Pq/huarCXeQBB+MBG4o3ISncC0OGDLFdD1oqIGmCIvQ5DAPcOMSmceziMMYV4taiDeoeUzmvAdz/uIabgWwPpAcWIz2Aq6LXm15EAEeuIbMYKOImOoNe16hRo1TWOTTfMYCLWwqc3Vh+SBWymsmMad26dZUsFoDDgU6yAw5i2jhUxWgmvx/eAC4JR9nCcJeQUEnKFTl/QW6f8beApMXtQT4ikRquTZgx06xRY6W6fFWRLgT42cbw4pP1wsIHpawDNCTr2LFjVcstrkkCLLHr6kRGwtmsJtkYKOy4ISAUeRzGWLZeaz+JRxPeIsyFVCWmjK6Ga4R6EG00GMBVJw44fBbirkg4smHYaiEcx1SbkXrFlktqudXWRygLyYUkI5yGu4PewPgC+Q41HgwK1tNx4q1Uh7eYEYcZCZfCMrHtkXtGmjxzGeKJ3DSAxw/bIscAKvIA4+ehUsdLPJfUd7I9+H88GcClsDBR+AqllGR70LCaLBAsXbZKAvJINdK62Hpx2BKqImyFVLQbU2QAFwX0hOgZDeBCtBhRuBUDuCiscoie0QAuRIsRhVsxgIvCKofoGQ3gQrQYUbgVA7gorHKIntEALkSLEYVbMYCLwiqH6BkN4EK0GFG4FQO4KKxyiJ7RAC5EixGFW6GAhhRzv+aDhYVnJlskLCsRkfswgIvIQoflMQ3gwrISEbkPA7iILHRYHtMALiwrEZH7MICLyEKH5TEN4MKyEhG5DwO4kC00hTazZs1S5YMMM6H+wa/BwmF4VAO4MKxC3D20aNFCtXegLpUuSrR4YDAdMyaqAxnAhWgVmeTM0BTqVykzhBgXRU+RTOt0acVWA7gQAY6hJXS4RLpp6tatm+qYRJF0dSADuJCuIl0waRjNgJXS0lLV/7c6kAFcSFeRQcYMGEGHYyzo8OHDQ3qn7m7LAM4dvwI9msG6VOu3b98+dh22WFqH+TUqKdAHcHByAzgHTErXIbTrot0r/Uj0KKjp06fL0KFD1eDj6kAGcCFaRdp1NW7cWE3epjccTatp5cVkaSY0VgcygAvZKtJpiUHCjHpv0KCBmt0QVBPEqnh0A7iq4HqEr2kAF+HFr4pHN4CrCq5H+JoGcBFe/Kp4dAO4quB6hK9pABfhxa+KRzeAc8h12tpbOV+zs7Olbdu2ymfGdGa6nScOElm8eLHww/A4ev0uWbJE9QQmG4S4qe6Mnux2yIcjnmpFDBFZuHChGgCXjOgrzCyxadOmybp168odUqtWLTVIrlWrVg454e0wAziH/GP8EOMlmc+QSHQiJxzVpk0blTg5YcIE6devX+wwHLpMH6STOcF4hrONHDlSGEc5f/58FSvF/wYxqbC4uFh69eoV+z7OYJzA0Pr16xWwevfuHfscwBKNYFQTxdOJxH0x84FphJs3b5asrKzYIbTxpyk2EY5BgwY55EbqhxnAOeQdgGOhhg0bZvkNFpbkSab+ASRNgKhdu3ZC+lEywMWfkKFy5L4VFRUlvQ7nBVzMi4gn/gag9bjLZF8GcAz2HTFiRLmPAXBubq6aIRE0GcA55LBTwHXq1ElJLILtevYCEojoAT9hBByJn2zbtPoPmgzgHHIYwJGF27179wrfQD9iFgMSrn///mrQL3Pr0ddYREJUU6dOVVNmggQcOmKyUeps9zVr1lRbaqKEQ6rl5+cLI9CZjB00GcA55DCAQ+Fu2LBhhW8wkhxppgG3YcMGNSgEicasrpycHCkrK5MaNWoECjim4zAJJ5HYZnlZABzjlhKJZIFFixalpW7CAM4F4JzocEg4CmEwErZs2SIkUiJ5UMyDBlwqOlxJSYlgZQPUeL3TIVtcH2YA55BlTnU4AJeXl6cMDFptMUcLCYPbIYyA4/ELCgqUhYt1HDQZwDnksFvAYSgUFhYqHQ5XBhRWwFEHO2DAANm0aZNDbqR+mAGcQ94BuAULFiQ9Gp/ZlClTYjocEg4nMXlsjLjUroqgATd69Oik94fvEKPAyi2CCwb9k6HEXmfA2rHTAM6OQ+ZzXzlgAOcrO83J7DhgAGfHIfO5rxwwgPOVneZkdhwwgLPjkPncVw4YwPnKTnMyOw78FydqKg5HvfYQAAAAAElFTkSuQmCC;" vertex="1" parent="1">
          <mxGeometry x="520" y="210" width="156" height="161" as="geometry" />
        </mxCell>
        <mxCell id="HsP99W9kWxpz9ayobVGK-7" value="GPIO 8" style="text;html=1;align=center;verticalAlign=middle;whiteSpace=wrap;rounded=0;" vertex="1" parent="1">
          <mxGeometry x="420" y="270" width="60" height="30" as="geometry" />
        </mxCell>
        <mxCell id="HsP99W9kWxpz9ayobVGK-8" value="3.3V (Pin 1)" style="text;html=1;align=center;verticalAlign=middle;resizable=0;points=[];autosize=1;strokeColor=none;fillColor=none;" vertex="1" parent="1">
          <mxGeometry x="562.5" y="160" width="90" height="30" as="geometry" />
        </mxCell>
        <mxCell id="HsP99W9kWxpz9ayobVGK-9" value="" style="shape=image;verticalLabelPosition=bottom;labelBackgroundColor=default;verticalAlign=top;aspect=fixed;imageAspect=0;image=data:image/png,iVBORw0KGgoAAAANSUhEUgAAAJwAAAChCAYAAAAyXNY+AAAZF0lEQVR4Xu2dCZxV8/vHn362UMoaIRKRLbRpJGOiKGXK0lRKZJdESBGlZiJUttdYEiXSRqLFljZKkyEUYSZSmCyRff3/vL//3/e+7ty5Z84595xz59w53+f1mtfU3HPP8nw/5/k++1Pj//4lMWQ4kCYO1DCASxOnzWUUBwzgDBDSygEDuLSy21zMAM5gIK0cMIBLK7vNxQzgDAbSyoHIAe7rr7+WoUOHyrRp02SfffaRa6+9Vi699NIKTF+wYIGMGDFC1qxZI82aNZP8/HzJysqKHffuu+9KmzZtZOvWrUkXrHnz5jJ69Gg59dRTK3z+wgsvSM+ePS2/t3Dhwthn69evl8GDBwv306BBA7npppukR48e6vPs7GwpLi62BMymTZukdu3a6vPbb79dHnjgAfnhhx8kNzdX7rjjDvX8mvr27SvPPPNMuXPVq1dPhg8fLr169fINlJECHAAaNWqU+unTp4+wIJdddpls2bJFANDOO+8sP/30kxxxxBHy448/ylNPPSVNmzaV5cuXy9lnny05OTny0ksvyX/+8x9555135NhjjxUrN2aTJk1k7Nixcvrpp1dYrNmzZ6vrr1u3rsJn2223neyxxx7q7/3795dJkybJXXfdJV26dFHHc7+1atWSVatWyTfffCN//vmnOnbu3Lly/fXXy9q1a2Pn3HvvvaW0tFTdZ+vWrWX8+PFSt25deeihh9QLVFhYKBdddJE6Pi8vTwH6mmuuiX3/rbfeUmA76aSTZM6cOb6ALjKA27x5s+y3334KPEgsTX/88YecccYZcvTRR6uFLSgoUIv83nvvyfbbbx877tdff5Xdd99dHn74YTnvvPM8A+78889X0saKWOxWrVrJRx99JAcddFC5+wBAAwYMkCuuuCL291mzZskll1wi3377bblTHnLIIXLhhRcqKcmLoonzA8LVq1cLLweA40UbNmxYue/zUnL93377TWrUqOEZdJEBHNsmEoGFSaSvvvpKfv75Z6lfv77UqVNH5s2bJ6ecckqF45B4SASkIBLRi4SzAxwSrVGjRjJu3LgK97Fx40bhRYkHYjLA8Vw8E2oEL0sisbUCyDvvvNMScPBs3333NYBz+6ohLbp166bedCtCX2IRrbbJv/76S9jyfvnlF7W9eQEcW3S8TqjvafLkyXLggQeqc7O9sfU6oWSAmzJlivTu3dvyeW6++WbhmZ988skKgPv777/Vto2+iCoxYcIEJ7dhe0xkJFzLli3lrLPOqhRwbF+HHnqo5QLBTbYVPwCHbjRz5swKC3TiiScqHe2YY45RBo0XwD344INy+eWXWz7PrbfeKp988kkMcBhSibTtttvKxx9/rF4CPygygEOisK2gMCfSxIkT5fHHHxesR7ZUpFfjxo0rHIf12K5dO7WdYb16kXB2WyrWbdu2bSvoVNwUFuerr74qL7/8cuwek0k4/QKhLuy0004VngddFHADzGQ6HNvp4YcfrnTfyqxhN0CMDOCKioqUtcUiwMB4wr3B9jZmzBg599xzleX37LPPVuAjIOzYsaOy9rxaqXaAmzp1qlx99dVKuvASaEJ5x8C56qqr1I8mK6MBixcjqFOnTuWe54svvpDDDjtMZsyYIR06dLDU4QYNGqSsWaS6HxQZwMEsdLiSkhK5++67lVHw2WefCdvKm2++KStXrlQ+K/6G1cZWhr8OVwHbzpAhQ9RxSL8dd9wxcMBxv0g4pOm9994rqASAD70OI2Dp0qXlrGgrwAE2XClY4BdccIGSdEhqXC68ZFo3s7JS8c2x/WOl+0GRApxevMcee0z5q9hizznnHAU6fFaaPv30U/U3fG5Yevvvv7/yp7Fo2pGqJVyyReD7p512mnz44YcVPsZF0blzZ+natavl+mmjBamCgxalnhcFRy3AwBm7yy67lPu+FeA4CKcxL9myZcuUtXnkkUcKEnbgwIGCjgZV5hY54IADpKysLKml6xaEkQKcW+aY4/3ngAGc/zw1Z6yEAwZwBh5p5YABXFrZbS5mAGcwkFYOGMClld3mYgZwBgNp5YABXMDs/v3331XUguRH/GgkUJJj54ZIGrjyyivlqKOOUg7bTCYDuABXDwcuCQPEXcmjI0pBOIogOalBTokMFxy3hLr4nclkABfg6n3wwQcqwE8oSkcoSBAg2kBCqBMiSH/xxRerFCFiqgZwTrgW0WMIjSGd3n777RgHiMeSYQwI7Yg094MPPlgWL16swmoGcHYci/jnbKn86NRuAuDEZUkcePrpp225g1QjrYpUcjKNDeBsWWYO0BwgK4NgOYFw0tO32WabSplDdgrBf4LyANYAzmDJEQc2bNggLVq0kN12202V4ZFRHF/MYnUScvdWrFgRAyaZLmQbk3lLmlKmkjEaAlw5KqiokUD/ou6TeginRBoRdQWacIuQkkS2b7LsXafnrerjDOACXAGKWAAKVmk8Uf9Kbew///yjcswoxbMDkdlSA1yo6nLqJUuWCPWfiUTGMFm4GBQ1a9ZU9an8roxefPFFlWlMFnAmk5FwVbh6AI4aiunTp/tSZFyFj+L40gZwjlllDvSDAwZwfnDRnMMxBwzgHLPKHOgHBwzg/OCiOYdjDhjAOWZVcAfi8sBVcs899wR3kZCc2QAuBAuBL46ct8rad4XgNn25BQM4X9jo7SQGcN74Z77tkgMGcC4ZZg73xgEDOG/8M992yQEDOJcMM4d744ABnDf+mW+75IABnEuGmcO9ccAAzhv/zLddcsAAziXDzOH/zwGKZOigSQkgjQz5PynhtD1lBoIVGcAZBNlygFkNTzzxhApHff7556ovMCnhZPFaESnmdJykkTNzI0aOHKkONYCzZXc0D6BOlFYNDAhhXJIGF9KL0j86nPNvMnMplKHoBRDyQ9U9vXXJ3I3PAqZOAfACQhPaiiauKjz1d999J+3bt1eNpAEPgfb7779fmKlAb2DqEdyMBaKNPYAFgIwaorILYvulDwkzGqormVhqJStLa/kzzzxTVc4DNBrJUJRMNbybCiw78FBCCAhJOWdrpj0/LSEYS1TdyAAuyYoCLsYC0a4exZ8GNEzqS5zv4BcYtA7HDAmGdDD2kuwR2vwzsMSuosuv+0jHeQzgErjMTAYmtNAD5IQTTlAAoM18kJRoNGDpMhmQ3iRss88995waBlIdyAAubhVZYIZgYBwwYY9SPj+3TrduEYwT7gFphzVMF6VMJwO4/60gvT8YhMaoRgZxIN3SRZW5RZj2hx7J/FYGDN9yyy3puq1ArmMA9y9bkWaMOcIYYGoLDWfSSXZ+OD02fNGiRXLDDTeo6TSZSpEHHO0YaMXA1Dym8+25555pX0s7wHFD9BrhPhn6xugjRjNlIkUacOhsNAfE/fDaa6/JXnvtlfY1JErBVD+cyHYD1AAdM7xoUEjP4PgR5Gm/8RQvGFnA4WM77rjj1EQ+FrBhw4aOWYjTFkuW0BY+tFSIwW1IKlqoAjaGreECsSO21+zsbNWya/ny5arRdCZRJAGH1ccA3DfeeENto24bxNDnjWbRq1evdu2uAGgAlTGUSDTAw9DgZAOBrYBE72BGqu+6666qaSGhtEyhSAJu3Lhxarx3qrpQKoAjgkAoq1+/foJ0JeZKr7fEwblOgfP8889Lly5dlBsHPTRTKHKAY6w2XSjR15BQbKluyQ3g2C4JjV133XWClUnsFfeLH+4NZriih+I6YZBwJlDkAEeTZgLkSBvamqZCTgG3ceNGBSwGAhPwZyLzfffdl8olk36HQcC8PPXr11egywSKFODYyggVMQUa526qZAe4rVu3KmPgtttuU/lvSCK6lgcRE6WdK3He4uJiNRMi7BQpwPXo0UNNgSHNyEts0gpw6GkYBLgr+Dcx2JkzZwaa9cG8ByQcVjbB/7BTYIDDCmMmAcp5GIgMEPS2Nm3aqGC4F0oEHOcuKipSPj1y53AeA2ws0HQQ+iGGEBbwDjvskI5LpnwN3wHHG0egOT8/X20rYQHcxIkTlYVI6KpDhw4pM4wvasAhKYm9kunL7AUMkDFjxqiZWOkkVAXug0B/YWFhOi/t+lq+Ay4+8zVMgGMLLS0tlbKyMqXAeyENODJzAR3Up08fNcCtKiQMEhYHNL9JVw8z+Q44/bBNmjRR6TRhkXAo7Eg4P6xELS15VrJK5syZk3LEwS9wkLeH7lhZEY9f1/JynkgAjm0US/GVV15R259XmjFjhuo+zqS/k08+2VU9g9drW31fb6tELUjeDCtFAnC4QbAWCZT7kSZu5xapisXGYEBVwAFMxnBYKRKAQ38rKSlRmbxO5lzZLVYYAcc9M3GacUtMoXZTRWb3vH5+HgnA4ezlh9CSHxRWwJFxQlwVwOFwDiNFAnBsNcy8wmXhB4UVcKQ3kaQJ4NJRi5EKLwMDHEFlvN9hqK2E+ZT8ETT3g8IKOCINxFbJ16tbt64fj+r7OQIDnO936uGE6DNUQBHa8oPCCjga6KDHEdRPd12GU75mFOByc3M9h6WcMsbJcdSutmzZ0smhaTkGyYYDmAxmt0mlabnBfy+SUYCbN2+eagbjhpikjFOUOCfDcv0gLN65c+eGLkNDA44wW1hTzzMKcKmChfnygM6vQuKwbqmkmxPhwQ8X1oTMSACO+CZdiugX4geFFXBspWSoYKWmksnsB2/szhEJwKHXkCFCTacfFFbAkaJEqlLG+eHQkyZPnlxubcht6969e9Ks0gEDBkidOnViHR3jv0g4iYXW9QM5OTnqPPoNJGOVnP9k1LlzZ8nLy/OMESrqIRrV+EEacICYrRqnchiIXL8VK1YowKFGhJGSSjiYSEUR6UUQfcvwqz366KMqHkmGqSYsNUBE6R06RHx9J36h5s2bK4Wdsjp639LIj8wNEhYh+mbgJ0vmssCH5yUzV9/j8ccfr7ohEdqi06RX0oAjTEZ2xiOPPKKqp5KV61G8bDfP3uv98H3uA5DBy4wLbQE4EvmQSvFEe1AkH+4JTUghnI3k1JM5ga6kiXQZfEMskCbytWrXrq0SFrGkAFzTpk1V/n9QpMsCefup5/RKGnBYqjfeeKNqNEM6Ob6+eOsQsFFnwPNR0xAkUSCNs5fWr9TahpUsJVwi4JBgPNDSpUtj2yp5+6Rtk6bz/vvvq34XbFtanJMLRwuF+fPnq/I4TYCWhUgX4MikAOTjx49XzQW9UqIOV1BQIPzQxZJs31GjRilJSjsGumZCAA5VIiiibzC7CdVovPhhJUvAUd5GMBhiS6WdFQ1fli1bFsu4IJWcrffLL79UxyEByRXTKdyUyfHG0ZaAba1nz57SsWNHlSKkY31IOLJw6ZebSEhLzukHcU2876+//rrn0yUzGuABOXKcHyMFPvCsSDkIwJOz5seWnuwBGPLLi4zfMcxkCTjeUjp2a6ItAso/eWV6SwWAJPuRSQvx0Eg3tpZ4YhuFGdRnrl27VqXOsNXCfACHzsHvRCJt22s6uD4nLwF6KHql1/huZVYqNa99+/YVSgUTqVmzZrJq1Srf8aC3U3YR/fL7fhGfTuh4S+V6mtFsr0gvDIREhZh+GRgHVC7RQI95BPHbKeDCquNz9Lh06HDcO3oWuhRWsde0dzu3CC+V1SAQ9GN44ifR1CYrK8uXAiE/7yvZuVwBTj8Y2wRZtORcxRsEXABGU2GOPwgLE50p0cOPtEPXIRSTLsBxb7hHkABIXC8JinaAo18IYbhkhCrBS+mX24KXH4OF7TqZVA0aQG7P7wpwSDR8PRT7YizQUCXR6hs4cKDS89g6KDYhDw0LlpALhD5HPzS84pwrnYCjqgrpMmnSJFVllSpVBjiMJNxElRGjkCin9IPWrFmjAEceHG6rsJMl4ABK/HaJRYqVBYiwhGiMxxuFMhxPOHHpu4YLgkwKlGect/pcGCAAFWMCAnBYsckSBvHdJTqgvTCUa/PSoPMgXVOlygCHpRg/acbqGuh56LReCOkGr+kr8v333/smNb3ck913kwIOS0dbV/oEbAFagWdLAIDJLEgWFQcrANPRBBiDawLC6Ruf/szf+TwZcZzf/Ti0lCOuqmdd2TEp8XMrwJFFoqMadudkS6eSjAEgqW7vdBDAgMO4w8jLBIpELDV+IfDI0zVp5cqVymjBae2WKpNw6FK8sHrQm561xW/cP1wfgwvphgulXr16KtUJC9YN0XYMac1LT/THj+IgN9dP9djIAQ5GMdsKnxxgIxznluyMBifnYyfAYY5qAhhRH9AtnbqBunbtqlQTJCTnyBSKJOBYHJzWGDj4ESkedkN+AE5fD4uZWguqrXAVUeiDflcZcb/0EcHSJ3qSSRRZwLFIujkhYanBgwc7Xjc/AacvistJd1/C2Jo9e7aqT0gkHMu4pOhrgmEW1nJAK2ZGGnBIF8JPLBzWsNNUqCAAxwJh9ZPEQJYOmSc6C0UvHtEemmEz1wEdNN6h7vhtqeIDIw04eI8/jDjvpk2bVKMbJ2nodBEnrOdHmCzZ+tORiSY5vAy4lSB8m7iQACK+Pq/huarCXeQBB+MBG4o3ISncC0OGDLFdD1oqIGmCIvQ5DAPcOMSmceziMMYV4taiDeoeUzmvAdz/uIabgWwPpAcWIz2Aq6LXm15EAEeuIbMYKOImOoNe16hRo1TWOTTfMYCLWwqc3Vh+SBWymsmMad26dZUsFoDDgU6yAw5i2jhUxWgmvx/eAC4JR9nCcJeQUEnKFTl/QW6f8beApMXtQT4ikRquTZgx06xRY6W6fFWRLgT42cbw4pP1wsIHpawDNCTr2LFjVcstrkkCLLHr6kRGwtmsJtkYKOy4ISAUeRzGWLZeaz+JRxPeIsyFVCWmjK6Ga4R6EG00GMBVJw44fBbirkg4smHYaiEcx1SbkXrFlktqudXWRygLyYUkI5yGu4PewPgC+Q41HgwK1tNx4q1Uh7eYEYcZCZfCMrHtkXtGmjxzGeKJ3DSAxw/bIscAKvIA4+ehUsdLPJfUd7I9+H88GcClsDBR+AqllGR70LCaLBAsXbZKAvJINdK62Hpx2BKqImyFVLQbU2QAFwX0hOgZDeBCtBhRuBUDuCiscoie0QAuRIsRhVsxgIvCKofoGQ3gQrQYUbgVA7gorHKIntEALkSLEYVbMYCLwiqH6BkN4EK0GFG4FQO4KKxyiJ7RAC5EixGFW6GAhhRzv+aDhYVnJlskLCsRkfswgIvIQoflMQ3gwrISEbkPA7iILHRYHtMALiwrEZH7MICLyEKH5TEN4MKyEhG5DwO4kC00hTazZs1S5YMMM6H+wa/BwmF4VAO4MKxC3D20aNFCtXegLpUuSrR4YDAdMyaqAxnAhWgVmeTM0BTqVykzhBgXRU+RTOt0acVWA7gQAY6hJXS4RLpp6tatm+qYRJF0dSADuJCuIl0waRjNgJXS0lLV/7c6kAFcSFeRQcYMGEGHYyzo8OHDQ3qn7m7LAM4dvwI9msG6VOu3b98+dh22WFqH+TUqKdAHcHByAzgHTErXIbTrot0r/Uj0KKjp06fL0KFD1eDj6kAGcCFaRdp1NW7cWE3epjccTatp5cVkaSY0VgcygAvZKtJpiUHCjHpv0KCBmt0QVBPEqnh0A7iq4HqEr2kAF+HFr4pHN4CrCq5H+JoGcBFe/Kp4dAO4quB6hK9pABfhxa+KRzeAc8h12tpbOV+zs7Olbdu2ymfGdGa6nScOElm8eLHww/A4ev0uWbJE9QQmG4S4qe6Mnux2yIcjnmpFDBFZuHChGgCXjOgrzCyxadOmybp168odUqtWLTVIrlWrVg454e0wAziH/GP8EOMlmc+QSHQiJxzVpk0blTg5YcIE6devX+wwHLpMH6STOcF4hrONHDlSGEc5f/58FSvF/wYxqbC4uFh69eoV+z7OYJzA0Pr16xWwevfuHfscwBKNYFQTxdOJxH0x84FphJs3b5asrKzYIbTxpyk2EY5BgwY55EbqhxnAOeQdgGOhhg0bZvkNFpbkSab+ASRNgKhdu3ZC+lEywMWfkKFy5L4VFRUlvQ7nBVzMi4gn/gag9bjLZF8GcAz2HTFiRLmPAXBubq6aIRE0GcA55LBTwHXq1ElJLILtevYCEojoAT9hBByJn2zbtPoPmgzgHHIYwJGF27179wrfQD9iFgMSrn///mrQL3Pr0ddYREJUU6dOVVNmggQcOmKyUeps9zVr1lRbaqKEQ6rl5+cLI9CZjB00GcA55DCAQ+Fu2LBhhW8wkhxppgG3YcMGNSgEicasrpycHCkrK5MaNWoECjim4zAJJ5HYZnlZABzjlhKJZIFFixalpW7CAM4F4JzocEg4CmEwErZs2SIkUiJ5UMyDBlwqOlxJSYlgZQPUeL3TIVtcH2YA55BlTnU4AJeXl6cMDFptMUcLCYPbIYyA4/ELCgqUhYt1HDQZwDnksFvAYSgUFhYqHQ5XBhRWwFEHO2DAANm0aZNDbqR+mAGcQ94BuAULFiQ9Gp/ZlClTYjocEg4nMXlsjLjUroqgATd69Oik94fvEKPAyi2CCwb9k6HEXmfA2rHTAM6OQ+ZzXzlgAOcrO83J7DhgAGfHIfO5rxwwgPOVneZkdhwwgLPjkPncVw4YwPnKTnMyOw78FydqKg5HvfYQAAAAAElFTkSuQmCC;" vertex="1" parent="1">
          <mxGeometry x="620" y="460" width="156" height="161" as="geometry" />
        </mxCell>
        <mxCell id="HsP99W9kWxpz9ayobVGK-10" value="GPIO 9" style="text;html=1;align=center;verticalAlign=middle;whiteSpace=wrap;rounded=0;" vertex="1" parent="1">
          <mxGeometry x="520" y="520" width="60" height="30" as="geometry" />
        </mxCell>
        <mxCell id="HsP99W9kWxpz9ayobVGK-11" value="3.3V (Pin 1)" style="text;html=1;align=center;verticalAlign=middle;resizable=0;points=[];autosize=1;strokeColor=none;fillColor=none;" vertex="1" parent="1">
          <mxGeometry x="662.5" y="410" width="90" height="30" as="geometry" />
        </mxCell>
        <mxCell id="HsP99W9kWxpz9ayobVGK-12" value="" style="shape=image;verticalLabelPosition=bottom;labelBackgroundColor=default;verticalAlign=top;aspect=fixed;imageAspect=0;image=data:image/png,iVBORw0KGgoAAAANSUhEUgAAAScAAAC7CAYAAAAniVjNAAAgAElEQVR4XuydCZzX0/f/z+xN+16UtFKoiBSFhCyRJSGRlGhB9vbSQlJIhVD2bNkTsi9libKEVLakfd+mZv+f5x2n//1+flMzNTPN5zPzfntkZj6f9/u+7z333td9neWeG5Wenp4pebyio6MlLS1NVqxYIWvWrJHU1FRJSEiQuLg4SU5Odt/t7YqKihL+2ZWZmSn8s89Kly4tGzZsEN7Dv8TERMnIyHDvadiwoVSsWNE9yjMpKSnuvdznl5HHJgaPBxIothJgHjHX4uPjD6gMovTFeQYnakzlAQUuBTyJiYlxv/uf72vLDFwAIn6nTMqLjY11wLV161YpW7asK3bXrl1SokQJ9ztgyDMAFPcGVyCBQAL7L4GIB6f9b3rwZCCBQALhLIEAnMK5d4K6BRIoxhIIwKkYd37Q9EAC4SyBAJzCuXeCugUSKMYSCMCpGHd+0PRAAuEsgQCcwrl3groFEijGEgjAqRh3ftD0QALhLIEAnMK5d4K6BRIoxhIIwKkYd37Q9EAC4SyBAJzCuXeCugUSKMYSCMCpGHd+0PRAAuEsgQCcwrl3groFEijGEgjAqRh3ftD0QALhLIEAnMK5d4K6BRIoxhIIwKkYd37Q9EAC4SyBAJzCuXeCugUSKMYSCMCpGHd+0PRAAuEsgQCcwrl3groFEijGEgjAqRh3ftD0QALhLIEAnMK5d4K6BRIoxhIIwKkYd37Q9EAC4SyBAJzCuXeCugUSKMYSCMCpGHd+0PRAAuEsgQCcwrl3groFEijGEgjAKcI730415hBPDhXlHyekbtq0yR3sWaZMGdm+fbtwejEHg3Iy8bZt26RSpUq7DyP1RcCAoIzgUNAIHxhFoPoBOEVwJ9J5nDDMKcScMmynHPPz008/lblz50qLFi2kdevWDqS4/vnnH3n11VelatWqcvjhh8sxxxyz+zh1AMmOfvZPT45gEQVVj2AJBOAUwZ1nR59bE+xodFjTww8/LI8//rg7Kv3GG2+Udu3aSf369R1gdenSRXbs2CGXXnqpDBw4UKpXr+6OXDdAsuPYI1g0QdWLgAQCcCoCnWhN2LlzpyQmJjqV7qGHHpLx48fLli1bZPLkyXLVVVc5oHr22WdlzJgxsnTpUjnnnHNkwoQJUqdOnd1qHAAF8+Le4AokUJgSCMCpMKWfD+/2WU5ycrIkJCQ4BvTBBx/Ia6+95phSv3795Nprr5WtW7fK119/LX/99ZdjVk2bNpVBgwZJgwYNHHPCfmW2pkCty4fOCYrIkwQCcMqT+Ar3YQDELsAFNY8L+xNAtHLlSunTp4/AqB577DFp3LixM47z3KhRo+S7775zoHX55Ze758xwzu8+UBVuK4O3F1cJBOAUwT1v7AYPnBmyzShOswCre++919mebr75ZqfaofbBjhYvXuyA6eCDD5Zx48ZJzZo1HSBRJuwr1J4VwWIKqh6hEgjAKUI7zq82gARbgj2h2tGpgBWgBYPq1q2b8+jdfvvt0qZNGwc8SUlJMmXKFGeDGjJkiJx11lnOo2eqYcCcisDAiPAmRDQ4+RPIbC9MVCYfq39Rv/zO8+OTfPaEVw4Agj2ddtppMnToUAdC3LNgwQK56667HFC99NJLUrZsWQdwXBs2bHCAVrlyZXcvbIu/uXymFskyRt1lnADsXMiQMWVAn9e2MQ4pE5lan1gsGvK09+Jl5T5YrTFe+87qw+f2mYWPWH/ktZ7h+nxEg5MJ1WcO4Srogq7X6tWrnapGcOUhhxwi5cqV2x0a8MMPP8h9993nwOe6666Thg0bOmYFSxoxYoQznt99990OvJgAn3/+uXz88cdy9tlnuzgp7ouLi3PgxD8f/Aq6XQeifAMMQMTAOb/eC5AYwJizwRZVX3X2HRu+7RBZI3MDJAO84uBNjWhw8iOiGUxmIKYzWY1KliyZX2MsLMsxUKbd06ZNk1deecV54Lp37y5HHXXUboaDLAAcJkXLli2lYsWKbqVGTn///bczjB999NHu73nz5smjjz4qCxcudCEIHTp0cGEFgBbPA1JFBZyY6MjO2I0PTAXhrTSZb9682bFX3mEsLTsWtCe7H0y3qI9tY7KMNbOnHqhJGKUdlZkfL/MnCpOHTjbPldHg/HhPOJeBDG655RYHJqeeeqqLXWrSpImrMmod4BLKCGBDfAdQod4AUqh2hB8ATLCs+++/33nyTN0wdS5UzQtn2eytbgVtVzOWQx0I30BubCMi9gxwok+QPf1DxL6ZIowxmOqH3XD58uVSqlQpqV27tmOyfJffLC/c+jGimRPCpMNZgQyUitOeMF8VAJwApdNPP10mTZrkYpcAZ9+uwmTkb9vKgvx++eUXp9YR/4Qqt27dOjdGsTURxNm5c+f/4wn09/OF24De3/oYC0emyC2/7E7Ie+PGjc62t3btWlc92CfjlO/4iazxlrKdCDUaD6o5JlhAZs2aJW+++abUq1fP2QytfoHNaX97e+/P5Qtzsu0a/qsYZKzwttoXTPXDo1SzR7CC9urVS6ZOneq8cYATW1XMTmQg5huymRg///yzi3969913ZcWKFbsbZXv1nnrqKenYsaNb2W0fn20w5uaisHL7Rmu/V/MrlAKQgfWccsopLu6Mi8WBzdcGVIxVxjKghE2wR48eUqVKFfc9tsQHHnhAHnzwQQdc9FVxUOloe0QzJxtArEhMtlq1ajkGZds4wgNCCr4WAPI111wjL7zwgpx44onyyCOPuFXYwDvUu4YK98477wjg89NPP7lVmosVmYnC/UygiRMn7rY5AUrGKgpaHSp4if3fNzCWzIYHqOfHhW0IYEfe2PqwNV144YVy5JFH7rYHInvkPX/+fPnkk0/cViLYUdeuXd1YZmwTh4aK3apVK5kzZ05+VC0iyohocELC2EdwlQNIBBked9xxuylxRPRAHippxlxAhUhwDOIMfNQ7sg3YxQTAqEgE+LfffivvvfeevPjii27g8x2AhPwoxzxFeP1gYOedd5773mdJRSWUAPkgQ8Im8HRiF6KdeDP5h40nL5cxVlRnwAnZwm5xMljZZtyGxfbt29c5Lq688krHlCpUqODqhqcVcDr++ONdtgnqnF8Ampf2FfSzYQ1O/iTIjn4zuYYNG+YYw0EHHeRWHHbc22XeEFsVWYmYpKar55NNvqD7aI/l+zYHY06sroBK3bp13QA2j9SqVascW3r66acdQPlbX4w1GTDxHCs+6gQqBpfveDB7SGHLLyebi/W/fx91B4RpI+MLGxspZAhI5W82TTdr1swxUUIrsAcZiPkAnVu1D/aKOoc3lLFHyAbeVGOiVjdAigwR9B19iPqG8ZxnASrACVY8e/Zs1ze///67W5hxaJASh8vqh40LRkx7+J4F27/oy19//VWWLVvmykDjYAE66aSTpFq1av+zjanQBre+OKzByQRjhlxWGwYWAwrhPvPMM/LFF1+4HfYImI73wWlvgvWNyYXZAXl5N5PPDN7XX3+9PPHEE251JeDyiCOO2M2CUBlYsd944w3HlvAKMZCZEHb5rMnACQZm6gWTjOeYVJGk1gEi1J0LcDCHiQVcYvRHbQKUDj30UDcx8aY1b97cbf3BzoM8sotNyqnvDMCwG7F4Mn5RlRmjlEcdqA9gw3uJ4H/uuefkjDPOcGMbcGJRAZioJ+Dx/vvvu/thWDhBCBlhaxKM2QCPcJDnn39evvzyS7dF6eqrr3aLCwCE/Qvm/OGHHzpHCGMAzyxxceeee65cccUVcuyxx4ZFH4c1OPkAYiyKz1jpiOuB4pqNiZxEdCLeJS4bGExg8y7ZKrW32JKcBly4fs8AZdXF8EqcErYLEsvNnDnTqb0AlE0GUwf9tvjgZBOGzAWEEliEM/czUbNzRBSGXHJibntjVoyPzz77zKnDv/32m9x2221Odix6pJvBYM0Yw/tpMUm00WSYm/ZSBs/ibKA/AChA5uKLL97N3ikHMPzoo4+cFoBdioWG+tAPABtqHc+dfPLJzqNK/+G9u+SSSxw4Me75zvZEAjx33nmnfPXVV26DN4yMPqTfsEdy/7///usAjRAGmBYqLSELtBcWSV0L2/Ae1uCUnW3DBg0Tp0aNGrsDB0F/Vno6DDCiM7IbnEWBMdnEgDXBBmgrXh48bwz84cOHO0YFSKEGMBC5h9WRgWggw2qaHXPywQl5hm4FMhtWTmpVbiZwQd4DG6HuZp+xkBMDGZhm//79XbI9xhPqzx9//OGMzownJi8qnn/ta3AmIPjnn386tY4LACQkAHWL8c14pK8IhAUkL7vsMgdMxDPxLFoCYAKL41kWZD5/+eWX3Z5JGDJqHyqfeVlhTCxWLEiwKwAKOTAWAD7UOdgbKju7CQBHVH1YHeogDI46AFyFeYU1OJlg/OBK4j4QOsLEaInOzMrCys+qcNFFF+02iCN0KHB2++xyWnULs1Ny+24fHAYMGOBWPCYTqyiDDPrOBDAW6QcFIhObHLYtxWxOABlyA+zat2/v1Ivs7C2FLcP9AUfAhXbyj0lP/BExRth5ULtgFzgTDJRpu4EZ77M25/bdvAdWgqrEeLQAYRYVCwVhMQDw+Q5QARiw/TDuUTdZdDFZYFvCjMGF86NTp04OQFmEqL+pngDdDTfc4OYJRnZsh7AiNnjDCjHIM1domzk7APLp06c7xsVcAqzPP//83A7FArkv7MHJBpNtPOVvBpBFKbOCQM0RMq5xBM89fjAmgscuhb7NhLS9SpEesMlgBqwZTND8119/3cmBVZ/V0UDZQgUYQYAO8rGJYUzSZMI9Bk7IFS+TMS3sE0wqJhw/TV0ukJGZi0JzAkfqR9vxeqH+wEa4qD9jAkaBugQo0X7uZ2wRI0YKYyY26o0PIlat3DBw7uEfzJWIfcon+2ijRo12B2JSP5gTdiI2YlMP3kvcGnFPgBPgAojSF6ii1t+wZBZoFhGAi7FN37Fww34IrIUZ8uyPP/7oQA9WBQM74YQTpHz58s7mZI6T9evXOzMAqi1l9uzZMxe9UHC3hDU4WeAfnZHdSkVnQM179+7taPKTTz7pjHr+thUmIm5ahE5nsYJwGUgVnGgLvmRTywAjwJdJYABkkfPmmUKWtNkugMsyOGTHnPgeewkrs63qqNQMZIt3yi17KChJ5AROBqCHHXaYCybF+4YdBQCiTahD99xzj5MDgIG6hZ0OkEDdIZ3xmWee6Tx2od65fVHvKJOIfeQ5duxYFypgdbMFEpWO8A42YvNuVHPULlPrqCfsCNsUcn/77bedPZD+AbxQ6wx4v/nmG/c8cVNkOqVMVDo+g00BxrZg+QuMPw5wEgBmhXmFNTiZYLILI6DisAa8GlBYsxuwMpmNwWxWdAArBrEsrCxMPHMpF6bw8/puBhNtRV1giwMDF7n4TgCLEjdgMtlYwKGvpphaB6DBsAB9VmbKY0Cbjcv6o7D3LuYEjvQzcUIwJ5gCRmkuwAlwIPQE1Q62ye+oScQkAR4wFsIJbrrpJhfQyoXMGD+0O7exXtyHxw3woz6YIAglCL0Yo9im8KwBjgRr4nHDIE4dAYu2bds6Dxt9BjhxD4yM79lTaWonoAQg4dHDyM7v2KrsJwwSG5ipgcjCPL+AN78DjKj0hXlFBDjtSUAMFtzmt956q5tMsCg6LFIMtnnteF+1QA3AZkB8ExORgQmbspXRvHG2LytUJbNNpgZiTCRki4GWQR8al5PXuofD8zAnJi/gNGPGDOeqJ70M4AQLhYXzPazHrn3NCEAf0Q/mnsejSvmAHN9ZvBUAARCx0KKeY+/BKw1bhf1gT7TtKzAw4tUAOVIvw/BIb2MX4QawJDQF1DuM6fxOOQCXxQPyfgNbGx/0P30NG8fuVZhXRIMTHYcqN3jwYLcq0fGsfmYTKUzBHoh3m/cJ8GClI6sAxnAONEB9RTaswsQ2WWZMqxfGUNvsaoGaxqK4F88eq3xRBiccBshqyZIl7vgs2MeaNWucnQY2igoGk0GtM5ZmjCk3QZi2eGAQh4GygAKIeNlMBfNZGOYH2BpqGfYejNbYgagHcWrEsAGiMEECamE22MdgTkTyGxMigJOQGtoAIGFzomzsa4AacwR7G+ou7bC9qIwTnkUjsaPEDsQ43tM7IhqcECreB7wQrH6Ak8U5FaZQD9S7fZWMSUQ8E+l2WWXxQGEExWFABD0ThItVl+cwCHNlFy3vhxIUZXBi4jNxMf4iB8CDcQRrgn0ymflpQGROA8ttlZNDhbANbKGEJ6AaYuCG0RDoSFmWpwimzz2YKAAa7gOQ8BhSBp+xUGDIxnbK+1HTCNYk+BhgBdRYUGBIePcAXsAKJgazor/x8JmRm7bBvBgP5lF866233LNsXeJ71MjCvCIanBAcAiWqFl0ZGwnUlyuSopj3dwD44IRnDTUMwyiTzewkqAqoeLAq6D6D1Ci87xqnDqGOB5hXUQYn2gyzBNSx5WBvwoOFqoQ6hJrH35bJEvkYG9oXg7gxJ+TN+CTcA0CC+QMoqIosJNTFxjGhITA2bF+jR492AEXUOl49Ln7ClqkzAAWLwrNIqAHAhSZB+cQ1sWhzsQGZhRz1H5UNA7uNE0JPADZsdIAiYMgCV5hXRIMTNic6gBUQ3ZkVh5XPH0yFKdyCfrffeayeRDRD/RmMUHY/g+CiRYscpYdJGYsyj5FNOH9vHZOEcooyOBkjYp8a/1BrsAEBSHj2TH5+UG9u1Dnrd1ObsWMRf8c4Nc+n7W20LUEAF/ZCwgNQu1ADuVAzSSKIQZw6YQjnXhgVKhhxSRjSuagbIQXYyAAbAA+QQ4Uzby0hJpQFiyIancsClpk/2GxhVJassKDH8N7Kj2hwCh0o5qnKiW4XpsDz+91mwCY2BrWA1R5bhRlxLVyAAcjkYMWFRREXhW3BLgsKNDbGqs1qXZTByd8SZeERyMPf5Mzn9p3/+770I2yVDKMAEr9bJDcyx3NI32BHIoQAUEKtMnsirApwA2xgRoCHaQXUH6M54MSCw9/0F+EFPENcHyCDHZJn+IfqykLF1ha21eDBpl3sK4RFoTrizQuHLUoRDU4MEDsKyewAhb0faF8GbX7ca2wHWwJqmO2tgzn5qq2FDjAxvv/+e2eTAKDwJLGCWtpXi38hdACQK8rgZPK3mDDzXJknzQIzQw8m2J9+A2Qo1/eOhZZjjglTH+29pkLaT9uEbSEjPIfxm7GPmuiDqx8eYvdTB8qmToQ50E7UPD9FzL4wxP2RR26eiXhw8jvCtwOEA/LnpgPyco+5fRnMGD6xNVmyObw4ZsANzf3DwGNgEm0M28J1jRxRMWy3PAMVZ0NxACe/D3xWEhooGcqocoqzolx/TPpMzUwPti1ob6zMkif6/W119se5pbLhO+7l3Wbm8LUJfztTqHGfNvIvHBb5iAenvEzuovCsrfoEC7J9B4MrDgKCUnNKSMYgxUuEHQOPHnuyGBC23wrmhGfJV5dtgu6LQbgoyDlow4GXQABOB17m+fZGHyDwysCcACcM3xg3czrbzFgCqy+eGrw4ABUePgCKzZ/sXmfVBchY5f3VOd8aEhQUSCAbCQTgFMHDwt+eAzjBnIjLAaTw/PiZBPbUTFMnADoMq9iiUPPYPEpowgUXXLD7sAjUmACcInjARFjVA3CKsA7zq2u2A0AKFYy9deT3QcVDrcvpym5/GJHlABNePexXgJ2/2bc4xI/lJLfg+wMjgQCcDoycC+QtvhGVne/km8aQCUDZHrq9vdg38NpeOzOcAlK4vVEPeY+pdZTnB38WSMOCQgMJ/DfOGKMRe+Jvce9FcyuHeo5ya7BGTTNVzdK8WoyNn2/bByd+t/QaxV3+QfsLTgIBcyo42R6QkmE8xoBC42JyqkB2AGZBgb6nz4+VoczcAl9O7w++DySwNwkE4BTB42NPIJHbXEN+oB2xNHZMNiKx1CAWW+MzpcDuFMGDJoKqHoBTBHVWTlUNBQ0ffNjQyQ55QMYP3LP87NxrqZBDmVJO7w2+DyRQEBIIwKkgpHoAy4TZYPz2I4DtM9sGgdpnMU8GPLbZ189macGWxSUf1gHspuBV+yGBAJz2Q2jh9IgdI26HGWSn6uF1s1NE7Cy1UA+cGbnNGJ6bGKlwkkNQl6IngQCcIrhP/ZzWNMNnUZauw0/7YQBkp20YawLgGAjhsJ8qgrsjqHo+SyAAp3wW6IEszjaE2jt9WxKpXon4Jqk/57BZ5kUyEJBYDSDiuCRSZQBaDASfLQVG7wPZk8G7spNAAE4RPC4MQEyVMwM46TPIKMAGYIIoOfW1TZs2DpCIIr/jjjtcq8l4SD5rP5F9ccjmEMFdXqyqHoBTBHe3GbVDAQV2RA5oUq0CXGRLJKUKdikyIHKiCNkIOOGDk2SJKLeLBHR+Xp8IFk9Q9QiXQABOEdyBxpgswtvSydKpbAImywDZEDk2imOuuQ91jyRzgBR75wCwGjVq7JaCAV2g1kXwwCgiVQ/AKYI70kAJwzi/m0cOgCG0gA28qHSoc4AVIGRHawNWHHzAmWaceWYszJiTBXL6AZ0WhhBsXdn3QRN6pLmBv4VvmPwtn7f9ve9vyv0ToXsrwy29dQBOue/LsLtzT+zGGBVR3qhtHHPN0dIcH4WnDi8dJ7FwDFDVqlUde+IQRf+kZP+QTfs9HFK3hl0n7KVC9EPoiTZ2ux1wYPnEQ4s5ELI2pm0OET8dcW42jhd0XwTgVNASLsDyGVwWl8Rr7PRYBpblquYEjmuvvdYZvQEhO/gApsV5Zqh3DzzwgDvZw0ILQre/WMYCW9V514GYPAUoukIpmsmGLC2kw0DfrwzfGUM9UEwmlKXtDVQPpOACcDqQ0i6Ad+1tH52FGnBwJGl4OXgR9kS0OMZxjqbmHDOAi+OC6tWrtxt0QlXF0AHsqwQF0KwiU6QxpNwEtRZGKhp/kTkQquS+dGwATvsirTC81w8f4CQNOrRRo0aOUfEdbIqjqAkfqFKlijvhlp+AEwc28jfHFmGT4lgpLk68xXDOUUEcMOlfpkoGBvOcBwN9YRMe9Y0+8W1PPuulNP9e7s8NoOVciz3fwcLGexgj1AUzAJ5af0tTXsrP67MBOOVVgoX4vKkIRIFzLBTBlbAgMmFyWiuD27arcFYd59YZc6LaDEIyXs6dO1c6duzo0vEuWbLEpfnlJNnBgwe748353K4gTW/+dPje0s74Z8zlz9tyVwqOFMYS4yK3mS1yV/L+3RWA0/7JLayeYjCTQ5xjnjjqmgMOUNG4zPuGikd2S8DLX9G5h8MVOVmWgxZnz57tTpJl8jzxxBNy6aWX/s+2liBIM/dd76u+BMbyN8wEtRr5Ikt/gcGreiBZC+8meypn3fGPy5h4OKjtATjlfqyF3Z3+6suhms8++6yLXQJUODUWxhNqVPXVPVgQf3/xxRfu5FgY1K+//upUPsISCOTkaKjQjAesruFmnwi7zvEqxBHgCxYscOoysjTHBWBkh8LiLYXtcuovarcdz1WQ7eLEnd9++82dJNyqVSu3CNn5hQX53tyWHdbglJsJACNgglmMj03Y3DybWyFFwn09evRwjIltKlOmTHGnr7AKM9gsTxPt8AGN036nTp3qtrnAnLjPTvxFnhwNVdQP1WScmCud3y2cwg69tLQzdvqvudhzyyC5D9nSL2vXrnXlkyXCTv+1/FrIHkDiKPE+ffo4uVMHyzZh8VD+QuHvrTQ1jLbQx34m01AVknsYFyw+Q4cOdduYcIywDxNmFy6ZTsManAwUrGMQGh2G4LNLeu6fVlocDLZ+FoIbb7zR2Ypatmzp9tVxHLk/QC2mhcnAZMHgjR2K1ZMNwlx8Zx4jVvLJkycXaXAKtavYZPA9WIyzvAQrAk5E6bP5GhUbAKhQoYKTs41X1DzACoZFUsDjjjtO+vfvLxdffPHu+2y8Ux7/ypQps1eDuQGXgShtstATsyECTKNHj5aLLrpIRo0a5cYM4BcO9ibGY1iDk3kzLDWIrRrr1q1zE+yvv/5y6gv6MvE7dKANrOIATnSgTRy2qKDOQc8BKYtn8gca9y5atEhmzpwp77zzjjOGWwyTBQOa67s4gJMBMY4CJjMT3hgSKg6yQQ7+lV1yv70xa+SJTa9p06aOBeE17dChg/ud8QqLAixwXGDzmzRpklMBcVDgQYXBWnyUHdFFmTYXYLrU2VivAY85LuynaRL2E08tQbiAEvUhWBcvbzidTRj24MSK4qsmixcvdoZfdtezwZXBU7lyZbnyyivlzDPPdKloDXVzc5Z9JKhsOQ1+ALl3795OLoQDoNYBTr5qi0rx4YcfuhN9v/zyS7dKG1vyPTS2IDA5OQuvqKt1sEb2GuKdZGIz1mAbjCnaDovxr9AjtHIaP8gT5gRjApBgo927d3fAh9z9xYPPpk2bJgMHDnRAOWPGDDn22GMdQ/JVuI0bNwphI1YGTg4b99Tf1FM7MYf2wMgAQC76FtsWrGns2LEuABeQQqW0+ZbTUfY5tTs/vg9rcAptIJ18//33u5Noocjo/wwofucY7r59+zr9mUFQXGxO1k68ddiPMIgzAfDWmb3i999/d8ZybEuAkm8/QcYWkWzyRq5MHBhYUQYnxg0xXoypH374wXnRmMhcbOshMPW8885zalhubUz+mCVuCEbDwkB/+IBvDN9+GkgBlNddd50DrbfeesuxGbQDLlgQajj3fP/99/L3339Lw4YNHYCdfvrp0rp1a/e+0M3b3P/ZZ585hwdjonbt2oKNEvAjBIVnR44c6WLa6Ptw0TrCHpz8bI/E8RDDg0cJloQKQwMefPBBYTXBs3TPPfe4Da7hYtTLjxVkT2X4EwbmBJiwCgJStWrVEtzXsCU8cZ9++qlbbblYHU19Cy3btr5wT1EHJ9qOOsPEZOJjFwKUUXkAKtjEGWec4RZAY5Tm6t+XCcyBpzgoUNEAvC5dujh7oG0xsj7AXMEWI1S7+vXru7AO6lG+fHn3fhYXgPSnn35ydaIuMCoADrXx1ltvlXsbvEgAACAASURBVE6dOu3OF08dATji1dA4mCuYQJhTgB5lA1iodQTjknyQK7StBTmG91Z22IMTlWcVQdDYSDD2Qk9R4zAYrl69Wi6//HJn4EVPR4/mKG6jtIUl2APxXh+AURVIkdKuXTs3qRj4qL589t1337nq4IlBlgxOLlbZUDXF7BmssEXdWwdz6tevn2MPsA9kyARlAsOckAXJ+vzLmGpumBSAxzjENnr00Uc7kMFxYeYH3g/IwLBYSLA1AUxoCDBWbE7GZGA/9Cs2QxZlGDLOD4CKbUjz5893AEjurnPPPdeVyb5Ksk8wNwAv8nfBmlBlsTkS48T8ufDCCx1AGziZB7OgI9RzmiNhDU42AHxhkSQNcELYqCfQcUAJIUOHETITKxx05pyEn5/fYxBnlWzevLkbnAxWGBO2BuTnsyVjRwZSoX8jVyboxIkTi7Rax1jCQI1qh40O+xILW5MmTZyZAHaB7BiHgIhtygXU98VsANiQ0A/jN++BsZj3DNsStlP6h4WCcUwKG4AIIOFenr/99tudd5WgWFgO39nhFoAMnjeyTzAOADj6kHQ4fE67UPvxyjE3AC7CCFjICcyFbcGuUBFpW2GDks2LsAYn08NZwSz1hG9AJICMVY9OQJ+n85iYdkS3nbPO86xeeGUsZQgdFOkAxgBHVWBwosrNmjXLOQiQFYOOyWCXxeuYh8oHxlBPneUbR0XGjoHMbcAiM2Rndr38BNj8Lot2MAYAWnKlIyt/PxnsAXDCGG7GadpFW2FRqMqWJdTUYJNDbiOo6SNsQwAeTAn7kQEAfWGqNiCEKx8tgMUWtY6Le2A+MCmeJz8X4IXBnvEMGzP7FIZ0yiDeDdDD4I0qCDukL+14MMqFgZERlawUgBbgRFu5Z1+AN7/7LJSl2hwuyPeElh2lAsjc1xf6AZZQVrxJ2EVQV+gYVD1oOJ0FWNkr2C/GxCW5GkzC9P092V32tV6FdT+Tj8FPW7HDMQm4bKJZUjjkYLKwyWVslPuzAydzdQNOZiTmXUwsVuxIACfzcmF/Q6VBnWIyw1AAWCYmNicit5nUTHi+I2IemZJKBpWHiG1/uJrcc9pqYnYp+gVPGBMfloKKB3gANhbaQbgB9lQAA5ZmWgOTE7th586dnepHNLep4gAdtlYWIfocBoa9Fe0B7yA/GfPDhw93DIr3IRNblAFm2NMFF1zgwAsZcKGOct+BStmyp/kT1szJAgf9uA4aQmQzLlfiehhk5MdGt2YQ+eED5gmh08gKye58c8lmF8RZWCCzv++lDayeDGYMmzAB2swkoM0W/0In24DO7l0GYua1Y9IBPqzgRDYD9pRhkcfGTEO9fPvbjoJ6jnYwPvC2odpgUzFAoe54MbHX0FbMBNyHqodhmcUPRsHEhvUYm/BZfE71NnYFOAEW2LEAQ2ylZphGltgFBw0a5OqG+obqhtpm4MZeR4zWfA8gAS7Wx5Rj84OxjSqKeQPmhYOIhRk7F9pF6O4JVEfAENBGFbTwE2tjTuCbU/vz+n1Yg5M1zk+6j40JVQ5woqPYU8aqgjoDg2LFs5XET+ZlxklzrzMo9oO85VXe+fq8tZXBROI4mCTxK6zSTC4Gpl1+lsP/Q2OVgRkb4DtWTQY/MmbgWvoOJjSAiCwt4DVfG5TPhdEGC5q0fqfuplZhGEalY9xgq4PNoGYRkkKmUFzrTFqAzSa2b3fKqbq2OBo4ASR441DdLFiSe1hgYDk4ewAI1DEYlu2GwGtHdghYH2Md1z/P2SJhCw8/UV8BQoAXVY2QA8CJeCb/Yk7hOQSg8PDi8cagHticVJPIjVpnq5WtIKwMdC5BhtDgtm3bOrcsHQJTwBWMgEPTevjAZKtBUUj9YbnCARP2YyEXBjE2BgY8YIW6h2y4mISs5kxYLn+7CnIxJsQAZWJjx2LF5vdIDGilPcb6/DbYZ8TL4UQAeGAbjCe8X6hXCxcudCACaBCjZCzIGOS+qDyEEpAbiwUUYzYAYyfc0DeADp461CyixFElSauM+sd78boSv0cfADgwO8Yvi5NpAswRgJZ3AE4AImzs9ddfd8bwESNG7I5E5x5AeMCAAc5O2759e8foYGssOrwnHLawhDVzCvXWYQugY+hIVkI6DjsBE4sBxmrD9wiZzstpUkW6zcn3qjChACdCCQjCJGqYwDs8dua181dOVAMGtLFHH5z4jpWd1RTVzhKQ2SJhNolwB6y9eZ3o++eff94xTuw+gDrhBHg533vvPaeC8R1jCkZlk3Vf3ezIioUU1RA5woq6du36fwKFsSfRfwAGF55SzBW8D6AErIjzO+ecc5ydyN8BQN1gufT78ccf70CJBRs7Emop6ixtwVnERdvJjMp3sEdsToAmAGoyCz2wNSeWWBDfhzU4+Q2m8xhMMCcMmKw2CJKOsV3lGD1Z6VBtmEhGi/1BauH9lgGwIIR6IMu0FZ084djgTjjhBOckwPbAhXrHXjpWX1ZWGJXvjTFw8lkUqyfgxGTBPmIsIVy8OLmVr7+B12LlGAum4gEajz76qJvUjC9jjjALmBQmAwMBi5vz7XK5qQcLLO/BE8Z7Ua9I+IeMsYfBfszmx7jGBkR8EyADs0O1BODwwAE6MC0AE0CBIdH/xLFhvCf6H2+eZT1lMceGhb0VUOO9zA3AGGcAY4L64f0DNMkFZlc4BDGHPTj59iaYAII2Q7C5RhlwfIZah+3AdnkjaIsnsVgeU2fsu9wMsHC9xzdYMvAAb7xrBE/ieWH1Y/Az0LBbQOHnzJnj4mYY1D5b8sGJSYQMsbcAThYhzQS3eB//2UiQTyiwIhP+sYGcOCe8WmwzwbOHzQ5jOOocLDI0K4Etdrlhjha7ZGXBeugrPjf2j/xsUy91YYFFvQRkiFsChPAyo3qx5YT+I/cTzwMuLDi0hcUZcALYbEFhTKAKolrC3GDUplXwE7A79dRTnTcP5ujb5Aq7X8MenExAtsL7RmwLs7d7bAWyvwvb23AgOtfCBDB6YlBluwWgwoBmwNsE4j5ivQCpl19+2bnLTa01JmGsknuJCYJVsEIDcFwGaDxXFLydtIm2wmCIC7PYN1h5aDaC/elLU4MxShP0SPAwjAwbj13G6EzGgAgq1xtvvOE8iNgSUQlZZAFPIsUJtmSri9kOCRw95ZRTnH0Q4z19Th/RNsALwOMZ+h8wQn3Dk8fCjwqL2odZgDCEcLA1+XM+IuKcsgMnf8DYJMzNarY/Ay0cn7HVH6Ag/w/7rlgFsRWZWke9zQAMCPE7dB73NF5PizL2t7QgayYLdg9sTthc/Cu3AYjhKLM91YnJb4n2kFN+LGw+WzPjvIV3hNrDrC/53DynPG8xSb4DB+ZEP+LswOYKqPDTFhnTDqwN9Jc9AzjRtwAeF8wRL6JpIda3pnIWZh9GDHOyVS47QCpMARb2uxlMrNAYUrGdnHzyyc7+YJ4eP7OjUX0mAoZQgvug/exZpBwGKGDFRZgG5ZhaZ/L3V+V98VgVtpyye79vkyqM+uUEALAe+o+f1NUWCbN72baaPS3I2NHMKWRhNZa33DLH+u2GPaL6BdtX8hhkFGnG2YIc/NBzvDm4/olZIX4FQyqra2isF+DDgOUfzxE3BrXHHkVwK6uvqcsYYTG+UgYTAgDzV+eCbNOBKNs8b75TwLZJ5cf7fRWJiY8cTX0zTzSyNnXZVGWLYA9VLamnOXl81Yc+BaB8xucDb3YOECvLPN2UZ2EE+dH2/CgjophTfjS4KJVhzgI6kcBBbETYnPBoYtTlMk+mrYYMbguqtMnDCk6+J/7hyWHFxfCNDYv4Gttvxf1FMVeWySg/gcmYJn0TqiIa+Nvn/jodyoIMeGyzMOXy3J4M16HeRMaIpbX2o9v3ppobYytsBlXkwGlvHV2UgIm2+HFghBLAnAglwPZEOg1/xQzNP2Q2DKLpjeIT4wNAYXS1CGICAvneNg7bZtpI3zS9t7GA3EK3TO3v2LGyLPWJGXjNC+h7kXkH/WT2P9tjB+MKVaExrltYhIGIGcH9e/eWd8r3hDMeqIs9Gw622wCc9nfUhdFzrJbYh9hbRzwNHiE8ML4R1UIqzINngzY0noVBj2cHrx678vEC+YZZml0UoutpR3b75HxVL682NV9OyNu2//BuY618bixobyoz91tfhXpK/XCZPdWZe8w7CwiZOufbIQ04/YWoMId5kQOnwhTmgX63ucExYrKXCo8MhmwAyrw+vkfPVmZ/rxyDlgHqr7p4dPgbdY+gvVAVoKiAk8+yTbUz2eR3X4baSPnb/vnqkx1YAAD5Ce1Cjffm/cuOVZlKaQbz0Lb4C5KvNvr3FbazwNoQEaEE+T1Yikp5vo1hTytoqO8hu0nhy8M3EBcVOQXtiDwJBMwp8vrsf2psVH1fjZcAWWjQaihAhYPdIcK7J6h+HiQQgFMehBcOj4Z646iT/5nZGoxhAWKm8u2NIQWhGuHQu8W7DgE4FaH+N2OuAVFOHrWc2FMREk3QlAiUQABOEdhpVuVQdmNJx8wbs6d4FTN+W1xPoL5F8CAowlUPwCmCOzc0DGBvqhheDwv+M5e1/b0321MEiyeoeoRLIACnCO7APYERoGMBdqGGcmNX/kbpAJwieBAU4aoH4FQEOjd0OwSBlKTXYHMvp9GQS8h2nZNqg7Qc5AAiF7UBU6DaFYGBUMSaEIBTBHdo6NYEfzsCJ79yHBaZHK+55hqXH5soY7aokNSeZ0lORtYBEpDZZWWGBuEF3rsIHigRWvUAnCK04/xq21YIi+QmRw8ARL4m1DoyIbL3jqOPSAHLJmGiv8k4wJFBJCsjIjl0g2px2qdYBIZBkWtCAE5FoEtDt5OgupEChVziqHfkhyY1LBf75jiRg0yY5H7iHkDLNpuajcqPPM+PxGtFQMxBEw6wBAJwOsACz8/X+TmBfMM3ncrRQORqYkMw+cRR8zh0FFbFfiryUZOXmmODOHnEDjD1bU+BKpefvRWUta8SCMBpXyUWRvcbePjqlyUjs+RwJKEjZzgneXDKBsZzjOOkRSG1Cht7yQNl56hZdLkl4PebG5orKIxEEVSlCEogAKci0KnZpf4wDx7J9bt16+byPHGmHwZy1DSM55zuwWk25Bzney5sUeQRys57l91WmSIgvqAJYSqBAJzCtGNyWy2M4X6ecPvd97ZxMgtMieN/8NzxHSohOcRR+zgMAaDiIEYflFD/KM/PERRsecltzwT35VUCATjlVYKF/Lxvd8KehNeN3NN2DhrV49BFAIpjg1DzOM2WXNawJM45++STT+SZZ56RFi1auNasXLlSFi9e7E7ogEVZ3mu+s3QrgZG8kDu+GLw+rMEpO4OsTQ6bKL4h2I9+5r68ZjKMhP63uCSOHOfQUdhPjx493EkdyMYyME6fPt2dzXbZZZc5w7iBy/vvvy8ff/yxy3pJojpOBeben3/+2bGsSy+91LEpy46ITOwEln1N0xJu8vTjxPB4hib4t7GWXQT93kDayoJlhp42bczWTyTnywV1PDt7X7jJ7kDUJ6zBaU8CoNJm+LWd+JE+Ufa3sxnktJ1jpwkf4EgoDjggGyYDne8xdqOiMWk4MBLZmQyZkIQeAD4EbX7wwQfu9NtNmzY5I3pRBidknl2CPkszk1NWB1sg7dAIyyjK876qjaz523co8Bn52+24J+uT3Lxzf8dKpD0X1uBE5SzNLIL1cxGZoO1oHQsiNKZg90Zah+xvfckbPm3aNHcUNaBip69Y2ldLqG+M0k+KjwrHqbCvvPKKO30FOxZghaoH0zLZ+0w2HNK47q+s/OeI70IWoWrqvrTPl4t/uk3ogQO8i3L9XOHmaQ22D/3f3gxrcMrN4CvONhBfFUEtQx2z01eIbbJVmElhZ88ZKMGkWLk5VBO1DvUOlmVqG3YpGJgxJ54rauAUmkUUmdBOFrrQjA/Gkkw+2Y3NPbF4PKPkeOcf5cKWACMOoSCsg9N6ufiOhQE7X3Bl2TfDNod4djYno+E2EKwj/SO3i0vHmueMQU0EONHfbdq0cceIA05muwiNIOfzuXPnOrb09ttvuyhygArDN/dSHkZ1zq2DOVnSf78/suubSJO7H3gaehBEbsAplBn5h2jyOwdFIGfAf+HChbJq1ardJ9kw6Q4//HDXX+3bt5e6devu3oRdHGyluRkrYQ1ONMDUNCZIqD4euvHVKLo9F3qETm4EEqn39OzZ0+2ba9WqlduSAjjZZRuCkddPP/3kNv9yyi9bWMhOgJoBa+KnHVPEBPFtTvxdFAApu/4NBSLbo2iM01e5sjsFBZUw1E7166+/Ovlhx+Mk5XLlykmtWrUcU0LGsDSi+FkEWrdu7fY7ciAqV1E53SavcynswcnorqkjdNyKFStk9erVbvsFxl46nbQgxU1v91d+1DrA6dhjj5XJkyc7w7g/kQgb+Oqrr+Stt96STz/91IGUHT1uXk4bTEwYZDlp0qTdzKk4gBMAjTOAkAzkx5higcttnJfJG48nm67pDw4kPeaYYxxDIgCWvy3fFiEc9AfqHpuwidivWbOmkPLGDOV5neCR/HxYgxOd6Hs+WMmgyS+88IILIIQ2o6+3a9dOunbt6uJ4aBCU2vIXRXLn5KbuZmS94YYb3DYVDOIMcuwZdm3cuNFt9uVEYCLCzdZi9hNkBsgDSKh3gBa/w8BMrSuK4GQMyYJSkQ17DmE0tJuIemThG7D9IFRz2Bh42QGZnJpMPBnj8KabbnLlkJYm9AhxvsfmR6wZ3tExY8YI/WhbiXLT/0X5nrAHJyaSqWdLlixxUc5MQj4DmAgYhFVhc2FgseJkl/6DTrSBFfp7pHYwk4uJQyf26tXLgQ9Afc8990jTpk0dCMEE3njjDRcigCeOyzxT5tq2z+xvJhvlwpw6d+7sgN7S/BromyMinGVHHRkbpibRPtQpf/KbnWjZsmUyZMgQF44ByAAoBK6y99C/Qr1xlA/4V6xY0d32xx9/uIXyyy+/dACHUwFZotYh19D4Jg5CHThwoLMXot7hmLDwjh9//NEtwDVq1HD1fvfdd92YZwE69dRTXf/SJpjaN99842LTqAdZJiiLxZq2o9bzOeyZ/qP/Kfvrr792B7HyPWlz2ADOuPEPUaW9jCHkgweYwFxOlsYkgHyxlbFnE5Zp26LyC1zDGpxsUJhtCSGxsqCSQINJoIaQMOxCh6dMmSInnXSS61yzjxSHzaq0kVACwAm5GEgDSgwk1DgCMBk8DE4GNYPWv8xuwmcGTsacDMyKgkwBI9rHZKc9qFmYB1DBJkyYIP/++68TC3FjN998sxx00EH/ExXv26EMaCgLxwyTH5mzFQjVDAbVoUOH3WL2D5bgXt4NMAAS2KUAQssQAYPt16+fAw8AiXr99ttvru6o8AAp7BYVHmADPLZs2eLGPrFszZo1cwvLRRddtHs+UBFsjLBo6ontkXpTV54DeLj/ggsu+J8EhBCCmTNnOjsmIPfRRx85pmcxdOeee65cfvnlctppp+1ua37YzcIanGxVo6F0JrYmvEsIE4GA5EwgBhKeJigy2R25Qo3lJjXKMQNoUTGYAx6oEcgCwGZQsoITNQ6Q+wwJOTCoLb7G5JIdOMGcLrzwwt3R5rbB2N8yE87MifEDa/H3CFq0u19v5ASgY8Q28EHVYiEEnPxYKH+TtY0jG2uA3IgRIxxgwEBmzJghtWvX3n1OIOABg/IX3dDjz6kzFxpBnz59ZPbs2W67EYBDmZQBeLAIETpCvQEK2BTsBfChHaRohtXA3LjfgBEQJhEhoEegbsOGDR3IkLqZ52jvXXfd5UJIAELGBTsFnnjiCfd3/fr13Q6DOnXqOLCcN2+eW/CuuuoqGT58uHueK/QI+/0ZJxEBTtZYi7WxVQ/1jlUDV+0ll1zi1BmM43QEggTEWBloJB1oKwS0E2CinEi+aAMTg/bSdoImGSjYN8jlxMCySHo+p/12mWcuJ3AizziyRI6mFtuKGcq+wk2WGPaZ7LBGVB0WMGN/xnZwEjBZUYtwJuDuR03CVsSix2QztuWrw/6WFiYifyNfzAtssmZys6kaUEH2pgYzhrmPz/xN2hYag6wpCyZFkkD6FJCBLV155ZUOnLiHhRq2QnQ/IMbvhCbQLuqPekoqHAzxjA2YFBkq2NqEek95AAo55qnTX3/95YJ4Yd+og2RIRXWkPICahR858DzqLmOMcrgPJgbrYjFr2bLlbjNMXsdDWIMTjYPp2MZTQ2M6F0pKpyAgBh4rBB1k0b5+xC+UF1rKADS6aStgXgVYmM+jEjDAkQ9U21QS7G4AiGW35B4GvD/JbIXeGzixOrIZmD7wgzAtrUphtj0377boeCYSTPvEE090qpR5dbHnjBw50k1kJiSMEzYCO0c1YxJi7/EN3wYyALVtV0E2jCeYE4zGzA+UDThxGbvCE4j6yBimDEAKtmPBmB07dnQgCePleVgdIEFYAsyICxsXIDJgwAAXdEs8GqzKNA3ah+MIuxmABJMjbQ7MGlXRngFQfIazYMECp8rOmTPHxcoR3sD3ABIkAPADjLAx2QXLwpAPIwTczjzzzHzzmoc9OLHqwXQYAH6QG3YUBMbKh3eFlapLly7O5gQwca9tYYE1sSmWQDhjVUzeSA92o/7WRlzSDC5WOj4PDQ/wGRPPADD+lZ1ahw2BlRAQtAM4zagL8wpVF3MDGAf6HiYXDIq24NK3kBQ+R+1CLWKMwSIwIsNWmJwwC9g4cWO29cc2P5vnkrHkq2WoRldccYWzg1IeZcNMfGcC47V79+5OJaIu1A35MhGx6fB+1DDGLGVhBMewDnPBDgW4Mt4HDRq0W23ElEFZAB8Ml/qyUDHeCVPAPgXoUDZsDjkAgPQhIEkdbNFGjYS19e/f34ETdjDYIOog8qBNbC63sAnsvIAocoDlAU7FQq0LHchMPFv1ECaCZYXA3kJnIkyMd3QgHcm95jkAjOwzCzeI9E2WprYhJwYNdgHajhqA/QB5GXvygSQ78NqTzQnvH3I0ILcgwlC18ECDTm7eR/8CIPQ7RmUbC/Q/7AN1hQnF5GTCkpUBbxn3k+PqlFNOcQdD8B1XaER46N/E3jGpWTRhMjAy2Kd/YeuB9WAT4r2mosGQYHhm74GF4eRgEQZ8KMu0CDxt2MMAQS4AiflAH8NgGOvWZ7QFbyALNzYh3mMqujE6/rYQEsYL8qHdpHAmJAVgg+3xGfVDjrYzgzHHARqQAVgn4GSmhNz00d7uCXvmZIOCxqOW4QGhUxEY9iUACiqMq5wVBuGB9gY8psvbilnUopyNlkPhyWiJLFjpcGVD41lNuULTfoSynuzAiVUR742p1bZaZhc5ndeBWBDPGxswVcxUfcYSLIdJBXuy1DLUgXsYOzyL4RdzAePKH0/I0tQ0fzMvoAAz4RlkRR+wUJjjBYYEqPPT1ELqQr4tvHq488eNG+cYCuyIxZYyUOsAUYtFQ+VD7cTWiiEcxoX6SF1Q6TGm41WzYE7UOIJKYVCAE6wJNZZ6UWfzbtN+ZMF7AFXUXP4GxB9++GGnsmJXAgAN+FHlYHFc2IBhqBbiktc+DWtw8rcVQL0JGcAOgNARCLovhl861AYbRkyEty+7yvMqxHB4Ho/K008/7Q7KZABhK8Ew+9xzz7mtKrYb3jb3WhqVPalmrIwMSNRlJqyvxhWVRHOoSsTOwbphnIwhbJMYnVFnmWi0H/bgb0D1PcEGAObBBDhgOpTFQomtB9DxbacGmlYO4GT2MPoOlkO9MMoTbEwdYFsW0U/oAQsRwApw0k/0CeXCbG3/KawMu5rl72IBe+SRR1z5LO5ErBu7pmwrA0BiDpkhHwbFOzDIA7yUZ6yRBWzYsGEOxAiOZvzl1+IV1uAU6o4kyIzVDvsKg4nYJugvHovmzZs7ITGgbGd5OIDGgaqDgRPtxwCKbLgwiDKIASocA2Yv8Q3iZuy2oEXbsmEbfxm0obFORYGBAigseowzmAYLHSwB2x2MEeYC6zCDt7Fv3/Zp/cskZ4Kj2mFaQN3B4IwBmkkN07D9i75zAu8gzgz6D8aP5xDHDuVgm8K4DpPCQA1Y0H8Y0GHFhC1gpKaf8MbxDnsPjBmgxavHIs78GD9+vFPteAZwI+zEvIO0g3LRTNgIjjqPDY5+hqXxPhg5JhTA1rzgeARRG7mPccb+wOw2Te/PPAhrcLIG+RQaFoBxjvgKQAkhNW7c2EXlQjtBfMurXRz22hlIsPEX5oTrmMGKymsGc1Z3NqCiGjDYTb2wbSy+8dxyhlOurbLmAbXYKORaFJipgQXAguoKeDN5ASkABS+Vedv8oEIbjyYD+9vURzzJTGK2wxCKAHtCRcKrbGmPYTR4mvEM8g/GhW2Lxfe8887bbRCHOQFOgACLhmWOwDYG+yGeDfYEqAJAXNgbKRMwguVgCCdeDTUQ9kT7ACyAkLglymQuoZkAeLxn7NixziDPhe0LcOJv5IPKx5hAfow51EXGEnYxmJMxuP0BJP+ZiAEn84owEPAm0Jno1gwe6CnBZJYXhwbmRxBYXoV7IJ43cGIAsdkUIy7gxAACaJh4DDYGE4MW6k1cCmqDGcvNE+fvuUPtY4DideL50BxHRYE5Wf+YXZIxBjtHrYOJ8DlysMwYtsfOXyyRsc+kTC4YsmEnRGJzYSDHc2fbRzDIE48ES+Ezxi/qEyEPGMYBHRiLxUxhbOayWDOYFaoWfQ1IYHfCoE8/w4BgTswPFm2YDeWjWtL/OE8wyPMMgcyAE2oobUfFRS3lHoCL8jC+s1CxABJKwJyjLNoOaFFP2k1dYU7+/sO8zIGwBicaaapGaCPNq2BRrHzv0+aisLLnpmOtneytQ5UglIJBS0yMedgAKCYAk49BxQrHIMVlboGorOhMMgMoVlwGNezB3NO+raUogJPZ23yDuamvtNVXZ30gM5uKGbXtO2TnJ4tDPSSEBUaCM8dfDHgW4MMrCBigYpl7n/IIBUCtw74EYNGnZhC3fqXegAUqH0DEcmlBwgAAIABJREFUZcwKwzjAhIcNNQ6Qof8BLTKeMlZY4H3WjFqJOgtrhMXRfuYULNBUfJgTZIDyGDtoMSxi1AV2BzjRTuSA4yovV1iDk60UNmAsrsQ3yPr6Lb/7G4XzIphIedbaT1wOAw7DKqscq6KfncFAh0GFnYWVGTUPgMIgG3oBZgTXMbjNWxcqa7PBRIqssqunRYrznS+j7LY/GcMypulv4rVkfTah/awYxBvBWlHlYEz0C+APM4FNYR+EjQBYtueOn0Rtw5DYvoLpwsY/dTOA5Cflk2oZDx9lYz9jHGAbwlvob1Y2OxvxTzzDOOC9aB04UYjroj4+OBOTRV0AOcrzL2xmfE+5HG+fX5t+eUfYg5NV0n5aB1msjgVbGuUODR2I5ImTm7obYBAtj1sXAy7gBI03cEcm2bEAqDzgBB3HhoeKYeyJZ/CCAno24IoiOPn75mwyWES9AZYFX1r8jh9rZ17M7NznyNKAweKCYDgsDgCOZTLw7VnGhHmW+lgAKO/Z035RC+JEnWMh4V1+Pihf7QwFKgCTd2CrNXZlc81st8YsLeTCPL/ZnWuIg4o65IdTKqzBaU+qWag9KbQRRteList7byBlgIFnCXczLnDcu6gL/oVMDNh9wGdgsipi0+AfqyCTD28otgRAz4IFfbkXBbXZj4Pyjbg+C/LVVx+cfVn47AvgQV7Zqb0+EPp9Y5lK+czK8gHFWJK9305toQ/M9EE/+uUYq7MQBh/YQtO2mOcWuyLlmYMg1KGUXZvMucJz/kb6/LD5hjU45YY55HQPHWoU1Y8INwrv27VC1RTfQGxBjKEdZqqkb/tCqAx23mcqgO/pyondGZDkFMHuDxZABMYEnUe9s2PHc5IPA9WYApkZsV/wk8HFtgTsFhho/QnoT4K9lZ+TXSqUCYRGXId+b5uczQu5p8lusjYAtT4zBmD1Kg6LV079H87fF3lwChX+3lZ8H0By02mhk883rGb3Xj4LnRAGVHyXXTqPvdWDyWo2JFQwPENEDGO0xLiZm8nne1YAB4yk5IBiWxD2JqKTbUuE2VFCV97cyMq/JxSoea+vdloQoa3EufH+FAUmt69yLOr3F2lwym5ltolg+rMfw2MrNxPF39LgsyV/9bUJxU9jaAwYW9nt3uwGUeh2Ers39PO9DUB/QhK7gpETlgN7yo2xek/UG9sFbmVyEWEkhVn5sszOMZHTRDFA8u+zeCmzifkMx+w7xpaQsQUM+hHQ/oLgO054zuyQfr/yDlsQIn3jd04yj/TvizQ45aRy2ITLa7BmTurLnuqR3WrvA1pOzAd7AhPQByIDX0u0lpMMrO0GrvxtjCWUCfr13R+mEiqn7PIkcc/egDU3790bg430CVuc6l/kwclfsW0iZhc/ZffZwOYePxmYb2T3QSM7VdBnQRZHYhPO7FjmbTSWxqDb10llncc7zN1POaGTfm8DmnuRi38AJ+UaQIUyJrOh5eck2ZMtaE9qc3bsknqabdHqbvY0f9O3qYg5AX9+ti8oa/8kUKTBKXSVtbw6AINP6X2vh7/XKDs7iQ92AI1vtLZI4lDjOOX74LSnCe4D2b6wOTNW22TOLZPzvU+hw8fKCPXQ7Yvamdt6ZGdTsroZ6Oypz/ZFNaM+vpNjX57dv+kVPJUXCRRpcDLB+LEdvrB8lzGfM0ksbso2UIZOCnven3gWk2K2Jv+9BmC2UvMO8zLZxPcjfkM9TDmpZebZs/QXGK0NJHPKke6Dk9l2eMZX9fLClPaktvJesxvZZlXaafX2HQO+imeLiB+PY2X5DNSXWXaMKi8TJnj2wEmgSIMTe6QI12e/EGqPReJiqyFSF8MvwXBE6zLwCULkfktqxzNMdmJ++J2JZODCoMf4bAd8AjBE5BLjQvm8k/KY7ATb2b4/3mlRwkxCIoOpA5tCcwKTPQ0LA0qLsTGgzY3qYpPXj2gOZYCUbwZqK5ufOZWfHXMCkI3BEqGMwR25ATLIBtkhQ/aJEXNF3+AtZCFB1vzkb+SJzIhQ5nOeI/CQz/keWVI+fUnZ9CHv4XvLX5RT/Q/cNAzelJ0EIhycNGBs21ZJLFNWdmZES2q0SLy2skTmVpHNy2XGE0/JyBfmSmryTh3USdL5pjtl6NXtpWzSr3LPsFHy7Ny/pfU5N0i/cb2k4fo/Zepdt8qkz76VpGUpsis2ScofdYS0r1FTvllaShqef7XcP6CtfP/dLBk45iXpesktcl6TcnLnqEEy89MPJb5SZSlbJlHuvaOfVNOJcc/osfL18iVSoWw92R53qJyg+6Ou79xYnh/bWz6fv0EWphwr9UqtkAb1jtINlb2l3ektJS5Wg+okWTLTRH9PlKgIH7Pprv4Zsj1pq5QpWUaiM2LUsKYpaTculWefekCuGvOhtD+1k4x/8F45rMoieeauG2XyO5lyy4MzpUnZH+SewVOlepPjZGivc+T1FybJqKdnS2JcGUndvFNOunyIDLixibz79BQZOuEVia9yiJRPWiqNmrWQvkMmym8fvCkPTdbMoKSgTU9VF2qMi9ki4r1kiVjJcDKOcAEX8epHODjp0E9Jluh4zZWTHi2ZOvbjtMNiU9bL/PdmyKBhY6RO2yvljNYt5J2Zb8j2UjXk7puulHqxa+SsDpfLkqR4qVv/ZOkxbrh0PqqWbFr4ubw9/0t55cEXJb7WwXJt/2GSsuAtGTRhhhx50U3y+Ogb5L3Xn5M7xk6RLpdeIqvmzpYVu0Su6N1TypTIlKeefFxio0pI6yMby/vPT5NDL7hBOp5+jLz74bvy1hfz5bTjm8vGRV9KWlxJuXzoJKmgEzVa72/cqLEovkpqmmYljFVIytRMi6l6sGW8om0EX7vSUiU9I1VKxJcQ7RpwSk+s2CCLF86RKZPHyONzt8ix9Y+V3jf1kfYnRsvE27vKkCeWSYtOt8vdPfTYr/HPydYKDaTTua3kPu2jGse1k4HXdJFvX58ms79aIhdcc6ksm/e5LFieJud36SFldyyWl16fJWVrHSM1MrbLJ3O/kiu7XSWntdOd8tFRjsG6RGnKeksnqvoawbItDlWPaHDK1B7SzEJu1CcrOEXFRCtz0iVxyz/y4Ij+MnfJRulyx1g5/6RjZMuKP2VrYg3J2PSPfPTcBHlq1hzpdE1f+XrWZ1L5tLYy4vprRbdeyvq/5sjtF3aTLTUbymtvvyN/vn2vXHHHcNlU+WQ5tdGRsvrPpbJ06xY54cR6suv7+RJ95Jky6r5xUi1jubw3c5aMe/YTqa2TIHbRJ1Kuy5My4ebjZfnCV+T2u6fK5u1VpHRahvyzYqEc176tRKWVkMPrHSHntr9QgybLS0qanjQTzzRWiFUmGBXZ2CSZKs+du5IlsUQWC8xIVjCOSZVP3p4hD9x3jxxyQif5Ye58aXz8sfLgnZ10URgsg55YKDsrNpXzGum+tPWZsqVacylfoayqaItk0AOPydmNNF/2glfl1sFDZVWFZlIpdZskl6ovg+4aL0dW3SU33XybfL7gH2lSIUHm/7FEDj+ikZSvVFHKV67k8n0d26ypekV1AdMKBeAU3hAX0eCUonpDFrlI04mgMBUVoyu0UvhtK2Vs/z4y86dNMv7J16Vl/YqyY/mvEn3QkbJt7XLp3flcmb8yTY47vqks/eBjqXxOB3nh6SeklLKgXX98IGO69ZWNh7WWhx99UFZ//Lh0vH64LI1pIMfXri471q+QHSUraEqJwyX1m7clreVV8sAjd0uN9HXyzewP5YrRr0nVkqXlyM3zRLq9II/1aSIbf3hRbhn1sGzI0Nzmav/4+/fvJaFiKYmKLy3HHdtKru3RRxodoRHdDmi1/pl6ekpqjMSho0bwpZYqeKxEKRhs0Q2m5coo8KYnyb33jJHpz0yXk8/vLJ9oErw6RzWRR8bcKNPH3SYvL0iSco3ayNrPH5dtG6OkwelXy8GVyqtKmC63jL9PGuqp3/Frv5LBY++Xn9fES+2ETFm1s7wMH/eAHFk9TUYNu1O++ulfOSRqp8z49DNpfHRTKVexgpSpWN7lpmqryfhSU9MkLjpGNb0AnsJ5eEU0OCXrXE4AnNIVVWJiRY/SVPvSdikRlyKzpk2UYVPfk0v79JfLWjeUt5+dLL9ujJZjmzSUSXcPlfWJdaRh7QqS/NtSmZeZIM9NnyOtD68qqf+8J/f1vEX+OaSJPDljsqQv+EpanjdAap/VVV5+7CZ5TVnXXY+8LZ07XicxPz8hs9ZXk9633iatS6/Rs8WmycdrKkuLJsfIujfHSokeE+WBy1vJNy89JuOeeUnqnXi8LP7xS2lct5H07DtKYsvskqTtmVJP/65cKUGSdm7FNKKqXUmFWjWIRDhzSlEgiouiLbqhdcd2tQ1myHfzvpB+N/SXdWuS5KCDq8iaVUskvvIhctPVXeT3z1+RRanl5cyuN8vnjwyRtz/4Xlp36CYdWmj/vfS0NL+kt/Ttc7W88uIjMvLZmdLplGOlzPYN8t2fO2TgyDFyWOI6GTh8hOyMrS6lNyyT1Rml5GJVv5scc7Rs3bnDHWlUS9OBBMwpnCHp/9ctosFJOYbE6kiLytAjnKOVbShzSkraIWUTRdYtXSjXD79fPvpxmdRN3CEl07ZItaNPl8MOrS5fv/+69Br9uLRqXF2Wzf9Dzr/zbrnsrMtl9E3dZcf23+TunrfKsvLVZeJTYyV1np6SevtzctTFPWX8HW3lw9mPy12T3pPO5/eTE6v/IcOnfy6/L18hlZP+Us9eSWnbdYjUVLvGy6N7y4c74qVxiThJXb9VGp9xplx7c2eZdt/t8uO8v2RregOpclCS1Di4rnTv2lPOaX+62p9gGrpRWRuWlhInJUpFODo5435ClvpEU6I3aqKz59RQ/ZK0btVBRg2+URb88L4MfWCqxGxLlwal1ctZ+WC55PrBkv7tR9JZ+6HPoDFy2yWt1bkxQca9PlfKVT1YtuxIkmqndJZ7rm4uv3w4UwaOe04qHlJPDo1dJRlxiXJ5r8GSuF5PVxn3iFRVD13JsqUlJiHenXBCcv8qFSsrO9XYs0jXmyMDY/a7lhENTllKg9KnzHTZlaxHQis4JKuqVypGB15GkiTt0BzH782T1b/MlWqqUjQ7p5t68pLkp0/elIv6DJbSURskeUcleeTzL+UIVUHandZctkSlyuczPpLYOtXlRM2NVHr5z/Lxj5slrXZLObziBknd8LssWZMmDeseJfUrp8k3i/6RT/T4nm0bVmqyrTZy/ElnyPZNG2TBZ7Plj7VbJWPrejmo/lHS8JT2Uq10hnz96mTN55Mif6VWl6jtv0uVyjXlrHbny2ENamlLUhSgVAfKUH1OjeJZVuRIvvS493RdKXDb0ZaYdbLgx2/k1182aTrhLnJIWW1x5l/yzrdL1b4UK0dWzJDfY1Ol1tEny5E7Nsmsj+ZI+cOPkyMOypSy8bvk+TlL5JefFkq9KhWl6Tk9pXHtXbL2x2/llU+XyJqkdKlbYoMc1+oUaXLimbLxl5/k64WLZIWGGmxT1oRBnNS7HAARH6MhIemq2inbDq7wlUBEg1PWmM8Cpy3b9fQLdXk597XO71LKQjKTt8jv20tKvUrxunDvkg1SSkrqd4kpqyUlobrEZ66RFeuqSHLVaKmr8TOSskG2VtTTTPUwXNVG3IpfNvkf9TglyMbEalIFkxD2dmVnpUomSWx8JUnZsUUyYuNku9qJSmtMlKSiVsZIcqpuAdmsZZTdJatUV1ubUU7qqJ27rHoXd25ZKavLVpNqWqcd29N0Ja/qVI3k5K1SIjFB66+n6SYr0dDiIvnKlCT1pmriMQSpHjJRtYsrKUUdBjEJEk9nZf4j2xNqSuyuaCmxY5tsqxQrOyRRqqucJDNavaFxUq0cT22Tv5NLSq2EGLU5LRVRL156nDKzdX9LWvnDZZvKr+TW5VJCZbkjOkFU7JIelSLrNPlZWbU3AU5sZyEWKlYZNkQusDiF9+iKaHAKb9EGtQskEEggLxIIwCkv0gueDSQQSKDAJBCAU4GJNig4kEAggbxIIACnvEgveDaQQCCBApNAAE4FJtqg4EACgQTyIoEAnPIiveDZQAKBBApMAgE4FZhog4IDCQQSyIsEAnDKi/SCZwMJBBIoMAlENjgRIm7RdARduv+IwYxzP2P1f6kacZ3BtuAMTdyfnhV2l5yyXWJK6ffJpSU9fo1kpmpQoAZSSvS/+rBG/KWW0Z9bdOOe/tQNp5oaUrdhpElKuh4cmJCoG4yjNL2JlhmbohHq0Ro8uVNidSNpfFyCJO9KkQSNVOeiehm61y8+hm3wiRr/rQGGKWmaQiRKwwxTJHWnpvnVwE23EVXTirjDDTVAUIvWdCleoKD+nZ6u3+kVo0ntuPQMX23TTslIzZCohFIa2JjhUqxkataDuEwNYGSPbXTibvFkaE4jl1xN686lufX0b4071fP1ojVi2j+aKSWV9MO6hTp9q9ZdI7xVnmlaJCIiDnVH0kZN3pYouzRwNbF0JRcsybVpy2opW063imgamBTduKxRsJrYTduj0dhsZC6hea64UtJS9HPNhrldsxWUZqvzTq2nbsRN1+/1BamZu3RT9C6JzSiv9SVSk0DbOJUBeda1HvH0aJLKt7Sk6u7vOJVvrGakoPeTdadAfEKJrCDYuChNNpeiQbGkZdZ8X9ouJ0Ntmxsf7q/gClcJRDY4MVMYZdEACL9kTVo9Bc0N4jid5elx+k8/T9dJnKj777JGZYZsS98uZUSTKMVs1A90q7uWtTP9X939XkYzB5ST6JI79PNS/52iygS1K2siZhDRnZIkJXQihEYaMwkQbJICWvmSTMgs0Ex12aayotp3JW3WyaoTOTbevYNMlH562h1Jetjlf0AUH/9fvaN0Umq5AAtAlqj79nbu1BxQCphp6VntZ/sLwMLescyoWL1PIVIj6LOOSdJTfzkIQO+1lMLZ5RG39LpZWQUUBPUf5WQdhMDEzkpTo5CtoKPJ5LbtkvIVCeNmt6O+wwFfggKH1o26802qlqLAm6qgEROrYBynN2nkPbi2Kz1ZtxElaSK5UpKgqRi0BE3MoFuQFJA0r4w2Re+N+v/5l1JSU3Sh2KogWFblpklyNLsmCwTZLgEnZBqjYelJKsOSJf9v/9B3uzSVS0mi8YMrbCUQ2eDk5iNAoPCj2xP4T6edAyYWybhdWyW6dEmdYpq2A1Bg7vCM4sUO3R9SUidQUspK/baqglesJJbSvWAKIDu2R0vJ0jv0Z4wO+CwWtHNn1mDetm2bm+yk7C1RQunXf8i0efNWBxzly5fVSZwFFICkm5gpO12a2ywAIrkL1dUEKbrl5T8io/ekZKWa1fe5vN3QGpKo6MTkbwduuiMYqLCc41mgm64MATAChPSu6CzWmJSs7yNpEe2O+f+b9PyTiNmPmJCQBZhMcN5lf1OfzKgsQINpwANTySipdU5QCgVeKOXcXbYde40MAFuAgisrVW/W+xUv/8tRpfm3VCaxcekOYFyFuXRfI+9JVwYVpZkDUzN2ZJ2arMDE+9J1sYnWfs7aEkcF3Auy2KbKF7lkHfag23+UZrnDGFR2LBaAOamWSRGcqWkwE9hqFOlpH/4TW1H9EeHgpIPZ1BRGvi7D0bAjxixjXdmRpsmUbcmqRinLQM3LULYTrWxnp7KH+BiYQZoOUc2tpN+x15Yhv0sHcFycru6qfP03BWTt+s1StXL5//bi8i5W/lhJVrUhAXaUlcDSAU8Kap6qEahLABRTTqdzVq4peEGyTrKEkrItSXUlvUqV0LPndicg0M2wuncvPlHZmhaWrvWMIh2MFr5LVUbwpoQCCvVN1olKa6N1sgF6KQpu0aoeRql6uUubVor2KQhm6rPJynxiNGOoJVkDQBJLartDkq5lTfL/KqPypE2bt29W0FQgRqbaCm2ZE1QKKpZusoarJikolExUYNbPknZq0rySmo1BAWL7thTN6Q1gq6RVNc3KocQ/BZKMlbpAVNW9jKocs6UwZqfs1Oyg8ZkVVMXT/YmxO7S+pTwIUdlpGZku3W+c9lGqbFy3USpWqbZ7fmap1bpApapqCMCDZC77wH+MVwE2U0E+htw0ur8vuMJXAhENTmlqm4hV1YWLSczK/z9HOyn1l8xESVL1AXNHbKbabdKUHWm+JOAiKX2zJMaW1UmvE8KpUHqvDur4xKzcUNG6URT7S8kypXaD1C4FlLIldWXWlR/VZde27RKrDCom0W1BdpOTyaoGIZ29mlw/vqyDpPTUnVIqU9+tzEZ0wiXpxNfXODUEsEG9stNY0rHJqBqWqlke4zSlr/I0p2A59vffv7QUZToKwaY2ObAE+lRniVamBFtI11xHJUqruqVpRHg+BZVKAY1km/9ZntwzW/UgiLLlKjiWs0kZYIUKbqetJG3ZKqXUhgTQq4Uoq/w0lYxO9nS19WQkltAkcuslLiFD09RUkGgFDNqfogAXH68gkJU0OQvxHZ7t1M9S1C6nm3RL6KEFslZV6wpKCfU+rVNadLLWU9mb9kOU4nZKAkxNVVfdiE1+9YQEtY/pHVjsWBjcTdgXtT7aDVJK8TNN2xilGUUBTWQbreAUX6qsq8J2zVJRtpSCt7LMdK1ETIksdhdc4SmBiAanFDW4xkUxAXSFV2BK11UxjlUfYFA2sXzxz/LHqiTZkBSn6lYJOblFA8eIli1aJkuXrpcqdStJw3rHSoLme0pN3iDffrNM1m7WlbimZhtIrSqnNztE020ky9fzf5JkTZt7fIsTpFzpGNmpGRDKq0FYNOuB0hT5599V8vuylTop06XZ0Y2lapUKsnHNKknd+K/8sXGXVKjdQOrVqC6ZW/+VX777XtJL1pKaRx6jlORv+f777zWNbGWdOFk2k6MaN5VSCoZZBludcTr5fvnzH1m9dpMcpRkjK5Qu4Q5xAIwof7F+949+l6xsArWxhE7KU09sLjs2rZNVq9fKRq3rjrRoKVe5uhxU4xCpVKG0ysyhjDKWLeoYKC3L/1omK9ZoxgBlmdX0nho1NePnrkyFjQ2aiiZdvv1xkazfkuRycDc/+khlRbHy96KFsnJXBWl4pCZ202yU0Qop875cLHVqHa6n0ujv8z9UoFf1eZuqXJqbKjY+WZodf6iyGpEfFvwu5UrVkdqNa0oVtUmt+HmhLF72r8QfXEPqaj71atqO7cv/lq+X/akZG+pJwwaHquoKfm2Vnxd9J2tXwqgqKxBvlJ0pUZoXq76qgJpHXheT449tpNkhVLSawmbtmg3y1/KVUrpCFWnU+GgplZjF+GJVLY9BDY4NmFN4wlJWrSIanFJ1gmK7gbBDHKKjWR9TdTJsla3bNsrIIXfKe5/+ogypjJxwQlO59foLpbSqDaOG3yu/LVovdZo1kQvPvkqu7NlKPvvwObmt3yOyLmmbnuDRRE5o0VNu79ZMnnlxhgwcMVbiy1WVK6/uIb17XasTK1HKlVTvUvIK+XbOtzJszP2a0+lbUTOPXHhBBxk5dJAad2Nk3G09ZPaPf8i5XXvJmJFDZOFns2TAzbfL1ugacm63/tK4/Erpd/Mtsn7TDme0Bzy6dr9GunbrLnXr1tTpvtWlgpnyxPOyYOFiuezSy6Vdm5PVCaZ2FdXPPnthggy5Z6L8vGKLGvh1Rqru1KRedXlo9AD5++d5cueEaQ5UtihhrH5oA7m2V2/p0+s6qVpeVcotm6Rs6Sj58atv5Y5BQ+SjL+ZJZnyinHbWuTJs5Ghp2vQwTVn8qdytCdumvzhbU46Uc8c43XT9VXK+Hjjw2ENjZeY3yTJ6bD9p3KSm/LxgifTrPUo6nd9FWrQ8TIaO6CPffPebMtLK2h/xckjtcnLjrZeqOpUijz3yiuZKP1QeeuZ5qVV6s0y9f7A8/fJMqdf8Qrl1yGhp26yOfP3uY9Lm8v7S9uQL5ca+t8uZ7RopgP4kEyeMkuefnqkZNLHFKTNSFtym3UVSqvzBsnDhQhkx5BZpVK+avDB9qkyZ8rjsVHCtdmh9uab3DXrySi+poKQ5eZsmJNSTcgKbUzhDU4SDk6k6gBMG0xgHTsoUtq+T1av+0RNSNLNlRhXpcOm1cqqmdK1/UKp88PrT8tSUFxRErpGXP/pCjqpzgtw1rpO8+daD8sjkz+TEU8+QxppO97yze8van9+Q+x/SXNZqoK131LHy8htvy6233iq9undS1USN39t+lDEPTJaHn3hRjm99hoJTtPy+dLFce3VXaa6pYacM7imvffOPglM3GTvmTvn45Wly282jpOTBjaTPiMelxD9a/oMPSstWJ0tpzUM0//uFqq2UkL433ixX97hcHeWbZat6nAaPHC9fzvtR+vcfLOef2QZnoxqSM2TutGHS/Za7pOxhx0itxic6g3rtCrHy0NC+MnX8nTLmqZlyuuZHjylTVT6aM0+JQkmd6L2ka5fLpJTmN07RFLmjRt8l06a/LC1OOk1ZVAX5esHP0uGSLnpQwC3y6riO8sLLH0ilqk2lUZOTZZbm+z7+mDoybHB3efftZ2XKW5vk4SlDpdmxteXPpavk/HY9pHuXPtKmbWPp3KWtlK9eWxofcbJ6JStJWY0KuLzbyfLzr9/KLTferQywkdw2XNt+eKpMe+AGeWXmn3JY63Pl4WmvStM66TJ+0IUyfPIcBenj5Zqr+0if6y9WRrRO3pz1lEx/6m35/Zctmovrb2Vjp0jDJq3l39XbZN68eTJsUD/Zsu4PeWTSvdLw8KOkYrUa8u3C3ySxbCUZPVqB78SjNKtzmp6WEwQShDc0RTg44S3CU7MrDQ8W1mP11UUrZGn8z9vPTJVBtw2TX1V96FKxjDTv/YjUa7ZJXuh/uXxfob/MvPt8eX9IB7n/n9Ly/jPDZNqdt8mk95PllHoHS70KW6TdU99JiZ/ultF3vS9Ve90lQ6vskmt7Xi/x10+SN7ueJSUrr5K0HXEyYWg/eeb9H+Si7jdL/cSt8tX8+dKi7VnS9rDSclvv6+QPwDI7AAAP2ElEQVSLxeuk7tlnysmtr5Z1P78gM19/U42+Z0q/UV3loC2LZMxjH8mUZ56WU5plyJr5b0qvXiOlxmk9pcu9D0hLXdxLpf0iQ24bIZ/8fJD0uWWwdDojUQ912Kyu9ENkyfhLpOPUHySxUUvp0rq2eujUDlT7dOnX6VR5t187eeHjv6XzhCc1PW0r+WHGXXLjkClS6ozhcv/4a+T4hFXKLrfJ1BF3y9AH35Y+A0ZLy8Ni5Y1PP5HWHXvKSQ0OkbE9O8m8mCYy9ZmnpFXpv+Td11+UX6PryGknNpVF0/rKXW8skRYN2kmjow5RFWypvLtgvXTpep5c2LSSDL/kesls004uOKGhdpN6Og+tK10uO0fmznhM+vUZKZmaLK7d+dfIqadWkCdv6yO/LEuTkud1lCcff0USF/woT0y6Tv5MOVhKlK8ssaXLyIAhA6Rx/SoSu3OzxCetlofvGSaPfb5Kj/V6U25oWU7eHD9Arnx+qfS/vrOs+HyKfJpaXybdep2c0PI4efWNd9wBndf2uEpTKFdSe5PGnqH+x2R5YoMrPCUQ0WqdgdMOPekgIUFjetQ+lKHhA6VV5Zr/2UfyxSdfy9qaNSTto+fk49V15arrOsgvLzwu3yZ0lFfvaSNvjrxMHvnrEJl+3zAFhnflu23lNXvl7/L9+2/IltbD5aomf8jjT3wrLUc9JbdU2SnnndtRYnqMldk3XiClKqqxXa8/5r4v/SdMlzmaq7z8Dj2ks+3p0vOWQVJ++2IZ0buPfL05Tg5p1lhi0g5RW816WfXnj7JxdRO5atT1UmnFOzLpuW9l9OQpcvFZevqK5i+/ptMNklyjpfS8f6IcW1b9iGmL5U49mmrWt6Wl38CR0uWcqmoQ3iQpyghXTrlOGl4/TVKq1JcmVTQrpFqpDm1ztYzqdZUsfrSvTHj+Sxkw4z05rW0ziV81R7rfMEbe31xPVZ6J0rbsMjVnHSorfnhNBk58WD79do1UTo2XBs1Ok/P7dpOmh2yQm9p3kdoXD5bbB1wnh8WtVy0oWbbG1lCb23r58O4uct1jH0vFzEOlTGKqbNVAyH83lJHbRt0sHU88RK5r10V+SomRExrXUtvPSjlKGelddw2QJZ+9LoP7j5ItsfWk9sGHyZHND5PlX70li5b+LmnHnCYzX3pDVn34qgwd1k/adOguy9dsksX/rJYe1yjju/xsKR+tOur2v2TC8FtlyicbZfizc6TzYRkyY/wgufWt5XLmyY1lw7zn5OALbpHRva9RZwNxVOrhxMGn/YWRv5Ia+bNyB2eFUQRXeEogssFJD6HkOCjiDOPU4+WCxV28T7KsUIMtLucyjQ+XJW+OlCuGzJLe190mf8x6R75ObShfTO8sE4d2k5f/PkKeHDNOKqZoPu8TWkj81sXS57Ju8uKyJjLqshIyc9YiOXXEk3JZ2W1yYcdLpMyVd8rbA/Vn+VTZpEn0Vy/8Ur7+a6em462l+cGnymuz3pOzL+kqPc48Rp4fNVSWVDtZT/yIl/df+FyOOO9MqanpfX/9YJO0GXqHNFj/kjz88i8yesrTcnqrQ+T372bK9d0GSN0T2svtk++XOjqxEjL/lDEKTm/O05Nwh96jh3TWdIbhbRpAuvyhvtLhrtfkrG7Xy+lNlWWULCsplRvLiQ1qyvsjr5SJr3wl9838VI+fOkz+/PJluXHw/bKsVEt5WW1VR8etlmQ1nv/++UeydGNpWZ9cQn794jWZ/vZsqXBYC5k6+jYZes0VEt3kPBkx6k5pXVdk9dIf5VvFqCPqHySfTLpRBs36Sbqd3VeOa1hdlqgBe+iYl+XKazvJVRc2k+s7qX2n+Wlyx1UXukDJ2Bp1pWmzuvLipGEy9bHpUr/FpfLHZ+/Jmpi60vyo0rJ142LZUbaxPD1ppLw6ZbAMu/cVqV6tlKzdQPxVKel7+xAZrycCl1BvXfLaH+UhXVAefn+TjH3uE+nYIF6eHTdYRrz7p5x3WjNZ+eV02Vmnldre7pGKlcvKwp+XuqDLOrVqSuXyZTR0QwNJNZAzKtLP3gpPTMm3WkU2OOlpsuordlHhOznETrdJlNSBl6GhAW+8+rJ8/c0XUq3ZMZK+eLa8+sUKub7XbfLnp+/JM3P/kfv7n+uOclpRoqWMveMW+fjVR2VX+YpyTP1K8sKjj+rg7igDL6opjz/1pqQ0OENOSNgob74zW068baLce81JGoeZrO7rlTLwarVXffWn9O1/t9RUG9HEKU/JQUccJ3dccYY8O7CvbGt1gzSruUsmjp4gJ/QdKU0PzpTPJr8vjW7vLy1S3pXeg56Xzv2GyuGNysoHM56UJfP/kUGj75eLrrtElDjplpvlan8ZIQ/O+FFatOsgJzWpqjacNKnRqIVEfTBRbnhE7UqXdJfWTWqrl6+ccqqKcrIC8keT+8vkVz+Tk/S7xmrc/kCPU/pl2Qa5Yuij0lPV0oMzt0tK9FoF0Qvlg/nb5bIeN8oxdXbJpCeflbWqMs5+8ml5YuIQefS97+Scc9vLOU0rypNTH1IAOVgeGDtCvnv1QRnz+WJ5ZvxL0u7ERvLTgnlyTodb5byLz5Jzzmkol7W/So9g7yKXtT1OSpcrL9vUntX4mPoy982p8uyzr0qL866TlR8/KG8vOlSu7NFGkjf+IMv/rSDXXXy8PPPknTJvbTNpf1yUbN0RI4t+3yTVD64vE8aNkaMbVtYTzZfKwxOGyZR3N8uQ+56UrifVlSl63NctU2bJ+FF3SOza72XYlJekw9kdpW6D+mpPnOVCNe4Zc7ec0kq9pLp+pWnISIKGQgRX+EogosHJ7Rdz0c96fAGnrxAjowwqSU/k/ejDD+ShKWNk0bIoTYqfLM1PO1XtOV1k1+oFcuvdj0mCHiyQWeJwOf2KK6T7xW1k8ti7ZPrr86S0xjsdVqecXKInx55xWCW598EJ8tIny+WgqNV6emxjuXTgJDmhAdtF9N2aQP+bt56Te6a+Kd8vXiNltiyTarUPl3Ov6CWnH1VNHht4jcSdcauWk6ZM5HFpctMIaVg5WeY88o7U7tldGm3/Ui657j6JKldPKlTV7TVp2+X8MzrLgMF3Spka8Rq/o4bb5I0y/ZHHZOBDL8iq7Rmq5u2QmjUqOSN7y+iVMujB52WlnubCfroEPVm3TNVD5d4h/WXDojky8fm35Oe/10qdQ2tLdMpGadP+fLV1TZJKpeKkSqxuGVFD//zZk+Xep6bLp9/9K1WSYiSxaiM5vUtnPSbrbFk4b7FMnv66fPr5JxKz/V8Xa3R2pyvVqH6tfPLa/2vvXGOqrsM4/j2cczjAuXDgKJAJDUMNUZQyjXkFp02zZi7XVubaKqstm5u9ab6pd5Uvur3oRbM1Z29qtmYaSoSouImmBZkXckISCiKXc4NzP31+h6z1sq0taBzenAv8L8/h9/x+v+f5fJ9nrz5o/l5vv/6eli2aoc6f27Vzx4d6bPN6LV1VTuZut67eDMobHQYjgAfzzdT2l7dqljembxqatWTji7JceldfXpmrLU/Vq/vHI7p4PqXF5Xn6qaNJC578TLu3+jQWd+iTfV9r3/4D2vnqDj3/zCOsjge0541dOnbZoe2vvKZNy+dp/8cfadeevTitt1Q7p1BvvvO+mlrOKMxW3+ny6PEntmjbtm2qJJZmUIokGkSrfbK33pq4juXfuLJJ7ZyMJMHcwLhu7O+PBEHY8+3NOtVCjMFtV926atLZ9Cuz9Krx6BG1tw6roGyltjy9GiwgqIG+2zrR2guDc0V1axdoYW2FfA6Xfrl8Wo3NPQTZb+r+xUu18CFaC1lGiFi4YYECKrSN6sTpqzr4XZt8kRtaQhC4asUGOYNdaj38hayVa7S0PKWTX51RAYFyH+fqaepSYf182W9cUOPxXg0EYZbSfZo3q0xrlm1S+ewSJaC7QUzligXVdf6cDrSdxTkx5Q+FuF+LHtywSjVOm461tdM3r/9PMt446pee3aqRG9fU0tGh3p4h2mTZVF5RppqVy1VxXyVbRVZkpDeD2M+dPayW1g4dPv6DihIjmvtAnRbWP6x7aGNlNGgXaDra0NAgP52OF1Uv0CpaKxUXFant1DG1/3ZLa1dsVimrwVC4X59/elbzqmC6Kt062nhOF7t7aHp5G8DTp27iWUtqq1VVnNblzm6u/zklOon/+StUUz1bXedOaiQ4TaWuLGJy11Sx/gVVTTecl0PtF6/haFrJuK5WTdW9TEJhtTYd0nW/SyuW1aq02KvOS1d0CGe0bm295vM9/0rW9OC3J9R1vUfzaXK6YeOjsG5GyM0RjYAZsbUVQfDUY+JaYFI7J2PWO1S1eW6kFxmHxQAdF3yOKTiQKzv90XIcIcXDHtnzTIavn+d3K+2EliZG5R/qU75veiZAOhSGCGdlgfgCPbGVZCBwYrxYUYuhyGkQmSDwbhvkDL4M+Z2bGlAUuUUSEjkvFUAjh+A0x6184kLptIdGn+aog9CIPkWcEOyAlbZRiOW8YVZ7ZLHsJeORWquhnXE+SWh0I/XIQsoBCZ2f0QOCR1gMJl0gJzBoFLwg4UojumHmB/zMCJ1BEAxbmY4gnQFsNFUUgmjTPA5o7wivqYRAfJqKB5DqBlxNQsFbEc+STPCHvLJTXCBPgKM4+5BlhgpMY0/EuYaVNw/Y8swK1ZIh0bkGBL82tkopjpXKCXLuUaRxxbT5NvcS0iCxKcc0l1xsf40FRiDijS9wakiRwKjinpm49xH1E0UiH6d0MKCYu9Cw39g4oWFWsAU40BiTTBot3xhEt4s276ZKRBarHiMNCkdjxI8sVEyIypJLhQIjszPt/rh2G98XhiBeZfR1NFz9YwzeEbIYCt/G51OPiWuBSe+cxk2byghXbWjKzDg3w8eI9O2wQJY4PI99AKoazUQE4ptkj9sTJlhOxQHCyk6aMVocQDgMnGSyTwkG+e2wTSVIG0yrtWxiTZaxQsUJT6D8kBUfkaZigQnSjvGf7oJSjsFSx/jQhXMyIrEAs72H6E+Q97NCbLfspqSKl8E0QlrcxuBxUUrlKn9cStkUBxo4M35pwEmsLCv7LpyGobX8DPd8FXE+M9qijiDvQbpTNSHJYIzksq5Ku+QwNLxxw0bOYZwlrxMcx5rrViAxpHxTGwYBc9TozfBJDHO2eNxzivszkp6xmzhpj7GEPACowrEGuC9PahCHmIcjM86JEjHIgAzwasXOoVBEOQX0f8OkxmfFuHZ/oo9M2hy2l1x7pA/xbQmuJyUv50sE4op5vZmERU68L5PC9yc9yseefraK+eYUMGJB5CrDg7dUBvAaZlJwRmfwu1R0QCA8/mPykZSYCTPZGC9okm2pEBm4MWUXmsnlr/6dNvoHIgcYV/UgGTJlaMJUcHAj/kVOnQkBTBVNmbiOyVzZ/8Q5TWwjT13dlAWmLPDPLfBfOaffAR3AoQiPRsF8AAAAAElFTkSuQmCC;" vertex="1" parent="1">
          <mxGeometry x="130" y="570" width="245" height="155.31" as="geometry" />
        </mxCell>
        <mxCell id="HsP99W9kWxpz9ayobVGK-13" value="" style="shape=image;verticalLabelPosition=bottom;labelBackgroundColor=default;verticalAlign=top;aspect=fixed;imageAspect=0;image=data:image/png,iVBORw0KGgoAAAANSUhEUgAAAScAAAC7CAYAAAAniVjNAAAgAElEQVR4XuydCZzX0/f/z+xN+16UtFKoiBSFhCyRJSGRlGhB9vbSQlJIhVD2bNkTsi9libKEVLakfd+mZv+f5x2n//1+flMzNTPN5zPzfntkZj6f9/u+7z333td9neWeG5Wenp4pebyio6MlLS1NVqxYIWvWrJHU1FRJSEiQuLg4SU5Odt/t7YqKihL+2ZWZmSn8s89Kly4tGzZsEN7Dv8TERMnIyHDvadiwoVSsWNE9yjMpKSnuvdznl5HHJgaPBxIothJgHjHX4uPjD6gMovTFeQYnakzlAQUuBTyJiYlxv/uf72vLDFwAIn6nTMqLjY11wLV161YpW7asK3bXrl1SokQJ9ztgyDMAFPcGVyCBQAL7L4GIB6f9b3rwZCCBQALhLIEAnMK5d4K6BRIoxhIIwKkYd37Q9EAC4SyBAJzCuXeCugUSKMYSCMCpGHd+0PRAAuEsgQCcwrl3groFEijGEgjAqRh3ftD0QALhLIEAnMK5d4K6BRIoxhIIwKkYd37Q9EAC4SyBAJzCuXeCugUSKMYSCMCpGHd+0PRAAuEsgQCcwrl3groFEijGEgjAqRh3ftD0QALhLIEAnMK5d4K6BRIoxhIIwKkYd37Q9EAC4SyBAJzCuXeCugUSKMYSCMCpGHd+0PRAAuEsgQCcwrl3groFEijGEgjAqRh3ftD0QALhLIEAnMK5d4K6BRIoxhIIwKkYd37Q9EAC4SyBAJzCuXeCugUSKMYSCMCpGHd+0PRAAuEsgQCcwrl3groFEijGEgjAKcI730415hBPDhXlHyekbtq0yR3sWaZMGdm+fbtwejEHg3Iy8bZt26RSpUq7DyP1RcCAoIzgUNAIHxhFoPoBOEVwJ9J5nDDMKcScMmynHPPz008/lblz50qLFi2kdevWDqS4/vnnH3n11VelatWqcvjhh8sxxxyz+zh1AMmOfvZPT45gEQVVj2AJBOAUwZ1nR59bE+xodFjTww8/LI8//rg7Kv3GG2+Udu3aSf369R1gdenSRXbs2CGXXnqpDBw4UKpXr+6OXDdAsuPYI1g0QdWLgAQCcCoCnWhN2LlzpyQmJjqV7qGHHpLx48fLli1bZPLkyXLVVVc5oHr22WdlzJgxsnTpUjnnnHNkwoQJUqdOnd1qHAAF8+Le4AokUJgSCMCpMKWfD+/2WU5ycrIkJCQ4BvTBBx/Ia6+95phSv3795Nprr5WtW7fK119/LX/99ZdjVk2bNpVBgwZJgwYNHHPCfmW2pkCty4fOCYrIkwQCcMqT+Ar3YQDELsAFNY8L+xNAtHLlSunTp4/AqB577DFp3LixM47z3KhRo+S7775zoHX55Ze758xwzu8+UBVuK4O3F1cJBOAUwT1v7AYPnBmyzShOswCre++919mebr75ZqfaofbBjhYvXuyA6eCDD5Zx48ZJzZo1HSBRJuwr1J4VwWIKqh6hEgjAKUI7zq82gARbgj2h2tGpgBWgBYPq1q2b8+jdfvvt0qZNGwc8SUlJMmXKFGeDGjJkiJx11lnOo2eqYcCcisDAiPAmRDQ4+RPIbC9MVCYfq39Rv/zO8+OTfPaEVw4Agj2ddtppMnToUAdC3LNgwQK56667HFC99NJLUrZsWQdwXBs2bHCAVrlyZXcvbIu/uXymFskyRt1lnADsXMiQMWVAn9e2MQ4pE5lan1gsGvK09+Jl5T5YrTFe+87qw+f2mYWPWH/ktZ7h+nxEg5MJ1WcO4Srogq7X6tWrnapGcOUhhxwi5cqV2x0a8MMPP8h9993nwOe6666Thg0bOmYFSxoxYoQznt99990OvJgAn3/+uXz88cdy9tlnuzgp7ouLi3PgxD8f/Aq6XQeifAMMQMTAOb/eC5AYwJizwRZVX3X2HRu+7RBZI3MDJAO84uBNjWhw8iOiGUxmIKYzWY1KliyZX2MsLMsxUKbd06ZNk1deecV54Lp37y5HHXXUboaDLAAcJkXLli2lYsWKbqVGTn///bczjB999NHu73nz5smjjz4qCxcudCEIHTp0cGEFgBbPA1JFBZyY6MjO2I0PTAXhrTSZb9682bFX3mEsLTsWtCe7H0y3qI9tY7KMNbOnHqhJGKUdlZkfL/MnCpOHTjbPldHg/HhPOJeBDG655RYHJqeeeqqLXWrSpImrMmod4BLKCGBDfAdQod4AUqh2hB8ATLCs+++/33nyTN0wdS5UzQtn2eytbgVtVzOWQx0I30BubCMi9gxwok+QPf1DxL6ZIowxmOqH3XD58uVSqlQpqV27tmOyfJffLC/c+jGimRPCpMNZgQyUitOeMF8VAJwApdNPP10mTZrkYpcAZ9+uwmTkb9vKgvx++eUXp9YR/4Qqt27dOjdGsTURxNm5c+f/4wn09/OF24De3/oYC0emyC2/7E7Ie+PGjc62t3btWlc92CfjlO/4iazxlrKdCDUaD6o5JlhAZs2aJW+++abUq1fP2QytfoHNaX97e+/P5Qtzsu0a/qsYZKzwttoXTPXDo1SzR7CC9urVS6ZOneq8cYATW1XMTmQg5huymRg///yzi3969913ZcWKFbsbZXv1nnrqKenYsaNb2W0fn20w5uaisHL7Rmu/V/MrlAKQgfWccsopLu6Mi8WBzdcGVIxVxjKghE2wR48eUqVKFfc9tsQHHnhAHnzwQQdc9FVxUOloe0QzJxtArEhMtlq1ajkGZds4wgNCCr4WAPI111wjL7zwgpx44onyyCOPuFXYwDvUu4YK98477wjg89NPP7lVmosVmYnC/UygiRMn7rY5AUrGKgpaHSp4if3fNzCWzIYHqOfHhW0IYEfe2PqwNV144YVy5JFH7rYHInvkPX/+fPnkk0/cViLYUdeuXd1YZmwTh4aK3apVK5kzZ05+VC0iyohocELC2EdwlQNIBBked9xxuylxRPRAHippxlxAhUhwDOIMfNQ7sg3YxQTAqEgE+LfffivvvfeevPjii27g8x2AhPwoxzxFeP1gYOedd5773mdJRSWUAPkgQ8Im8HRiF6KdeDP5h40nL5cxVlRnwAnZwm5xMljZZtyGxfbt29c5Lq688krHlCpUqODqhqcVcDr++ONdtgnqnF8Ampf2FfSzYQ1O/iTIjn4zuYYNG+YYw0EHHeRWHHbc22XeEFsVWYmYpKar55NNvqD7aI/l+zYHY06sroBK3bp13QA2j9SqVascW3r66acdQPlbX4w1GTDxHCs+6gQqBpfveDB7SGHLLyebi/W/fx91B4RpI+MLGxspZAhI5W82TTdr1swxUUIrsAcZiPkAnVu1D/aKOoc3lLFHyAbeVGOiVjdAigwR9B19iPqG8ZxnASrACVY8e/Zs1ze///67W5hxaJASh8vqh40LRkx7+J4F27/oy19//VWWLVvmykDjYAE66aSTpFq1av+zjanQBre+OKzByQRjhlxWGwYWAwrhPvPMM/LFF1+4HfYImI73wWlvgvWNyYXZAXl5N5PPDN7XX3+9PPHEE251JeDyiCOO2M2CUBlYsd944w3HlvAKMZCZEHb5rMnACQZm6gWTjOeYVJGk1gEi1J0LcDCHiQVcYvRHbQKUDj30UDcx8aY1b97cbf3BzoM8sotNyqnvDMCwG7F4Mn5RlRmjlEcdqA9gw3uJ4H/uuefkjDPOcGMbcGJRAZioJ+Dx/vvvu/thWDhBCBlhaxKM2QCPcJDnn39evvzyS7dF6eqrr3aLCwCE/Qvm/OGHHzpHCGMAzyxxceeee65cccUVcuyxx4ZFH4c1OPkAYiyKz1jpiOuB4pqNiZxEdCLeJS4bGExg8y7ZKrW32JKcBly4fs8AZdXF8EqcErYLEsvNnDnTqb0AlE0GUwf9tvjgZBOGzAWEEliEM/czUbNzRBSGXHJibntjVoyPzz77zKnDv/32m9x2221Odix6pJvBYM0Yw/tpMUm00WSYm/ZSBs/ibKA/AChA5uKLL97N3ikHMPzoo4+cFoBdioWG+tAPABtqHc+dfPLJzqNK/+G9u+SSSxw4Me75zvZEAjx33nmnfPXVV26DN4yMPqTfsEdy/7///usAjRAGmBYqLSELtBcWSV0L2/Ae1uCUnW3DBg0Tp0aNGrsDB0F/Vno6DDCiM7IbnEWBMdnEgDXBBmgrXh48bwz84cOHO0YFSKEGMBC5h9WRgWggw2qaHXPywQl5hm4FMhtWTmpVbiZwQd4DG6HuZp+xkBMDGZhm//79XbI9xhPqzx9//OGMzownJi8qnn/ta3AmIPjnn386tY4LACQkAHWL8c14pK8IhAUkL7vsMgdMxDPxLFoCYAKL41kWZD5/+eWX3Z5JGDJqHyqfeVlhTCxWLEiwKwAKOTAWAD7UOdgbKju7CQBHVH1YHeogDI46AFyFeYU1OJlg/OBK4j4QOsLEaInOzMrCys+qcNFFF+02iCN0KHB2++xyWnULs1Ny+24fHAYMGOBWPCYTqyiDDPrOBDAW6QcFIhObHLYtxWxOABlyA+zat2/v1Ivs7C2FLcP9AUfAhXbyj0lP/BExRth5ULtgFzgTDJRpu4EZ77M25/bdvAdWgqrEeLQAYRYVCwVhMQDw+Q5QARiw/TDuUTdZdDFZYFvCjMGF86NTp04OQFmEqL+pngDdDTfc4OYJRnZsh7AiNnjDCjHIM1domzk7APLp06c7xsVcAqzPP//83A7FArkv7MHJBpNtPOVvBpBFKbOCQM0RMq5xBM89fjAmgscuhb7NhLS9SpEesMlgBqwZTND8119/3cmBVZ/V0UDZQgUYQYAO8rGJYUzSZMI9Bk7IFS+TMS3sE0wqJhw/TV0ukJGZi0JzAkfqR9vxeqH+wEa4qD9jAkaBugQo0X7uZ2wRI0YKYyY26o0PIlat3DBw7uEfzJWIfcon+2ijRo12B2JSP5gTdiI2YlMP3kvcGnFPgBPgAojSF6ii1t+wZBZoFhGAi7FN37Fww34IrIUZ8uyPP/7oQA9WBQM74YQTpHz58s7mZI6T9evXOzMAqi1l9uzZMxe9UHC3hDU4WeAfnZHdSkVnQM179+7taPKTTz7pjHr+thUmIm5ahE5nsYJwGUgVnGgLvmRTywAjwJdJYABkkfPmmUKWtNkugMsyOGTHnPgeewkrs63qqNQMZIt3yi17KChJ5AROBqCHHXaYCybF+4YdBQCiTahD99xzj5MDgIG6hZ0OkEDdIZ3xmWee6Tx2od65fVHvKJOIfeQ5duxYFypgdbMFEpWO8A42YvNuVHPULlPrqCfsCNsUcn/77bedPZD+AbxQ6wx4v/nmG/c8cVNkOqVMVDo+g00BxrZg+QuMPw5wEgBmhXmFNTiZYLILI6DisAa8GlBYsxuwMpmNwWxWdAArBrEsrCxMPHMpF6bw8/puBhNtRV1giwMDF7n4TgCLEjdgMtlYwKGvpphaB6DBsAB9VmbKY0Cbjcv6o7D3LuYEjvQzcUIwJ5gCRmkuwAlwIPQE1Q62ye+oScQkAR4wFsIJbrrpJhfQyoXMGD+0O7exXtyHxw3woz6YIAglCL0Yo9im8KwBjgRr4nHDIE4dAYu2bds6Dxt9BjhxD4yM79lTaWonoAQg4dHDyM7v2KrsJwwSG5ipgcjCPL+AN78DjKj0hXlFBDjtSUAMFtzmt956q5tMsCg6LFIMtnnteF+1QA3AZkB8ExORgQmbspXRvHG2LytUJbNNpgZiTCRki4GWQR8al5PXuofD8zAnJi/gNGPGDOeqJ70M4AQLhYXzPazHrn3NCEAf0Q/mnsejSvmAHN9ZvBUAARCx0KKeY+/BKw1bhf1gT7TtKzAw4tUAOVIvw/BIb2MX4QawJDQF1DuM6fxOOQCXxQPyfgNbGx/0P30NG8fuVZhXRIMTHYcqN3jwYLcq0fGsfmYTKUzBHoh3m/cJ8GClI6sAxnAONEB9RTaswsQ2WWZMqxfGUNvsaoGaxqK4F88eq3xRBiccBshqyZIl7vgs2MeaNWucnQY2igoGk0GtM5ZmjCk3QZi2eGAQh4GygAKIeNlMBfNZGOYH2BpqGfYejNbYgagHcWrEsAGiMEECamE22MdgTkTyGxMigJOQGtoAIGFzomzsa4AacwR7G+ou7bC9qIwTnkUjsaPEDsQ43tM7IhqcECreB7wQrH6Ak8U5FaZQD9S7fZWMSUQ8E+l2WWXxQGEExWFABD0ThItVl+cwCHNlFy3vhxIUZXBi4jNxMf4iB8CDcQRrgn0ymflpQGROA8ttlZNDhbANbKGEJ6AaYuCG0RDoSFmWpwimzz2YKAAa7gOQ8BhSBp+xUGDIxnbK+1HTCNYk+BhgBdRYUGBIePcAXsAKJgazor/x8JmRm7bBvBgP5lF866233LNsXeJ71MjCvCIanBAcAiWqFl0ZGwnUlyuSopj3dwD44IRnDTUMwyiTzewkqAqoeLAq6D6D1Ci87xqnDqGOB5hXUQYn2gyzBNSx5WBvwoOFqoQ6hJrH35bJEvkYG9oXg7gxJ+TN+CTcA0CC+QMoqIosJNTFxjGhITA2bF+jR492AEXUOl49Ln7ClqkzAAWLwrNIqAHAhSZB+cQ1sWhzsQGZhRz1H5UNA7uNE0JPADZsdIAiYMgCV5hXRIMTNic6gBUQ3ZkVh5XPH0yFKdyCfrffeayeRDRD/RmMUHY/g+CiRYscpYdJGYsyj5FNOH9vHZOEcooyOBkjYp8a/1BrsAEBSHj2TH5+UG9u1Dnrd1ObsWMRf8c4Nc+n7W20LUEAF/ZCwgNQu1ADuVAzSSKIQZw6YQjnXhgVKhhxSRjSuagbIQXYyAAbAA+QQ4Uzby0hJpQFiyIancsClpk/2GxhVJassKDH8N7Kj2hwCh0o5qnKiW4XpsDz+91mwCY2BrWA1R5bhRlxLVyAAcjkYMWFRREXhW3BLgsKNDbGqs1qXZTByd8SZeERyMPf5Mzn9p3/+770I2yVDKMAEr9bJDcyx3NI32BHIoQAUEKtMnsirApwA2xgRoCHaQXUH6M54MSCw9/0F+EFPENcHyCDHZJn+IfqykLF1ha21eDBpl3sK4RFoTrizQuHLUoRDU4MEDsKyewAhb0faF8GbX7ca2wHWwJqmO2tgzn5qq2FDjAxvv/+e2eTAKDwJLGCWtpXi38hdACQK8rgZPK3mDDzXJknzQIzQw8m2J9+A2Qo1/eOhZZjjglTH+29pkLaT9uEbSEjPIfxm7GPmuiDqx8eYvdTB8qmToQ50E7UPD9FzL4wxP2RR26eiXhw8jvCtwOEA/LnpgPyco+5fRnMGD6xNVmyObw4ZsANzf3DwGNgEm0M28J1jRxRMWy3PAMVZ0NxACe/D3xWEhooGcqocoqzolx/TPpMzUwPti1ob6zMkif6/W119se5pbLhO+7l3Wbm8LUJfztTqHGfNvIvHBb5iAenvEzuovCsrfoEC7J9B4MrDgKCUnNKSMYgxUuEHQOPHnuyGBC23wrmhGfJV5dtgu6LQbgoyDlow4GXQABOB17m+fZGHyDwysCcACcM3xg3czrbzFgCqy+eGrw4ABUePgCKzZ/sXmfVBchY5f3VOd8aEhQUSCAbCQTgFMHDwt+eAzjBnIjLAaTw/PiZBPbUTFMnADoMq9iiUPPYPEpowgUXXLD7sAjUmACcInjARFjVA3CKsA7zq2u2A0AKFYy9deT3QcVDrcvpym5/GJHlABNePexXgJ2/2bc4xI/lJLfg+wMjgQCcDoycC+QtvhGVne/km8aQCUDZHrq9vdg38NpeOzOcAlK4vVEPeY+pdZTnB38WSMOCQgMJ/DfOGKMRe+Jvce9FcyuHeo5ya7BGTTNVzdK8WoyNn2/bByd+t/QaxV3+QfsLTgIBcyo42R6QkmE8xoBC42JyqkB2AGZBgb6nz4+VoczcAl9O7w++DySwNwkE4BTB42NPIJHbXEN+oB2xNHZMNiKx1CAWW+MzpcDuFMGDJoKqHoBTBHVWTlUNBQ0ffNjQyQ55QMYP3LP87NxrqZBDmVJO7w2+DyRQEBIIwKkgpHoAy4TZYPz2I4DtM9sGgdpnMU8GPLbZ189macGWxSUf1gHspuBV+yGBAJz2Q2jh9IgdI26HGWSn6uF1s1NE7Cy1UA+cGbnNGJ6bGKlwkkNQl6IngQCcIrhP/ZzWNMNnUZauw0/7YQBkp20YawLgGAjhsJ8qgrsjqHo+SyAAp3wW6IEszjaE2jt9WxKpXon4Jqk/57BZ5kUyEJBYDSDiuCRSZQBaDASfLQVG7wPZk8G7spNAAE4RPC4MQEyVMwM46TPIKMAGYIIoOfW1TZs2DpCIIr/jjjtcq8l4SD5rP5F9ccjmEMFdXqyqHoBTBHe3GbVDAQV2RA5oUq0CXGRLJKUKdikyIHKiCNkIOOGDk2SJKLeLBHR+Xp8IFk9Q9QiXQABOEdyBxpgswtvSydKpbAImywDZEDk2imOuuQ91jyRzgBR75wCwGjVq7JaCAV2g1kXwwCgiVQ/AKYI70kAJwzi/m0cOgCG0gA28qHSoc4AVIGRHawNWHHzAmWaceWYszJiTBXL6AZ0WhhBsXdn3QRN6pLmBv4VvmPwtn7f9ve9vyv0ToXsrwy29dQBOue/LsLtzT+zGGBVR3qhtHHPN0dIcH4WnDi8dJ7FwDFDVqlUde+IQRf+kZP+QTfs9HFK3hl0n7KVC9EPoiTZ2ux1wYPnEQ4s5ELI2pm0OET8dcW42jhd0XwTgVNASLsDyGVwWl8Rr7PRYBpblquYEjmuvvdYZvQEhO/gApsV5Zqh3DzzwgDvZw0ILQre/WMYCW9V514GYPAUoukIpmsmGLC2kw0DfrwzfGUM9UEwmlKXtDVQPpOACcDqQ0i6Ad+1tH52FGnBwJGl4OXgR9kS0OMZxjqbmHDOAi+OC6tWrtxt0QlXF0AHsqwQF0KwiU6QxpNwEtRZGKhp/kTkQquS+dGwATvsirTC81w8f4CQNOrRRo0aOUfEdbIqjqAkfqFKlijvhlp+AEwc28jfHFmGT4lgpLk68xXDOUUEcMOlfpkoGBvOcBwN9YRMe9Y0+8W1PPuulNP9e7s8NoOVciz3fwcLGexgj1AUzAJ5af0tTXsrP67MBOOVVgoX4vKkIRIFzLBTBlbAgMmFyWiuD27arcFYd59YZc6LaDEIyXs6dO1c6duzo0vEuWbLEpfnlJNnBgwe748353K4gTW/+dPje0s74Z8zlz9tyVwqOFMYS4yK3mS1yV/L+3RWA0/7JLayeYjCTQ5xjnjjqmgMOUNG4zPuGikd2S8DLX9G5h8MVOVmWgxZnz57tTpJl8jzxxBNy6aWX/s+2liBIM/dd76u+BMbyN8wEtRr5Ikt/gcGreiBZC+8meypn3fGPy5h4OKjtATjlfqyF3Z3+6suhms8++6yLXQJUODUWxhNqVPXVPVgQf3/xxRfu5FgY1K+//upUPsISCOTkaKjQjAesruFmnwi7zvEqxBHgCxYscOoysjTHBWBkh8LiLYXtcuovarcdz1WQ7eLEnd9++82dJNyqVSu3CNn5hQX53tyWHdbglJsJACNgglmMj03Y3DybWyFFwn09evRwjIltKlOmTHGnr7AKM9gsTxPt8AGN036nTp3qtrnAnLjPTvxFnhwNVdQP1WScmCud3y2cwg69tLQzdvqvudhzyyC5D9nSL2vXrnXlkyXCTv+1/FrIHkDiKPE+ffo4uVMHyzZh8VD+QuHvrTQ1jLbQx34m01AVknsYFyw+Q4cOdduYcIywDxNmFy6ZTsManAwUrGMQGh2G4LNLeu6fVlocDLZ+FoIbb7zR2Ypatmzp9tVxHLk/QC2mhcnAZMHgjR2K1ZMNwlx8Zx4jVvLJkycXaXAKtavYZPA9WIyzvAQrAk5E6bP5GhUbAKhQoYKTs41X1DzACoZFUsDjjjtO+vfvLxdffPHu+2y8Ux7/ypQps1eDuQGXgShtstATsyECTKNHj5aLLrpIRo0a5cYM4BcO9ibGY1iDk3kzLDWIrRrr1q1zE+yvv/5y6gv6MvE7dKANrOIATnSgTRy2qKDOQc8BKYtn8gca9y5atEhmzpwp77zzjjOGWwyTBQOa67s4gJMBMY4CJjMT3hgSKg6yQQ7+lV1yv70xa+SJTa9p06aOBeE17dChg/ud8QqLAixwXGDzmzRpklMBcVDgQYXBWnyUHdFFmTYXYLrU2VivAY85LuynaRL2E08tQbiAEvUhWBcvbzidTRj24MSK4qsmixcvdoZfdtezwZXBU7lyZbnyyivlzDPPdKloDXVzc5Z9JKhsOQ1+ALl3795OLoQDoNYBTr5qi0rx4YcfuhN9v/zyS7dKG1vyPTS2IDA5OQuvqKt1sEb2GuKdZGIz1mAbjCnaDovxr9AjtHIaP8gT5gRjApBgo927d3fAh9z9xYPPpk2bJgMHDnRAOWPGDDn22GMdQ/JVuI0bNwphI1YGTg4b99Tf1FM7MYf2wMgAQC76FtsWrGns2LEuABeQQqW0+ZbTUfY5tTs/vg9rcAptIJ18//33u5Noocjo/wwofucY7r59+zr9mUFQXGxO1k68ddiPMIgzAfDWmb3i999/d8ZybEuAkm8/QcYWkWzyRq5MHBhYUQYnxg0xXoypH374wXnRmMhcbOshMPW8885zalhubUz+mCVuCEbDwkB/+IBvDN9+GkgBlNddd50DrbfeesuxGbQDLlgQajj3fP/99/L3339Lw4YNHYCdfvrp0rp1a/e+0M3b3P/ZZ585hwdjonbt2oKNEvAjBIVnR44c6WLa6Ptw0TrCHpz8bI/E8RDDg0cJloQKQwMefPBBYTXBs3TPPfe4Da7hYtTLjxVkT2X4EwbmBJiwCgJStWrVEtzXsCU8cZ9++qlbbblYHU19Cy3btr5wT1EHJ9qOOsPEZOJjFwKUUXkAKtjEGWec4RZAY5Tm6t+XCcyBpzgoUNEAvC5dujh7oG0xsj7AXMEWI1S7+vXru7AO6lG+fHn3fhYXgPSnn35ydaIuMCoADrXx1ltvlXsbvEgAACAASURBVE6dOu3OF08dATji1dA4mCuYQJhTgB5lA1iodQTjknyQK7StBTmG91Z22IMTlWcVQdDYSDD2Qk9R4zAYrl69Wi6//HJn4EVPR4/mKG6jtIUl2APxXh+AURVIkdKuXTs3qRj4qL589t1337nq4IlBlgxOLlbZUDXF7BmssEXdWwdz6tevn2MPsA9kyARlAsOckAXJ+vzLmGpumBSAxzjENnr00Uc7kMFxYeYH3g/IwLBYSLA1AUxoCDBWbE7GZGA/9Cs2QxZlGDLOD4CKbUjz5893AEjurnPPPdeVyb5Ksk8wNwAv8nfBmlBlsTkS48T8ufDCCx1AGziZB7OgI9RzmiNhDU42AHxhkSQNcELYqCfQcUAJIUOHETITKxx05pyEn5/fYxBnlWzevLkbnAxWGBO2BuTnsyVjRwZSoX8jVyboxIkTi7Rax1jCQI1qh40O+xILW5MmTZyZAHaB7BiHgIhtygXU98VsANiQ0A/jN++BsZj3DNsStlP6h4WCcUwKG4AIIOFenr/99tudd5WgWFgO39nhFoAMnjeyTzAOADj6kHQ4fE67UPvxyjE3AC7CCFjICcyFbcGuUBFpW2GDks2LsAYn08NZwSz1hG9AJICMVY9OQJ+n85iYdkS3nbPO86xeeGUsZQgdFOkAxgBHVWBwosrNmjXLOQiQFYOOyWCXxeuYh8oHxlBPneUbR0XGjoHMbcAiM2Rndr38BNj8Lot2MAYAWnKlIyt/PxnsAXDCGG7GadpFW2FRqMqWJdTUYJNDbiOo6SNsQwAeTAn7kQEAfWGqNiCEKx8tgMUWtY6Le2A+MCmeJz8X4IXBnvEMGzP7FIZ0yiDeDdDD4I0qCDukL+14MMqFgZERlawUgBbgRFu5Z1+AN7/7LJSl2hwuyPeElh2lAsjc1xf6AZZQVrxJ2EVQV+gYVD1oOJ0FWNkr2C/GxCW5GkzC9P092V32tV6FdT+Tj8FPW7HDMQm4bKJZUjjkYLKwyWVslPuzAydzdQNOZiTmXUwsVuxIACfzcmF/Q6VBnWIyw1AAWCYmNicit5nUTHi+I2IemZJKBpWHiG1/uJrcc9pqYnYp+gVPGBMfloKKB3gANhbaQbgB9lQAA5ZmWgOTE7th586dnepHNLep4gAdtlYWIfocBoa9Fe0B7yA/GfPDhw93DIr3IRNblAFm2NMFF1zgwAsZcKGOct+BStmyp/kT1szJAgf9uA4aQmQzLlfiehhk5MdGt2YQ+eED5gmh08gKye58c8lmF8RZWCCzv++lDayeDGYMmzAB2swkoM0W/0In24DO7l0GYua1Y9IBPqzgRDYD9pRhkcfGTEO9fPvbjoJ6jnYwPvC2odpgUzFAoe54MbHX0FbMBNyHqodhmcUPRsHEhvUYm/BZfE71NnYFOAEW2LEAQ2ylZphGltgFBw0a5OqG+obqhtpm4MZeR4zWfA8gAS7Wx5Rj84OxjSqKeQPmhYOIhRk7F9pF6O4JVEfAENBGFbTwE2tjTuCbU/vz+n1Yg5M1zk+6j40JVQ5woqPYU8aqgjoDg2LFs5XET+ZlxklzrzMo9oO85VXe+fq8tZXBROI4mCTxK6zSTC4Gpl1+lsP/Q2OVgRkb4DtWTQY/MmbgWvoOJjSAiCwt4DVfG5TPhdEGC5q0fqfuplZhGEalY9xgq4PNoGYRkkKmUFzrTFqAzSa2b3fKqbq2OBo4ASR441DdLFiSe1hgYDk4ewAI1DEYlu2GwGtHdghYH2Md1z/P2SJhCw8/UV8BQoAXVY2QA8CJeCb/Yk7hOQSg8PDi8cagHticVJPIjVpnq5WtIKwMdC5BhtDgtm3bOrcsHQJTwBWMgEPTevjAZKtBUUj9YbnCARP2YyEXBjE2BgY8YIW6h2y4mISs5kxYLn+7CnIxJsQAZWJjx2LF5vdIDGilPcb6/DbYZ8TL4UQAeGAbjCe8X6hXCxcudCACaBCjZCzIGOS+qDyEEpAbiwUUYzYAYyfc0DeADp461CyixFElSauM+sd78boSv0cfADgwO8Yvi5NpAswRgJZ3AE4AImzs9ddfd8bwESNG7I5E5x5AeMCAAc5O2759e8foYGssOrwnHLawhDVzCvXWYQugY+hIVkI6DjsBE4sBxmrD9wiZzstpUkW6zcn3qjChACdCCQjCJGqYwDs8dua181dOVAMGtLFHH5z4jpWd1RTVzhKQ2SJhNolwB6y9eZ3o++eff94xTuw+gDrhBHg533vvPaeC8R1jCkZlk3Vf3ezIioUU1RA5woq6du36fwKFsSfRfwAGF55SzBW8D6AErIjzO+ecc5ydyN8BQN1gufT78ccf70CJBRs7Emop6ixtwVnERdvJjMp3sEdsToAmAGoyCz2wNSeWWBDfhzU4+Q2m8xhMMCcMmKw2CJKOsV3lGD1Z6VBtmEhGi/1BauH9lgGwIIR6IMu0FZ084djgTjjhBOckwPbAhXrHXjpWX1ZWGJXvjTFw8lkUqyfgxGTBPmIsIVy8OLmVr7+B12LlGAum4gEajz76qJvUjC9jjjALmBQmAwMBi5vz7XK5qQcLLO/BE8Z7Ua9I+IeMsYfBfszmx7jGBkR8EyADs0O1BODwwAE6MC0AE0CBIdH/xLFhvCf6H2+eZT1lMceGhb0VUOO9zA3AGGcAY4L64f0DNMkFZlc4BDGHPTj59iaYAII2Q7C5RhlwfIZah+3AdnkjaIsnsVgeU2fsu9wMsHC9xzdYMvAAb7xrBE/ieWH1Y/Az0LBbQOHnzJnj4mYY1D5b8sGJSYQMsbcAThYhzQS3eB//2UiQTyiwIhP+sYGcOCe8WmwzwbOHzQ5jOOocLDI0K4Etdrlhjha7ZGXBeugrPjf2j/xsUy91YYFFvQRkiFsChPAyo3qx5YT+I/cTzwMuLDi0hcUZcALYbEFhTKAKolrC3GDUplXwE7A79dRTnTcP5ujb5Aq7X8MenExAtsL7RmwLs7d7bAWyvwvb23AgOtfCBDB6YlBluwWgwoBmwNsE4j5ivQCpl19+2bnLTa01JmGsknuJCYJVsEIDcFwGaDxXFLydtIm2wmCIC7PYN1h5aDaC/elLU4MxShP0SPAwjAwbj13G6EzGgAgq1xtvvOE8iNgSUQlZZAFPIsUJtmSri9kOCRw95ZRTnH0Q4z19Th/RNsALwOMZ+h8wQn3Dk8fCjwqL2odZgDCEcLA1+XM+IuKcsgMnf8DYJMzNarY/Ay0cn7HVH6Ag/w/7rlgFsRWZWke9zQAMCPE7dB73NF5PizL2t7QgayYLdg9sTthc/Cu3AYjhKLM91YnJb4n2kFN+LGw+WzPjvIV3hNrDrC/53DynPG8xSb4DB+ZEP+LswOYKqPDTFhnTDqwN9Jc9AzjRtwAeF8wRL6JpIda3pnIWZh9GDHOyVS47QCpMARb2uxlMrNAYUrGdnHzyyc7+YJ4eP7OjUX0mAoZQgvug/exZpBwGKGDFRZgG5ZhaZ/L3V+V98VgVtpyye79vkyqM+uUEALAe+o+f1NUWCbN72baaPS3I2NHMKWRhNZa33DLH+u2GPaL6BdtX8hhkFGnG2YIc/NBzvDm4/olZIX4FQyqra2isF+DDgOUfzxE3BrXHHkVwK6uvqcsYYTG+UgYTAgDzV+eCbNOBKNs8b75TwLZJ5cf7fRWJiY8cTX0zTzSyNnXZVGWLYA9VLamnOXl81Yc+BaB8xucDb3YOECvLPN2UZ2EE+dH2/CgjophTfjS4KJVhzgI6kcBBbETYnPBoYtTlMk+mrYYMbguqtMnDCk6+J/7hyWHFxfCNDYv4Gttvxf1FMVeWySg/gcmYJn0TqiIa+Nvn/jodyoIMeGyzMOXy3J4M16HeRMaIpbX2o9v3ppobYytsBlXkwGlvHV2UgIm2+HFghBLAnAglwPZEOg1/xQzNP2Q2DKLpjeIT4wNAYXS1CGICAvneNg7bZtpI3zS9t7GA3EK3TO3v2LGyLPWJGXjNC+h7kXkH/WT2P9tjB+MKVaExrltYhIGIGcH9e/eWd8r3hDMeqIs9Gw622wCc9nfUhdFzrJbYh9hbRzwNHiE8ML4R1UIqzINngzY0noVBj2cHrx678vEC+YZZml0UoutpR3b75HxVL682NV9OyNu2//BuY618bixobyoz91tfhXpK/XCZPdWZe8w7CwiZOufbIQ04/YWoMId5kQOnwhTmgX63ucExYrKXCo8MhmwAyrw+vkfPVmZ/rxyDlgHqr7p4dPgbdY+gvVAVoKiAk8+yTbUz2eR3X4baSPnb/vnqkx1YAAD5Ce1Cjffm/cuOVZlKaQbz0Lb4C5KvNvr3FbazwNoQEaEE+T1Yikp5vo1hTytoqO8hu0nhy8M3EBcVOQXtiDwJBMwp8vrsf2psVH1fjZcAWWjQaihAhYPdIcK7J6h+HiQQgFMehBcOj4Z646iT/5nZGoxhAWKm8u2NIQWhGuHQu8W7DgE4FaH+N2OuAVFOHrWc2FMREk3QlAiUQABOEdhpVuVQdmNJx8wbs6d4FTN+W1xPoL5F8CAowlUPwCmCOzc0DGBvqhheDwv+M5e1/b0321MEiyeoeoRLIACnCO7APYERoGMBdqGGcmNX/kbpAJwieBAU4aoH4FQEOjd0OwSBlKTXYHMvp9GQS8h2nZNqg7Qc5AAiF7UBU6DaFYGBUMSaEIBTBHdo6NYEfzsCJ79yHBaZHK+55hqXH5soY7aokNSeZ0lORtYBEpDZZWWGBuEF3rsIHigRWvUAnCK04/xq21YIi+QmRw8ARL4m1DoyIbL3jqOPSAHLJmGiv8k4wJFBJCsjIjl0g2px2qdYBIZBkWtCAE5FoEtDt5OgupEChVziqHfkhyY1LBf75jiRg0yY5H7iHkDLNpuajcqPPM+PxGtFQMxBEw6wBAJwOsACz8/X+TmBfMM3ncrRQORqYkMw+cRR8zh0FFbFfiryUZOXmmODOHnEDjD1bU+BKpefvRWUta8SCMBpXyUWRvcbePjqlyUjs+RwJKEjZzgneXDKBsZzjOOkRSG1Cht7yQNl56hZdLkl4PebG5orKIxEEVSlCEogAKci0KnZpf4wDx7J9bt16+byPHGmHwZy1DSM55zuwWk25Bzney5sUeQRys57l91WmSIgvqAJYSqBAJzCtGNyWy2M4X6ecPvd97ZxMgtMieN/8NzxHSohOcRR+zgMAaDiIEYflFD/KM/PERRsecltzwT35VUCATjlVYKF/Lxvd8KehNeN3NN2DhrV49BFAIpjg1DzOM2WXNawJM45++STT+SZZ56RFi1auNasXLlSFi9e7E7ogEVZ3mu+s3QrgZG8kDu+GLw+rMEpO4OsTQ6bKL4h2I9+5r68ZjKMhP63uCSOHOfQUdhPjx493EkdyMYyME6fPt2dzXbZZZc5w7iBy/vvvy8ff/yxy3pJojpOBeben3/+2bGsSy+91LEpy46ITOwEln1N0xJu8vTjxPB4hib4t7GWXQT93kDayoJlhp42bczWTyTnywV1PDt7X7jJ7kDUJ6zBaU8CoNJm+LWd+JE+Ufa3sxnktJ1jpwkf4EgoDjggGyYDne8xdqOiMWk4MBLZmQyZkIQeAD4EbX7wwQfu9NtNmzY5I3pRBidknl2CPkszk1NWB1sg7dAIyyjK876qjaz523co8Bn52+24J+uT3Lxzf8dKpD0X1uBE5SzNLIL1cxGZoO1oHQsiNKZg90Zah+xvfckbPm3aNHcUNaBip69Y2ldLqG+M0k+KjwrHqbCvvPKKO30FOxZghaoH0zLZ+0w2HNK47q+s/OeI70IWoWrqvrTPl4t/uk3ogQO8i3L9XOHmaQ22D/3f3gxrcMrN4CvONhBfFUEtQx2z01eIbbJVmElhZ88ZKMGkWLk5VBO1DvUOlmVqG3YpGJgxJ54rauAUmkUUmdBOFrrQjA/Gkkw+2Y3NPbF4PKPkeOcf5cKWACMOoSCsg9N6ufiOhQE7X3Bl2TfDNod4djYno+E2EKwj/SO3i0vHmueMQU0EONHfbdq0cceIA05muwiNIOfzuXPnOrb09ttvuyhygArDN/dSHkZ1zq2DOVnSf78/suubSJO7H3gaehBEbsAplBn5h2jyOwdFIGfAf+HChbJq1ardJ9kw6Q4//HDXX+3bt5e6devu3oRdHGyluRkrYQ1ONMDUNCZIqD4euvHVKLo9F3qETm4EEqn39OzZ0+2ba9WqlduSAjjZZRuCkddPP/3kNv9yyi9bWMhOgJoBa+KnHVPEBPFtTvxdFAApu/4NBSLbo2iM01e5sjsFBZUw1E7166+/Ovlhx+Mk5XLlykmtWrUcU0LGsDSi+FkEWrdu7fY7ciAqV1E53SavcynswcnorqkjdNyKFStk9erVbvsFxl46nbQgxU1v91d+1DrA6dhjj5XJkyc7w7g/kQgb+Oqrr+Stt96STz/91IGUHT1uXk4bTEwYZDlp0qTdzKk4gBMAjTOAkAzkx5higcttnJfJG48nm67pDw4kPeaYYxxDIgCWvy3fFiEc9AfqHpuwidivWbOmkPLGDOV5neCR/HxYgxOd6Hs+WMmgyS+88IILIIQ2o6+3a9dOunbt6uJ4aBCU2vIXRXLn5KbuZmS94YYb3DYVDOIMcuwZdm3cuNFt9uVEYCLCzdZi9hNkBsgDSKh3gBa/w8BMrSuK4GQMyYJSkQ17DmE0tJuIemThG7D9IFRz2Bh42QGZnJpMPBnj8KabbnLlkJYm9AhxvsfmR6wZ3tExY8YI/WhbiXLT/0X5nrAHJyaSqWdLlixxUc5MQj4DmAgYhFVhc2FgseJkl/6DTrSBFfp7pHYwk4uJQyf26tXLgQ9Afc8990jTpk0dCMEE3njjDRcigCeOyzxT5tq2z+xvJhvlwpw6d+7sgN7S/BromyMinGVHHRkbpibRPtQpf/KbnWjZsmUyZMgQF44ByAAoBK6y99C/Qr1xlA/4V6xY0d32xx9/uIXyyy+/dACHUwFZotYh19D4Jg5CHThwoLMXot7hmLDwjh9//NEtwDVq1HD1fvfdd92YZwE69dRTXf/SJpjaN99842LTqAdZJiiLxZq2o9bzOeyZ/qP/Kfvrr792B7HyPWlz2ADOuPEPUaW9jCHkgweYwFxOlsYkgHyxlbFnE5Zp26LyC1zDGpxsUJhtCSGxsqCSQINJoIaQMOxCh6dMmSInnXSS61yzjxSHzaq0kVACwAm5GEgDSgwk1DgCMBk8DE4GNYPWv8xuwmcGTsacDMyKgkwBI9rHZKc9qFmYB1DBJkyYIP/++68TC3FjN998sxx00EH/ExXv26EMaCgLxwyTH5mzFQjVDAbVoUOH3WL2D5bgXt4NMAAS2KUAQssQAYPt16+fAw8AiXr99ttvru6o8AAp7BYVHmADPLZs2eLGPrFszZo1cwvLRRddtHs+UBFsjLBo6ontkXpTV54DeLj/ggsu+J8EhBCCmTNnOjsmIPfRRx85pmcxdOeee65cfvnlctppp+1ua37YzcIanGxVo6F0JrYmvEsIE4GA5EwgBhKeJigy2R25Qo3lJjXKMQNoUTGYAx6oEcgCwGZQsoITNQ6Q+wwJOTCoLb7G5JIdOMGcLrzwwt3R5rbB2N8yE87MifEDa/H3CFq0u19v5ASgY8Q28EHVYiEEnPxYKH+TtY0jG2uA3IgRIxxgwEBmzJghtWvX3n1OIOABg/IX3dDjz6kzFxpBnz59ZPbs2W67EYBDmZQBeLAIETpCvQEK2BTsBfChHaRohtXA3LjfgBEQJhEhoEegbsOGDR3IkLqZ52jvXXfd5UJIAELGBTsFnnjiCfd3/fr13Q6DOnXqOLCcN2+eW/CuuuoqGT58uHueK/QI+/0ZJxEBTtZYi7WxVQ/1jlUDV+0ll1zi1BmM43QEggTEWBloJB1oKwS0E2CinEi+aAMTg/bSdoImGSjYN8jlxMCySHo+p/12mWcuJ3AizziyRI6mFtuKGcq+wk2WGPaZ7LBGVB0WMGN/xnZwEjBZUYtwJuDuR03CVsSix2QztuWrw/6WFiYifyNfzAtssmZys6kaUEH2pgYzhrmPz/xN2hYag6wpCyZFkkD6FJCBLV155ZUOnLiHhRq2QnQ/IMbvhCbQLuqPekoqHAzxjA2YFBkq2NqEek95AAo55qnTX3/95YJ4Yd+og2RIRXWkPICahR858DzqLmOMcrgPJgbrYjFr2bLlbjNMXsdDWIMTjYPp2MZTQ2M6F0pKpyAgBh4rBB1k0b5+xC+UF1rKADS6aStgXgVYmM+jEjDAkQ9U21QS7G4AiGW35B4GvD/JbIXeGzixOrIZmD7wgzAtrUphtj0377boeCYSTPvEE090qpR5dbHnjBw50k1kJiSMEzYCO0c1YxJi7/EN3wYyALVtV0E2jCeYE4zGzA+UDThxGbvCE4j6yBimDEAKtmPBmB07dnQgCePleVgdIEFYAsyICxsXIDJgwAAXdEs8GqzKNA3ah+MIuxmABJMjbQ7MGlXRngFQfIazYMECp8rOmTPHxcoR3sD3ABIkAPADjLAx2QXLwpAPIwTczjzzzHzzmoc9OLHqwXQYAH6QG3YUBMbKh3eFlapLly7O5gQwca9tYYE1sSmWQDhjVUzeSA92o/7WRlzSDC5WOj4PDQ/wGRPPADD+lZ1ahw2BlRAQtAM4zagL8wpVF3MDGAf6HiYXDIq24NK3kBQ+R+1CLWKMwSIwIsNWmJwwC9g4cWO29cc2P5vnkrHkq2WoRldccYWzg1IeZcNMfGcC47V79+5OJaIu1A35MhGx6fB+1DDGLGVhBMewDnPBDgW4Mt4HDRq0W23ElEFZAB8Ml/qyUDHeCVPAPgXoUDZsDjkAgPQhIEkdbNFGjYS19e/f34ETdjDYIOog8qBNbC63sAnsvIAocoDlAU7FQq0LHchMPFv1ECaCZYXA3kJnIkyMd3QgHcm95jkAjOwzCzeI9E2WprYhJwYNdgHajhqA/QB5GXvygSQ78NqTzQnvH3I0ILcgwlC18ECDTm7eR/8CIPQ7RmUbC/Q/7AN1hQnF5GTCkpUBbxn3k+PqlFNOcQdD8B1XaER46N/E3jGpWTRhMjAy2Kd/YeuB9WAT4r2mosGQYHhm74GF4eRgEQZ8KMu0CDxt2MMAQS4AiflAH8NgGOvWZ7QFbyALNzYh3mMqujE6/rYQEsYL8qHdpHAmJAVgg+3xGfVDjrYzgzHHARqQAVgn4GSmhNz00d7uCXvmZIOCxqOW4QGhUxEY9iUACiqMq5wVBuGB9gY8psvbilnUopyNlkPhyWiJLFjpcGVD41lNuULTfoSynuzAiVUR742p1bZaZhc5ndeBWBDPGxswVcxUfcYSLIdJBXuy1DLUgXsYOzyL4RdzAePKH0/I0tQ0fzMvoAAz4RlkRR+wUJjjBYYEqPPT1ELqQr4tvHq488eNG+cYCuyIxZYyUOsAUYtFQ+VD7cTWiiEcxoX6SF1Q6TGm41WzYE7UOIJKYVCAE6wJNZZ6UWfzbtN+ZMF7AFXUXP4GxB9++GGnsmJXAgAN+FHlYHFc2IBhqBbiktc+DWtw8rcVQL0JGcAOgNARCLovhl861AYbRkyEty+7yvMqxHB4Ho/K008/7Q7KZABhK8Ew+9xzz7mtKrYb3jb3WhqVPalmrIwMSNRlJqyvxhWVRHOoSsTOwbphnIwhbJMYnVFnmWi0H/bgb0D1PcEGAObBBDhgOpTFQomtB9DxbacGmlYO4GT2MPoOlkO9MMoTbEwdYFsW0U/oAQsRwApw0k/0CeXCbG3/KawMu5rl72IBe+SRR1z5LO5ErBu7pmwrA0BiDpkhHwbFOzDIA7yUZ6yRBWzYsGEOxAiOZvzl1+IV1uAU6o4kyIzVDvsKg4nYJugvHovmzZs7ITGgbGd5OIDGgaqDgRPtxwCKbLgwiDKIASocA2Yv8Q3iZuy2oEXbsmEbfxm0obFORYGBAigseowzmAYLHSwB2x2MEeYC6zCDt7Fv3/Zp/cskZ4Kj2mFaQN3B4IwBmkkN07D9i75zAu8gzgz6D8aP5xDHDuVgm8K4DpPCQA1Y0H8Y0GHFhC1gpKaf8MbxDnsPjBmgxavHIs78GD9+vFPteAZwI+zEvIO0g3LRTNgIjjqPDY5+hqXxPhg5JhTA1rzgeARRG7mPccb+wOw2Te/PPAhrcLIG+RQaFoBxjvgKQAkhNW7c2EXlQjtBfMurXRz22hlIsPEX5oTrmMGKymsGc1Z3NqCiGjDYTb2wbSy+8dxyhlOurbLmAbXYKORaFJipgQXAguoKeDN5ASkABS+Vedv8oEIbjyYD+9vURzzJTGK2wxCKAHtCRcKrbGmPYTR4mvEM8g/GhW2Lxfe8887bbRCHOQFOgACLhmWOwDYG+yGeDfYEqAJAXNgbKRMwguVgCCdeDTUQ9kT7ACyAkLglymQuoZkAeLxn7NixziDPhe0LcOJv5IPKx5hAfow51EXGEnYxmJMxuP0BJP+ZiAEn84owEPAm0Jno1gwe6CnBZJYXhwbmRxBYXoV7IJ43cGIAsdkUIy7gxAACaJh4DDYGE4MW6k1cCmqDGcvNE+fvuUPtY4DideL50BxHRYE5Wf+YXZIxBjtHrYOJ8DlysMwYtsfOXyyRsc+kTC4YsmEnRGJzYSDHc2fbRzDIE48ES+Ezxi/qEyEPGMYBHRiLxUxhbOayWDOYFaoWfQ1IYHfCoE8/w4BgTswPFm2YDeWjWtL/OE8wyPMMgcyAE2oobUfFRS3lHoCL8jC+s1CxABJKwJyjLNoOaFFP2k1dYU7+/sO8zIGwBicaaapGaCPNq2BRrHzv0+aisLLnpmOtneytQ5UglIJBS0yMedgAKCYAk49BxQrHIMVlboGorOhMMgMoVlwGNezB3NO+raUogJPZ23yDuamvtNVXZ30gM5uKGbXtO2TnJ4tDPSSEBUaCM8dfDHgW4MMrCBigYpl7n/IIBUCtw74EYNGnZhC3fqXegAUqH0DEcmlBwgAAIABJREFUZcwKwzjAhIcNNQ6Qof8BLTKeMlZY4H3WjFqJOgtrhMXRfuYULNBUfJgTZIDyGDtoMSxi1AV2BzjRTuSA4yovV1iDk60UNmAsrsQ3yPr6Lb/7G4XzIphIedbaT1wOAw7DKqscq6KfncFAh0GFnYWVGTUPgMIgG3oBZgTXMbjNWxcqa7PBRIqssqunRYrznS+j7LY/GcMypulv4rVkfTah/awYxBvBWlHlYEz0C+APM4FNYR+EjQBYtueOn0Rtw5DYvoLpwsY/dTOA5Cflk2oZDx9lYz9jHGAbwlvob1Y2OxvxTzzDOOC9aB04UYjroj4+OBOTRV0AOcrzL2xmfE+5HG+fX5t+eUfYg5NV0n5aB1msjgVbGuUODR2I5ImTm7obYBAtj1sXAy7gBI03cEcm2bEAqDzgBB3HhoeKYeyJZ/CCAno24IoiOPn75mwyWES9AZYFX1r8jh9rZ17M7NznyNKAweKCYDgsDgCOZTLw7VnGhHmW+lgAKO/Z035RC+JEnWMh4V1+Pihf7QwFKgCTd2CrNXZlc81st8YsLeTCPL/ZnWuIg4o65IdTKqzBaU+qWag9KbQRRteList7byBlgIFnCXczLnDcu6gL/oVMDNh9wGdgsipi0+AfqyCTD28otgRAz4IFfbkXBbXZj4Pyjbg+C/LVVx+cfVn47AvgQV7Zqb0+EPp9Y5lK+czK8gHFWJK9305toQ/M9EE/+uUYq7MQBh/YQtO2mOcWuyLlmYMg1KGUXZvMucJz/kb6/LD5hjU45YY55HQPHWoU1Y8INwrv27VC1RTfQGxBjKEdZqqkb/tCqAx23mcqgO/pyondGZDkFMHuDxZABMYEnUe9s2PHc5IPA9WYApkZsV/wk8HFtgTsFhho/QnoT4K9lZ+TXSqUCYRGXId+b5uczQu5p8lusjYAtT4zBmD1Kg6LV079H87fF3lwChX+3lZ8H0By02mhk883rGb3Xj4LnRAGVHyXXTqPvdWDyWo2JFQwPENEDGO0xLiZm8nne1YAB4yk5IBiWxD2JqKTbUuE2VFCV97cyMq/JxSoea+vdloQoa3EufH+FAUmt69yLOr3F2lwym5ltolg+rMfw2MrNxPF39LgsyV/9bUJxU9jaAwYW9nt3uwGUeh2Ers39PO9DUB/QhK7gpETlgN7yo2xek/UG9sFbmVyEWEkhVn5sszOMZHTRDFA8u+zeCmzifkMx+w7xpaQsQUM+hHQ/oLgO054zuyQfr/yDlsQIn3jd04yj/TvizQ45aRy2ITLa7BmTurLnuqR3WrvA1pOzAd7AhPQByIDX0u0lpMMrO0GrvxtjCWUCfr13R+mEiqn7PIkcc/egDU3790bg430CVuc6l/kwclfsW0iZhc/ZffZwOYePxmYb2T3QSM7VdBnQRZHYhPO7FjmbTSWxqDb10llncc7zN1POaGTfm8DmnuRi38AJ+UaQIUyJrOh5eck2ZMtaE9qc3bsknqabdHqbvY0f9O3qYg5AX9+ti8oa/8kUKTBKXSVtbw6AINP6X2vh7/XKDs7iQ92AI1vtLZI4lDjOOX74LSnCe4D2b6wOTNW22TOLZPzvU+hw8fKCPXQ7Yvamdt6ZGdTsroZ6Oypz/ZFNaM+vpNjX57dv+kVPJUXCRRpcDLB+LEdvrB8lzGfM0ksbso2UIZOCnven3gWk2K2Jv+9BmC2UvMO8zLZxPcjfkM9TDmpZebZs/QXGK0NJHPKke6Dk9l2eMZX9fLClPaktvJesxvZZlXaafX2HQO+imeLiB+PY2X5DNSXWXaMKi8TJnj2wEmgSIMTe6QI12e/EGqPReJiqyFSF8MvwXBE6zLwCULkfktqxzNMdmJ++J2JZODCoMf4bAd8AjBE5BLjQvm8k/KY7ATb2b4/3mlRwkxCIoOpA5tCcwKTPQ0LA0qLsTGgzY3qYpPXj2gOZYCUbwZqK5ufOZWfHXMCkI3BEqGMwR25ATLIBtkhQ/aJEXNF3+AtZCFB1vzkb+SJzIhQ5nOeI/CQz/keWVI+fUnZ9CHv4XvLX5RT/Q/cNAzelJ0EIhycNGBs21ZJLFNWdmZES2q0SLy2skTmVpHNy2XGE0/JyBfmSmryTh3USdL5pjtl6NXtpWzSr3LPsFHy7Ny/pfU5N0i/cb2k4fo/Zepdt8qkz76VpGUpsis2ScofdYS0r1FTvllaShqef7XcP6CtfP/dLBk45iXpesktcl6TcnLnqEEy89MPJb5SZSlbJlHuvaOfVNOJcc/osfL18iVSoWw92R53qJyg+6Ou79xYnh/bWz6fv0EWphwr9UqtkAb1jtINlb2l3ektJS5Wg+okWTLTRH9PlKgIH7Pprv4Zsj1pq5QpWUaiM2LUsKYpaTculWefekCuGvOhtD+1k4x/8F45rMoieeauG2XyO5lyy4MzpUnZH+SewVOlepPjZGivc+T1FybJqKdnS2JcGUndvFNOunyIDLixibz79BQZOuEVia9yiJRPWiqNmrWQvkMmym8fvCkPTdbMoKSgTU9VF2qMi9ki4r1kiVjJcDKOcAEX8epHODjp0E9Jluh4zZWTHi2ZOvbjtMNiU9bL/PdmyKBhY6RO2yvljNYt5J2Zb8j2UjXk7puulHqxa+SsDpfLkqR4qVv/ZOkxbrh0PqqWbFr4ubw9/0t55cEXJb7WwXJt/2GSsuAtGTRhhhx50U3y+Ogb5L3Xn5M7xk6RLpdeIqvmzpYVu0Su6N1TypTIlKeefFxio0pI6yMby/vPT5NDL7hBOp5+jLz74bvy1hfz5bTjm8vGRV9KWlxJuXzoJKmgEzVa72/cqLEovkpqmmYljFVIytRMi6l6sGW8om0EX7vSUiU9I1VKxJcQ7RpwSk+s2CCLF86RKZPHyONzt8ix9Y+V3jf1kfYnRsvE27vKkCeWSYtOt8vdPfTYr/HPydYKDaTTua3kPu2jGse1k4HXdJFvX58ms79aIhdcc6ksm/e5LFieJud36SFldyyWl16fJWVrHSM1MrbLJ3O/kiu7XSWntdOd8tFRjsG6RGnKeksnqvoawbItDlWPaHDK1B7SzEJu1CcrOEXFRCtz0iVxyz/y4Ij+MnfJRulyx1g5/6RjZMuKP2VrYg3J2PSPfPTcBHlq1hzpdE1f+XrWZ1L5tLYy4vprRbdeyvq/5sjtF3aTLTUbymtvvyN/vn2vXHHHcNlU+WQ5tdGRsvrPpbJ06xY54cR6suv7+RJ95Jky6r5xUi1jubw3c5aMe/YTqa2TIHbRJ1Kuy5My4ebjZfnCV+T2u6fK5u1VpHRahvyzYqEc176tRKWVkMPrHSHntr9QgybLS0qanjQTzzRWiFUmGBXZ2CSZKs+du5IlsUQWC8xIVjCOSZVP3p4hD9x3jxxyQif5Ye58aXz8sfLgnZ10URgsg55YKDsrNpXzGum+tPWZsqVacylfoayqaItk0AOPydmNNF/2glfl1sFDZVWFZlIpdZskl6ovg+4aL0dW3SU33XybfL7gH2lSIUHm/7FEDj+ikZSvVFHKV67k8n0d26ypekV1AdMKBeAU3hAX0eCUonpDFrlI04mgMBUVoyu0UvhtK2Vs/z4y86dNMv7J16Vl/YqyY/mvEn3QkbJt7XLp3flcmb8yTY47vqks/eBjqXxOB3nh6SeklLKgXX98IGO69ZWNh7WWhx99UFZ//Lh0vH64LI1pIMfXri471q+QHSUraEqJwyX1m7clreVV8sAjd0uN9HXyzewP5YrRr0nVkqXlyM3zRLq9II/1aSIbf3hRbhn1sGzI0Nzmav/4+/fvJaFiKYmKLy3HHdtKru3RRxodoRHdDmi1/pl6ekpqjMSho0bwpZYqeKxEKRhs0Q2m5coo8KYnyb33jJHpz0yXk8/vLJ9oErw6RzWRR8bcKNPH3SYvL0iSco3ayNrPH5dtG6OkwelXy8GVyqtKmC63jL9PGuqp3/Frv5LBY++Xn9fES+2ETFm1s7wMH/eAHFk9TUYNu1O++ulfOSRqp8z49DNpfHRTKVexgpSpWN7lpmqryfhSU9MkLjpGNb0AnsJ5eEU0OCXrXE4AnNIVVWJiRY/SVPvSdikRlyKzpk2UYVPfk0v79JfLWjeUt5+dLL9ujJZjmzSUSXcPlfWJdaRh7QqS/NtSmZeZIM9NnyOtD68qqf+8J/f1vEX+OaSJPDljsqQv+EpanjdAap/VVV5+7CZ5TVnXXY+8LZ07XicxPz8hs9ZXk9633iatS6/Rs8WmycdrKkuLJsfIujfHSokeE+WBy1vJNy89JuOeeUnqnXi8LP7xS2lct5H07DtKYsvskqTtmVJP/65cKUGSdm7FNKKqXUmFWjWIRDhzSlEgiouiLbqhdcd2tQ1myHfzvpB+N/SXdWuS5KCDq8iaVUskvvIhctPVXeT3z1+RRanl5cyuN8vnjwyRtz/4Xlp36CYdWmj/vfS0NL+kt/Ttc7W88uIjMvLZmdLplGOlzPYN8t2fO2TgyDFyWOI6GTh8hOyMrS6lNyyT1Rml5GJVv5scc7Rs3bnDHWlUS9OBBMwpnCHp/9ctosFJOYbE6kiLytAjnKOVbShzSkraIWUTRdYtXSjXD79fPvpxmdRN3CEl07ZItaNPl8MOrS5fv/+69Br9uLRqXF2Wzf9Dzr/zbrnsrMtl9E3dZcf23+TunrfKsvLVZeJTYyV1np6SevtzctTFPWX8HW3lw9mPy12T3pPO5/eTE6v/IcOnfy6/L18hlZP+Us9eSWnbdYjUVLvGy6N7y4c74qVxiThJXb9VGp9xplx7c2eZdt/t8uO8v2RregOpclCS1Di4rnTv2lPOaX+62p9gGrpRWRuWlhInJUpFODo5435ClvpEU6I3aqKz59RQ/ZK0btVBRg2+URb88L4MfWCqxGxLlwal1ctZ+WC55PrBkv7tR9JZ+6HPoDFy2yWt1bkxQca9PlfKVT1YtuxIkmqndJZ7rm4uv3w4UwaOe04qHlJPDo1dJRlxiXJ5r8GSuF5PVxn3iFRVD13JsqUlJiHenXBCcv8qFSsrO9XYs0jXmyMDY/a7lhENTllKg9KnzHTZlaxHQis4JKuqVypGB15GkiTt0BzH782T1b/MlWqqUjQ7p5t68pLkp0/elIv6DJbSURskeUcleeTzL+UIVUHandZctkSlyuczPpLYOtXlRM2NVHr5z/Lxj5slrXZLObziBknd8LssWZMmDeseJfUrp8k3i/6RT/T4nm0bVmqyrTZy/ElnyPZNG2TBZ7Plj7VbJWPrejmo/lHS8JT2Uq10hnz96mTN55Mif6VWl6jtv0uVyjXlrHbny2ENamlLUhSgVAfKUH1OjeJZVuRIvvS493RdKXDb0ZaYdbLgx2/k1182aTrhLnJIWW1x5l/yzrdL1b4UK0dWzJDfY1Ol1tEny5E7Nsmsj+ZI+cOPkyMOypSy8bvk+TlL5JefFkq9KhWl6Tk9pXHtXbL2x2/llU+XyJqkdKlbYoMc1+oUaXLimbLxl5/k64WLZIWGGmxT1oRBnNS7HAARH6MhIemq2inbDq7wlUBEg1PWmM8Cpy3b9fQLdXk597XO71LKQjKTt8jv20tKvUrxunDvkg1SSkrqd4kpqyUlobrEZ66RFeuqSHLVaKmr8TOSskG2VtTTTPUwXNVG3IpfNvkf9TglyMbEalIFkxD2dmVnpUomSWx8JUnZsUUyYuNku9qJSmtMlKSiVsZIcqpuAdmsZZTdJatUV1ubUU7qqJ27rHoXd25ZKavLVpNqWqcd29N0Ja/qVI3k5K1SIjFB66+n6SYr0dDiIvnKlCT1pmriMQSpHjJRtYsrKUUdBjEJEk9nZf4j2xNqSuyuaCmxY5tsqxQrOyRRqqucJDNavaFxUq0cT22Tv5NLSq2EGLU5LRVRL156nDKzdX9LWvnDZZvKr+TW5VJCZbkjOkFU7JIelSLrNPlZWbU3AU5sZyEWKlYZNkQusDiF9+iKaHAKb9EGtQskEEggLxIIwCkv0gueDSQQSKDAJBCAU4GJNig4kEAggbxIIACnvEgveDaQQCCBApNAAE4FJtqg4EACgQTyIoEAnPIiveDZQAKBBApMAgE4FZhog4IDCQQSyIsEAnDKi/SCZwMJBBIoMAlENjgRIm7RdARduv+IwYxzP2P1f6kacZ3BtuAMTdyfnhV2l5yyXWJK6ffJpSU9fo1kpmpQoAZSSvS/+rBG/KWW0Z9bdOOe/tQNp5oaUrdhpElKuh4cmJCoG4yjNL2JlhmbohHq0Ro8uVNidSNpfFyCJO9KkQSNVOeiehm61y8+hm3wiRr/rQGGKWmaQiRKwwxTJHWnpvnVwE23EVXTirjDDTVAUIvWdCleoKD+nZ6u3+kVo0ntuPQMX23TTslIzZCohFIa2JjhUqxkataDuEwNYGSPbXTibvFkaE4jl1xN686lufX0b4071fP1ojVi2j+aKSWV9MO6hTp9q9ZdI7xVnmlaJCIiDnVH0kZN3pYouzRwNbF0JRcsybVpy2opW063imgamBTduKxRsJrYTduj0dhsZC6hea64UtJS9HPNhrldsxWUZqvzTq2nbsRN1+/1BamZu3RT9C6JzSiv9SVSk0DbOJUBeda1HvH0aJLKt7Sk6u7vOJVvrGakoPeTdadAfEKJrCDYuChNNpeiQbGkZdZ8X9ouJ0Ntmxsf7q/gClcJRDY4MVMYZdEACL9kTVo9Bc0N4jid5elx+k8/T9dJnKj777JGZYZsS98uZUSTKMVs1A90q7uWtTP9X939XkYzB5ST6JI79PNS/52iygS1K2siZhDRnZIkJXQihEYaMwkQbJICWvmSTMgs0Ex12aayotp3JW3WyaoTOTbevYNMlH562h1Jetjlf0AUH/9fvaN0Umq5AAtAlqj79nbu1BxQCphp6VntZ/sLwMLescyoWL1PIVIj6LOOSdJTfzkIQO+1lMLZ5RG39LpZWQUUBPUf5WQdhMDEzkpTo5CtoKPJ5LbtkvIVCeNmt6O+wwFfggKH1o26802qlqLAm6qgEROrYBynN2nkPbi2Kz1ZtxElaSK5UpKgqRi0BE3MoFuQFJA0r4w2Re+N+v/5l1JSU3Sh2KogWFblpklyNLsmCwTZLgEnZBqjYelJKsOSJf9v/9B3uzSVS0mi8YMrbCUQ2eDk5iNAoPCj2xP4T6edAyYWybhdWyW6dEmdYpq2A1Bg7vCM4sUO3R9SUidQUspK/baqglesJJbSvWAKIDu2R0vJ0jv0Z4wO+CwWtHNn1mDetm2bm+yk7C1RQunXf8i0efNWBxzly5fVSZwFFICkm5gpO12a2ywAIrkL1dUEKbrl5T8io/ekZKWa1fe5vN3QGpKo6MTkbwduuiMYqLCc41mgm64MATAChPSu6CzWmJSs7yNpEe2O+f+b9PyTiNmPmJCQBZhMcN5lf1OfzKgsQINpwANTySipdU5QCgVeKOXcXbYde40MAFuAgisrVW/W+xUv/8tRpfm3VCaxcekOYFyFuXRfI+9JVwYVpZkDUzN2ZJ2arMDE+9J1sYnWfs7aEkcF3Auy2KbKF7lkHfag23+UZrnDGFR2LBaAOamWSRGcqWkwE9hqFOlpH/4TW1H9EeHgpIPZ1BRGvi7D0bAjxixjXdmRpsmUbcmqRinLQM3LULYTrWxnp7KH+BiYQZoOUc2tpN+x15Yhv0sHcFycru6qfP03BWTt+s1StXL5//bi8i5W/lhJVrUhAXaUlcDSAU8Kap6qEahLABRTTqdzVq4peEGyTrKEkrItSXUlvUqV0LPndicg0M2wuncvPlHZmhaWrvWMIh2MFr5LVUbwpoQCCvVN1olKa6N1sgF6KQpu0aoeRql6uUubVor2KQhm6rPJynxiNGOoJVkDQBJLartDkq5lTfL/KqPypE2bt29W0FQgRqbaCm2ZE1QKKpZusoarJikolExUYNbPknZq0rySmo1BAWL7thTN6Q1gq6RVNc3KocQ/BZKMlbpAVNW9jKocs6UwZqfs1Oyg8ZkVVMXT/YmxO7S+pTwIUdlpGZku3W+c9lGqbFy3USpWqbZ7fmap1bpApapqCMCDZC77wH+MVwE2U0E+htw0ur8vuMJXAhENTmlqm4hV1YWLSczK/z9HOyn1l8xESVL1AXNHbKbabdKUHWm+JOAiKX2zJMaW1UmvE8KpUHqvDur4xKzcUNG6URT7S8kypXaD1C4FlLIldWXWlR/VZde27RKrDCom0W1BdpOTyaoGIZ29mlw/vqyDpPTUnVIqU9+tzEZ0wiXpxNfXODUEsEG9stNY0rHJqBqWqlke4zSlr/I0p2A59vffv7QUZToKwaY2ObAE+lRniVamBFtI11xHJUqruqVpRHg+BZVKAY1km/9ZntwzW/UgiLLlKjiWs0kZYIUKbqetJG3ZKqXUhgTQq4Uoq/w0lYxO9nS19WQkltAkcuslLiFD09RUkGgFDNqfogAXH68gkJU0OQvxHZ7t1M9S1C6nm3RL6KEFslZV6wpKCfU+rVNadLLWU9mb9kOU4nZKAkxNVVfdiE1+9YQEtY/pHVjsWBjcTdgXtT7aDVJK8TNN2xilGUUBTWQbreAUX6qsq8J2zVJRtpSCt7LMdK1ETIksdhdc4SmBiAanFDW4xkUxAXSFV2BK11UxjlUfYFA2sXzxz/LHqiTZkBSn6lYJOblFA8eIli1aJkuXrpcqdStJw3rHSoLme0pN3iDffrNM1m7WlbimZhtIrSqnNztE020ky9fzf5JkTZt7fIsTpFzpGNmpGRDKq0FYNOuB0hT5599V8vuylTop06XZ0Y2lapUKsnHNKknd+K/8sXGXVKjdQOrVqC6ZW/+VX777XtJL1pKaRx6jlORv+f777zWNbGWdOFk2k6MaN5VSCoZZBludcTr5fvnzH1m9dpMcpRkjK5Qu4Q5xAIwof7F+949+l6xsArWxhE7KU09sLjs2rZNVq9fKRq3rjrRoKVe5uhxU4xCpVKG0ysyhjDKWLeoYKC3L/1omK9ZoxgBlmdX0nho1NePnrkyFjQ2aiiZdvv1xkazfkuRycDc/+khlRbHy96KFsnJXBWl4pCZ202yU0Qop875cLHVqHa6n0ujv8z9UoFf1eZuqXJqbKjY+WZodf6iyGpEfFvwu5UrVkdqNa0oVtUmt+HmhLF72r8QfXEPqaj71atqO7cv/lq+X/akZG+pJwwaHquoKfm2Vnxd9J2tXwqgqKxBvlJ0pUZoXq76qgJpHXheT449tpNkhVLSawmbtmg3y1/KVUrpCFWnU+GgplZjF+GJVLY9BDY4NmFN4wlJWrSIanFJ1gmK7gbBDHKKjWR9TdTJsla3bNsrIIXfKe5/+ogypjJxwQlO59foLpbSqDaOG3yu/LVovdZo1kQvPvkqu7NlKPvvwObmt3yOyLmmbnuDRRE5o0VNu79ZMnnlxhgwcMVbiy1WVK6/uIb17XasTK1HKlVTvUvIK+XbOtzJszP2a0+lbUTOPXHhBBxk5dJAad2Nk3G09ZPaPf8i5XXvJmJFDZOFns2TAzbfL1ugacm63/tK4/Erpd/Mtsn7TDme0Bzy6dr9GunbrLnXr1tTpvtWlgpnyxPOyYOFiuezSy6Vdm5PVCaZ2FdXPPnthggy5Z6L8vGKLGvh1Rqru1KRedXlo9AD5++d5cueEaQ5UtihhrH5oA7m2V2/p0+s6qVpeVcotm6Rs6Sj58atv5Y5BQ+SjL+ZJZnyinHbWuTJs5Ghp2vQwTVn8qdytCdumvzhbU46Uc8c43XT9VXK+Hjjw2ENjZeY3yTJ6bD9p3KSm/LxgifTrPUo6nd9FWrQ8TIaO6CPffPebMtLK2h/xckjtcnLjrZeqOpUijz3yiuZKP1QeeuZ5qVV6s0y9f7A8/fJMqdf8Qrl1yGhp26yOfP3uY9Lm8v7S9uQL5ca+t8uZ7RopgP4kEyeMkuefnqkZNLHFKTNSFtym3UVSqvzBsnDhQhkx5BZpVK+avDB9qkyZ8rjsVHCtdmh9uab3DXrySi+poKQ5eZsmJNSTcgKbUzhDU4SDk6k6gBMG0xgHTsoUtq+T1av+0RNSNLNlRhXpcOm1cqqmdK1/UKp88PrT8tSUFxRErpGXP/pCjqpzgtw1rpO8+daD8sjkz+TEU8+QxppO97yze8van9+Q+x/SXNZqoK131LHy8htvy6233iq9undS1USN39t+lDEPTJaHn3hRjm99hoJTtPy+dLFce3VXaa6pYacM7imvffOPglM3GTvmTvn45Wly282jpOTBjaTPiMelxD9a/oMPSstWJ0tpzUM0//uFqq2UkL433ixX97hcHeWbZat6nAaPHC9fzvtR+vcfLOef2QZnoxqSM2TutGHS/Za7pOxhx0itxic6g3rtCrHy0NC+MnX8nTLmqZlyuuZHjylTVT6aM0+JQkmd6L2ka5fLpJTmN07RFLmjRt8l06a/LC1OOk1ZVAX5esHP0uGSLnpQwC3y6riO8sLLH0ilqk2lUZOTZZbm+z7+mDoybHB3efftZ2XKW5vk4SlDpdmxteXPpavk/HY9pHuXPtKmbWPp3KWtlK9eWxofcbJ6JStJWY0KuLzbyfLzr9/KLTferQywkdw2XNt+eKpMe+AGeWXmn3JY63Pl4WmvStM66TJ+0IUyfPIcBenj5Zqr+0if6y9WRrRO3pz1lEx/6m35/Zctmovrb2Vjp0jDJq3l39XbZN68eTJsUD/Zsu4PeWTSvdLw8KOkYrUa8u3C3ySxbCUZPVqB78SjNKtzmp6WEwQShDc0RTg44S3CU7MrDQ8W1mP11UUrZGn8z9vPTJVBtw2TX1V96FKxjDTv/YjUa7ZJXuh/uXxfob/MvPt8eX9IB7n/n9Ly/jPDZNqdt8mk95PllHoHS70KW6TdU99JiZ/ultF3vS9Ve90lQ6vskmt7Xi/x10+SN7ueJSUrr5K0HXEyYWg/eeb9H+Si7jdL/cSt8tX8+dKi7VnS9rDSclvv6+QPwDI7AAAP2ElEQVSLxeuk7tlnysmtr5Z1P78gM19/U42+Z0q/UV3loC2LZMxjH8mUZ56WU5plyJr5b0qvXiOlxmk9pcu9D0hLXdxLpf0iQ24bIZ/8fJD0uWWwdDojUQ912Kyu9ENkyfhLpOPUHySxUUvp0rq2eujUDlT7dOnX6VR5t187eeHjv6XzhCc1PW0r+WHGXXLjkClS6ozhcv/4a+T4hFXKLrfJ1BF3y9AH35Y+A0ZLy8Ni5Y1PP5HWHXvKSQ0OkbE9O8m8mCYy9ZmnpFXpv+Td11+UX6PryGknNpVF0/rKXW8skRYN2kmjow5RFWypvLtgvXTpep5c2LSSDL/kesls004uOKGhdpN6Og+tK10uO0fmznhM+vUZKZmaLK7d+dfIqadWkCdv6yO/LEuTkud1lCcff0USF/woT0y6Tv5MOVhKlK8ssaXLyIAhA6Rx/SoSu3OzxCetlofvGSaPfb5Kj/V6U25oWU7eHD9Arnx+qfS/vrOs+HyKfJpaXybdep2c0PI4efWNd9wBndf2uEpTKFdSe5PGnqH+x2R5YoMrPCUQ0WqdgdMOPekgIUFjetQ+lKHhA6VV5Zr/2UfyxSdfy9qaNSTto+fk49V15arrOsgvLzwu3yZ0lFfvaSNvjrxMHvnrEJl+3zAFhnflu23lNXvl7/L9+2/IltbD5aomf8jjT3wrLUc9JbdU2SnnndtRYnqMldk3XiClKqqxXa8/5r4v/SdMlzmaq7z8Dj2ks+3p0vOWQVJ++2IZ0buPfL05Tg5p1lhi0g5RW816WfXnj7JxdRO5atT1UmnFOzLpuW9l9OQpcvFZevqK5i+/ptMNklyjpfS8f6IcW1b9iGmL5U49mmrWt6Wl38CR0uWcqmoQ3iQpyghXTrlOGl4/TVKq1JcmVTQrpFqpDm1ztYzqdZUsfrSvTHj+Sxkw4z05rW0ziV81R7rfMEbe31xPVZ6J0rbsMjVnHSorfnhNBk58WD79do1UTo2XBs1Ok/P7dpOmh2yQm9p3kdoXD5bbB1wnh8WtVy0oWbbG1lCb23r58O4uct1jH0vFzEOlTGKqbNVAyH83lJHbRt0sHU88RK5r10V+SomRExrXUtvPSjlKGelddw2QJZ+9LoP7j5ItsfWk9sGHyZHND5PlX70li5b+LmnHnCYzX3pDVn34qgwd1k/adOguy9dsksX/rJYe1yjju/xsKR+tOur2v2TC8FtlyicbZfizc6TzYRkyY/wgufWt5XLmyY1lw7zn5OALbpHRva9RZwNxVOrhxMGn/YWRv5Ia+bNyB2eFUQRXeEogssFJD6HkOCjiDOPU4+WCxV28T7KsUIMtLucyjQ+XJW+OlCuGzJLe190mf8x6R75ObShfTO8sE4d2k5f/PkKeHDNOKqZoPu8TWkj81sXS57Ju8uKyJjLqshIyc9YiOXXEk3JZ2W1yYcdLpMyVd8rbA/Vn+VTZpEn0Vy/8Ur7+a6em462l+cGnymuz3pOzL+kqPc48Rp4fNVSWVDtZT/yIl/df+FyOOO9MqanpfX/9YJO0GXqHNFj/kjz88i8yesrTcnqrQ+T372bK9d0GSN0T2svtk++XOjqxEjL/lDEKTm/O05Nwh96jh3TWdIbhbRpAuvyhvtLhrtfkrG7Xy+lNlWWULCsplRvLiQ1qyvsjr5SJr3wl9838VI+fOkz+/PJluXHw/bKsVEt5WW1VR8etlmQ1nv/++UeydGNpWZ9cQn794jWZ/vZsqXBYC5k6+jYZes0VEt3kPBkx6k5pXVdk9dIf5VvFqCPqHySfTLpRBs36Sbqd3VeOa1hdlqgBe+iYl+XKazvJVRc2k+s7qX2n+Wlyx1UXukDJ2Bp1pWmzuvLipGEy9bHpUr/FpfLHZ+/Jmpi60vyo0rJ142LZUbaxPD1ppLw6ZbAMu/cVqV6tlKzdQPxVKel7+xAZrycCl1BvXfLaH+UhXVAefn+TjH3uE+nYIF6eHTdYRrz7p5x3WjNZ+eV02Vmnldre7pGKlcvKwp+XuqDLOrVqSuXyZTR0QwNJNZAzKtLP3gpPTMm3WkU2OOlpsuordlHhOznETrdJlNSBl6GhAW+8+rJ8/c0XUq3ZMZK+eLa8+sUKub7XbfLnp+/JM3P/kfv7n+uOclpRoqWMveMW+fjVR2VX+YpyTP1K8sKjj+rg7igDL6opjz/1pqQ0OENOSNgob74zW068baLce81JGoeZrO7rlTLwarVXffWn9O1/t9RUG9HEKU/JQUccJ3dccYY8O7CvbGt1gzSruUsmjp4gJ/QdKU0PzpTPJr8vjW7vLy1S3pXeg56Xzv2GyuGNysoHM56UJfP/kUGj75eLrrtElDjplpvlan8ZIQ/O+FFatOsgJzWpqjacNKnRqIVEfTBRbnhE7UqXdJfWTWqrl6+ccqqKcrIC8keT+8vkVz+Tk/S7xmrc/kCPU/pl2Qa5Yuij0lPV0oMzt0tK9FoF0Qvlg/nb5bIeN8oxdXbJpCeflbWqMs5+8ml5YuIQefS97+Scc9vLOU0rypNTH1IAOVgeGDtCvnv1QRnz+WJ5ZvxL0u7ERvLTgnlyTodb5byLz5Jzzmkol7W/So9g7yKXtT1OSpcrL9vUntX4mPoy982p8uyzr0qL866TlR8/KG8vOlSu7NFGkjf+IMv/rSDXXXy8PPPknTJvbTNpf1yUbN0RI4t+3yTVD64vE8aNkaMbVtYTzZfKwxOGyZR3N8uQ+56UrifVlSl63NctU2bJ+FF3SOza72XYlJekw9kdpW6D+mpPnOVCNe4Zc7ec0kq9pLp+pWnISIKGQgRX+EogosHJ7Rdz0c96fAGnrxAjowwqSU/k/ejDD+ShKWNk0bIoTYqfLM1PO1XtOV1k1+oFcuvdj0mCHiyQWeJwOf2KK6T7xW1k8ti7ZPrr86S0xjsdVqecXKInx55xWCW598EJ8tIny+WgqNV6emxjuXTgJDmhAdtF9N2aQP+bt56Te6a+Kd8vXiNltiyTarUPl3Ov6CWnH1VNHht4jcSdcauWk6ZM5HFpctMIaVg5WeY88o7U7tldGm3/Ui657j6JKldPKlTV7TVp2+X8MzrLgMF3Spka8Rq/o4bb5I0y/ZHHZOBDL8iq7Rmq5u2QmjUqOSN7y+iVMujB52WlnubCfroEPVm3TNVD5d4h/WXDojky8fm35Oe/10qdQ2tLdMpGadP+fLV1TZJKpeKkSqxuGVFD//zZk+Xep6bLp9/9K1WSYiSxaiM5vUtnPSbrbFk4b7FMnv66fPr5JxKz/V8Xa3R2pyvVqH6tfPLa/2vvXGOqrsM4/j2cczjAuXDgKJAJDUMNUZQyjXkFp02zZi7XVubaKqstm5u9ab6pd5Uvur3oRbM1Z29qtmYaSoSouImmBZkXckISCiKXc4NzP31+h6z1sq0taBzenAv8L8/h9/x+v+f5fJ9nrz5o/l5vv/6eli2aoc6f27Vzx4d6bPN6LV1VTuZut67eDMobHQYjgAfzzdT2l7dqljembxqatWTji7JceldfXpmrLU/Vq/vHI7p4PqXF5Xn6qaNJC578TLu3+jQWd+iTfV9r3/4D2vnqDj3/zCOsjge0541dOnbZoe2vvKZNy+dp/8cfadeevTitt1Q7p1BvvvO+mlrOKMxW3+ny6PEntmjbtm2qJJZmUIokGkSrfbK33pq4juXfuLJJ7ZyMJMHcwLhu7O+PBEHY8+3NOtVCjMFtV926atLZ9Cuz9Krx6BG1tw6roGyltjy9GiwgqIG+2zrR2guDc0V1axdoYW2FfA6Xfrl8Wo3NPQTZb+r+xUu18CFaC1lGiFi4YYECKrSN6sTpqzr4XZt8kRtaQhC4asUGOYNdaj38hayVa7S0PKWTX51RAYFyH+fqaepSYf182W9cUOPxXg0EYZbSfZo3q0xrlm1S+ewSJaC7QUzligXVdf6cDrSdxTkx5Q+FuF+LHtywSjVOm461tdM3r/9PMt446pee3aqRG9fU0tGh3p4h2mTZVF5RppqVy1VxXyVbRVZkpDeD2M+dPayW1g4dPv6DihIjmvtAnRbWP6x7aGNlNGgXaDra0NAgP52OF1Uv0CpaKxUXFant1DG1/3ZLa1dsVimrwVC4X59/elbzqmC6Kt062nhOF7t7aHp5G8DTp27iWUtqq1VVnNblzm6u/zklOon/+StUUz1bXedOaiQ4TaWuLGJy11Sx/gVVTTecl0PtF6/haFrJuK5WTdW9TEJhtTYd0nW/SyuW1aq02KvOS1d0CGe0bm295vM9/0rW9OC3J9R1vUfzaXK6YeOjsG5GyM0RjYAZsbUVQfDUY+JaYFI7J2PWO1S1eW6kFxmHxQAdF3yOKTiQKzv90XIcIcXDHtnzTIavn+d3K+2EliZG5R/qU75veiZAOhSGCGdlgfgCPbGVZCBwYrxYUYuhyGkQmSDwbhvkDL4M+Z2bGlAUuUUSEjkvFUAjh+A0x6184kLptIdGn+aog9CIPkWcEOyAlbZRiOW8YVZ7ZLHsJeORWquhnXE+SWh0I/XIQsoBCZ2f0QOCR1gMJl0gJzBoFLwg4UojumHmB/zMCJ1BEAxbmY4gnQFsNFUUgmjTPA5o7wivqYRAfJqKB5DqBlxNQsFbEc+STPCHvLJTXCBPgKM4+5BlhgpMY0/EuYaVNw/Y8swK1ZIh0bkGBL82tkopjpXKCXLuUaRxxbT5NvcS0iCxKcc0l1xsf40FRiDijS9wakiRwKjinpm49xH1E0UiH6d0MKCYu9Cw39g4oWFWsAU40BiTTBot3xhEt4s276ZKRBarHiMNCkdjxI8sVEyIypJLhQIjszPt/rh2G98XhiBeZfR1NFz9YwzeEbIYCt/G51OPiWuBSe+cxk2byghXbWjKzDg3w8eI9O2wQJY4PI99AKoazUQE4ptkj9sTJlhOxQHCyk6aMVocQDgMnGSyTwkG+e2wTSVIG0yrtWxiTZaxQsUJT6D8kBUfkaZigQnSjvGf7oJSjsFSx/jQhXMyIrEAs72H6E+Q97NCbLfspqSKl8E0QlrcxuBxUUrlKn9cStkUBxo4M35pwEmsLCv7LpyGobX8DPd8FXE+M9qijiDvQbpTNSHJYIzksq5Ku+QwNLxxw0bOYZwlrxMcx5rrViAxpHxTGwYBc9TozfBJDHO2eNxzivszkp6xmzhpj7GEPACowrEGuC9PahCHmIcjM86JEjHIgAzwasXOoVBEOQX0f8OkxmfFuHZ/oo9M2hy2l1x7pA/xbQmuJyUv50sE4op5vZmERU68L5PC9yc9yseefraK+eYUMGJB5CrDg7dUBvAaZlJwRmfwu1R0QCA8/mPykZSYCTPZGC9okm2pEBm4MWUXmsnlr/6dNvoHIgcYV/UgGTJlaMJUcHAj/kVOnQkBTBVNmbiOyVzZ/8Q5TWwjT13dlAWmLPDPLfBfOaffAR3AoQiPRsF8AAAAAElFTkSuQmCC;" vertex="1" parent="1">
          <mxGeometry x="130" y="725.31" width="245" height="155.31" as="geometry" />
        </mxCell>
      </root>
    </mxGraphModel>
  </diagram>
</mxfile>
